/* XPM */
static char *_55a6d8253f147fa86262f5fe9e32e69Lg5wX14ZC50ezQe5[] = {
/* columns rows colors chars-per-pixel */
"64 64 35 1 ",
"  c #B04DEE",
". c #A666F5",
"X c #CC6FFC",
"o c #B23EE5",
"O c #A962F5",
"+ c #DE9EFF",
"@ c #B04AED",
"# c #7F0EBC",
"$ c #AC66F5",
"% c #DC9AFC",
"& c #8015C5",
"* c #AE4FED",
"= c #C96CFB",
"- c #DFA1FF",
"; c #AC6AF2",
": c #B243E3",
"> c #F2D7FF",
", c #CC73F9",
"< c #D994FA",
"1 c #7F13C5",
"2 c #B354EA",
"3 c #B13BE4",
"4 c #F1D0FC",
"5 c #8413BF",
"6 c #DFA5F9",
"7 c #CE78F7",
"8 c #EDC8F9",
"9 c #831AC5",
"0 c white",
"q c #821CC8",
"w c #AD71F0",
"e c #F8F4FA",
"r c #8520C3",
"t c #F5EDF8",
"y c #EBC0F6",
/* pixels */
"****************::::::o:************::::::::::::::::*******@r&99",
" @@@ @  @      @o333333o@ @ @ @ @ @@o33333333333333o@ @ @@ @q1&&",
"    @@@@@@@@@@@@o3oooo3o@@@@@@@@@@@@o3oooo3ooooooooo@@@@@@@@&1&&",
"    222222222222::::::::222222222222::::::::oooooooo*222222*91&&",
"  @2y888tttttttt%<<<<<<%y8888888888y%<<<<<<<$OOOOOO;y888888yr1&&",
"  @24>>>0000000e6+-----64>>>>>>>>>>>6------%;......w4>>>>>>8r1&&",
"  @28>4>0000000e6+-+++%64>>>>>>>>>>46+-----%;......w4>>>>4>8r1&&",
"  @24>>>eeeeeeet-%++---6444444444448+%%%%%%<;OOOOOO;8444>>>8r1&&",
"  @2t00twwwwwwww7,,7844866666666wwww2222::::::o: * 277774>>8r1&&",
"   2e00e;OO.O..O=X=74>>46++++++<;OOO @@@33o3333o@  *=X=,8>>8r1&&",
"  @2t00ew......$=X=78>>46+-+-+-%;..O*   oooooooo@  *=X=74>>8r1&&",
"   2e00ewO.....$,,,784486++++++<;..O*  @oooooooo * 2=X=784>yr1&&",
"  @2e00ewO.$=X=7y8886666++-%7,,,$..O*   @@@@@@@ ====XXX,-66%r1&&",
"   2t00ewO.$XXX74>>4-+++++-%,=X=$..O           *=XXXXXX,%++<r1&&",
"  @2e00ewO..=X=78>>46+-+-+-%,XXX$..O*         @*=XXXXXX,%--<r1&&",
"@ @2t00twO.$,,,784446++++%+%,=X=OO.O    ** *  *2=XXXXX=,%+-<r1&&",
"ooo:6666,=X,<%%%6666++-%7,,,$$$O** *   *OOOO====XXXX$$.;%+-<r1&&",
"oo3:<++%,XX,%-++++++++-%,=X=$..O*@@    *O..$XXXXXXXX$..;%+-<r1&&",
"oo3:<--%,XX,%-++++++++-%,XXX$..O*       O..$=XXXXXXX$..;%--<r1&&",
"ooo:<-+%7,,7%-++++++++%<,=X=$OOO       *$;$;,,,,XXX=$.O$<%%<r1&&",
"oo3:<-++%%%%++++++-%7,7,$$$O*       OOO$<%%%%%%<;$$$* * ::::5###",
"oo3:<-++----++++++-%,=X=$..O @     *O..;%--+---%;..O*@ @o3335###",
"oo3:<+++++++++++++-%,XXX$..O*     @ O.O;%-++++-%;..O*  @ooo35###",
"oo3:%66-+++++++++%%%,XXX$$$O*      *$;;w%-++%%+<$O.O @@@ooo35###",
"@@@284486++++++%7,,,XXXXX=X=OOOOOOO$<%%%++-%w;;;*** ooooooo35###",
"  @28>>46++++++%,=XXXXXXXXXX$......;%---+++%;O.O @ @ooooooo35###",
"  @28>>46++++++%,XXXXXXXXXXX$......;%-++--+%;...*  @ooooooo35###",
"  @28>446++++%+<,XXXXXXXXXX=$......;<%%+%%+<$OOO*  @ooooooo35###",
"  @28>>46+-%7,,,XXXXXXXX$$$$...$=X=X,,,,;;;$****   @oooo@@ :5###",
"  @28>>46+-%,=XXXXXXXXXX.......$XXXXXXX=...O*      @oooo  *@5###",
"  @28>>46+-%,XXXXXXXXXXX$......$XXXXXXXX$..O*      @oooo@  @5###",
"@@@28444-%+<,XXXXXXX=XX=$...$$$$XXXX=XX=$..O*       oooo **@5###",
"ooo:%66+7,7,XXXXXXXX$$$$....=X=XXXXX$$$$...O*       @@@ OOOO91&&",
"oo3:<++%,=XXXXXXXXXX$......$XXXXXXXX$......O*          *O..Oq&&&",
"oo3:%--%7XXXXXXXXXXX$......$XXXXXXXX.......O          @ O..Oq1&&",
"ooo:<-+%,XXXXXXXXXX=$...$$.$=XXXXXX=.......O* *       **O..Oq1&&",
"oo3:<-+%,XXXXXX=$$$$...$====XXXX;$$$........OO.O   *====$..Oq1&&",
"ooo:<-+%,XXXXXXX.......$XXXXXXXX$...............*  *=XXX...Oq1&&",
"oo3:%--%,XXXXXXX$.......=XXXXXXX$..............O @@ =XXX$..Oq1&&",
"oo3:<+%<,XXXXXX=$...;;;;,,,,XXX=$...............2222=XXX$O.Oq1&&",
"ooo:$;;;XXXX$$$$...;<%%%%%%<;$$$...............;<<<<,XX=2**@5###",
"ooooO.O$XXXX$......;%---++-%;..................;%--+,XX= @ @5###",
"ooo:O..$XXXX$......;%-++++-%;..................;%-+%,XX=*@ @5###",
"oo3:OOO$=XX=$...;;.;%-++%%%<;OOOOOOO....OOO.;;.w%-+%,=X= @ @5###",
"oooo * *O$$$...;<%%%++-%w;;;*  *** *O..O***2<%%%++-%;$$O*  @5###",
"oooo@   O......;%---++-%;O.O*       ...O  @2%---++-%;..O*  @5###",
"oooo@   O......;%-++---%;..O*       ...O  @2%-++++-%;..O @ @5###",
"oooo@   O...;;;w%+++%%%<$OOO @@@@@@ OOOO*  2<%%%%%%<$OOO** @5###",
"oooo@   O..;<%%%++-%w;;$*** oooooooo **2====,,,,;;;;** *OOOO91&&",
"oooo@   O..;%---++-%;O.O*@ @oooooooo@  *=XXXXXX=$..O*  *O..Oq&&&",
"oooo@   ...;%-++---%;..O*  @oooooooo@ @ =XXXXXXX...O*   O..Oq1&&",
"oooo@@@ O$O;<+%%%%%<;OOO @@@oooooooo * *=XXXXXX=OOOO*  *$.$Oq1&&",
"ooooooo:===X,,,,;;;$*** :ooooooo@@@ O.OO$.$$$$$O* **    =XX=91&&",
"oooooooo=XXXXXX=O..O   @oooooooo   *O...........*      *=XX=q1&&",
"ooooooo:=,XXXXXX$..O    oooooooo@ @*O..........O*     @ =XX=q1&&",
"oooooooo========OO.O @ @oooooooo****O...OOOOOOOO**  ** 2,,,=91&&",
"oooo@@@@:::: *******oooooooo@@@ OOOO...O*** ****OOOO===,<%%<9###",
"oooo@  @oooo@      @o3oooooo@  *O......O @@ @   O..$XXX,%+-<5###",
"oooo@  @oooo        oooooooo    O......O*       O..$XXX,+--<5###",
"3333@@@@3333@@@@@@@@33333333@@@@OOOOOOOO@@@@@@@@OOOO====<<%<5###",
"9999qqq955559qqqqqq955555555555&qqq9qqq95555555&qqqqrqrr9995####",
"&&&&&&11####11&11&&1############1&111111########11111111########",
"&&&&&&&&####&&&&&&&&############&&&&&&&&########&&&&&&&&########",
"&&&&&&&&####&&&&&&&&############&&&&&&&&########&&&&&&&&########"
};
	