/* XPM */
static char *_72da0b30f93476beb3e6ac498e73e95LCzAL5okuUhzIbEE[] = {
/* columns rows colors chars-per-pixel */
"64 64 33 1 ",
"  c #503C1D",
". c #523E1E",
"X c #493519",
"o c #54401F",
"O c #564120",
"+ c #402E15",
"@ c #5E4C25",
"# c #463217",
"$ c #4A371A",
"% c #574321",
"& c #614F28",
"* c #382813",
"= c #67592F",
"- c #422913",
"; c #64542C",
": c #4E391B",
"> c #5C4923",
", c white",
"< c #312311",
"1 c #725F3A",
"2 c #837660",
"3 c #F0EEEB",
"4 c #1D1A17",
"5 c #776847",
"6 c #BBB1A2",
"7 c #CCC3B2",
"8 c #A0978E",
"9 c #F8F7F5",
"0 c #3D3C3A",
"q c #46443E",
"w c #E7E5DF",
"e c #DBD5C7",
"r c #978C7C",
/* pixels */
"==;;;;;;;;======;;============O..%============;;======;;;;;;;;==",
"==;;;;&&;;;==;;;;;;=;;===;===;.  %;===;===;;=;;;;;;==;;;&&;;;;==",
"=;%%%o: O%%%oooooooooo%%oo%%%O+--#%%%OoO%Ooooooooooo%%%o: O%%>==",
"=;%o. X$ ...  ..      ..  .oOo+--+oOo.  ..     ...  ... XX .O%==",
"=;%.X#######X:..:$$$$$XX++.OOo+--+oOO ++XX$$$$$:..$X#######Xo%==",
"=;O ######XX$:o.XX$::$$$++.Oo.-*-+ooO.++X$:$XXX$o.$X##XX####.O;=",
">>$#*#%#++#X#XOO++:X##XX++.o:X*<<*$:O.###X#X$#+#Oo#++#XX :++X$>>",
"o.X#-X>288888r@O++28888882OO:X*<<*X:O=88882>O++#O=86666r&:++#XO%",
"<<#### 6,,,,,w1>$$6,,,,,,7&@o +--+ O@29,,,6;>:X:>29,,,,e1O####<<",
"4<###+$6,,,,,w1>::6,,,,,,7&&%.---#.%&29,,,71&:X:>29,,,,e1>####<4",
"00 :+#%6,,,,,w1>::6,,,,,,7&@o ---+ O@29,,,71@:X:>29,,,,e1%++  00",
"qq. +X@633333e1>::63333336&@o ---+ O@2w33361>:X:>5w333371%+# .qq",
"=;%o.o%;555555&@. &=551151;&%.+--#o%&=55111@O  o@;555551>Oooo%;=",
"=;Ooo..o>@@@@@@>.   >>oo>@&@%.---#o%&&&@OO>>   .>@@@@@@>o.ooo%;=",
"@>:X+++++++++#$$++++++++++X$$X*<**$$:$##++##++++$$++++++++++X:>@",
"@>$X+++*******$$++********XX$X*<<*X$X#*****+++++$X*******+*+X:>@",
"=;O.X.&5222222&>$$52222225>@O.-**+.O@=22225>OXX:@=222222&OXX.O;=",
"=;%oX%17,,,,,w1&::6,,,,,,7;&%.+--+o%&29,,,71@:X:&29,,,,e5>$:o%==",
";;o #.=7,,,,,w1@$$6,,,,,,7&@o ---+.O@29,,,71>X#:@29,,,,e5OXX.o;;",
";&o #.=7,,,,,w1@X$6,,,,,,7&@o ---+ O@29,,,71>X#$@29,,,,e1O## o;;",
"=;O.XO17,,,,,w1>XX6,,,,,,7&&%.+--+.%@29,,,71@X#$>29,,,,e1OXX.%;=",
"=;o XO=633333e=>XX63333336&&O ---+.%@2w33361>:#$>5w333371O$X.O;=",
"@>$XX:>=11111=>%$$;111111=%O$X*<<*X:O>1111=>%oX$%@11111=>O$XX$>@",
"@>XXX:%%oooooO%%$$O%%%%OooOo$#*<<*X$oOooO%%%%O$:%%oooooO%%$XX$>@",
"=;o.oO&&&&@@&&@>..>@@@@@&@%%o ---+.o%%@&@@@@@> .@@&&@@&&&@oo.O;=",
"=;%Oo%&&&&@@&&&@o.@@@@@@&&%%Oo+--#oO%%&&@@@@@>.o@&&&@@&&&&OoO%==",
"=;o ##:   ::  oo::::::$$$:.o..---+..o.:$$$::::::oo  ::   :## O;=",
"=;o ++XXXXXXX$..$XXXXX##+#:   ---+   :#+##XXXXX:..$XXXXXXX++ o;=",
"=;%.##   .oooo>>:$.. :**<444-+----#-444<<*  ..$:>>ooo.   :##.%==",
";;%.## . .oooO@@:$oo. *<4444*------<44444* .o.X:@@Oooo. . ##.%;;",
"**$X++$$XXX$::Oo#+$$$#444<#X*<****<*X#<<44X$$X+#oO::$XXX$X++$X**",
"4<XX++X$XXXX$:oo++X$$#44<*.o*<<<<<<*o.*<44#$$X++oo:$XXXX$X++X#<4",
"00 :##    .ooO@@X#.oo.:$ .@&.:-**-:.&@. $:.oo #X@@Ooo.    ##  00",
"qq. #X...o%%%%&&$Xo%%%%%%%&&%o+--+o%&&%%%%%%%o#$&&%%%Oo.. ## .qq",
";;%o..O%@&&&@@&@..>@@@&&@@&&%o+--+o%&&@@&&@@@>..@&@@&&&@%O..o%;;",
"=;%Ooo%%&&&&@@@@oo@@@@&&@@&&%o+--+o%&&@@&&@@@@oo@@@@&&&&%%ooO%==",
"=;%o....ooooOOOOOO%%%%%O  O%%o+--+o%%O  O%%%%%OOOO%Ooooo....O%==",
"=;%o        ...ooooooo..XX.oo.----.oo.XX .oooooo....        o%;=",
"@>$X+++++++++#$$#+++++++++XX$X*<<*X$XX++++++++++XX++++++++++X$>>",
">%X#**++++++++XX++++*****+XXXX*<<*X$$X++**++++++$$++++++++*+#$%>",
";&.:##:::  ...>>$X::::XX: >>o ---+ o@>. XX   :X$>>o.. ::::##:.;;",
"=;o ## ...OOO%@@:$... $$.O&&%.----.%&&O.$$....$:@@%OOO... ## o;=",
";;o ++.oooooO%@@:X.ooo...o@@o +--- o@@o...ooo.X:@@%Oooooo.++ o;;",
";&o ++.oooooO%@@:X.o.ooo.o@@o ---- o@@o.oo..o.X:@@%Oooooo.++ o;;",
"=;%oXX.oOOOOO%@@X# .$:oOoO&&%.----.%&&OoOo:$. #X@@%OOOOOo.XXo%;=",
"=;%o$$.oOOOOO%@>X# .$$oOO%&&%.----.%&&%OOo$$. #X>@%OOOOOo.$$o%;=",
"@>:$XXoOOOOOOO%%$XO%..OOOO%%:X****X:%%OOOO..%OX$%%OOOOOOOoXX$:>@",
"@>$XX$oOOOooOO%O$$O%OOOOOOOo$X*<<*X$oOOOOOOO%O$$O%OOooOOOo$XX:>@",
";;ooooOOOo::..OOoooOooooOOOOo.-**-.oOOOOooooOoooOO..::oOOOoooO;=",
"=;%OOOoooo$$ .oOoo......ooOOOo+--+oOOOoo......ooOo. X$ooooooO%==",
"=;o.$XXXXXXX$:..XX####++$:... ---- ...:$++####XX..:XXXXXXXXX.o;;",
";&o ######XXXX..######++X:.o. ---- .o.:X++######oo$X$X###### o&&",
"** .XX  .... .>>X#:     .o@@O.---+.O@@o.  ..  #X>>..ooo.. XX. *<",
"4< .XX.ooOOo..@@X# .oooo.o&&O ---- O&&o...... #X>@..ooooo.XX. <4",
"00$X++$$$$$$X$%%++X$$$$$$$O%:X*<<*X$OO$X$$$$$X++%%$XXXXX$X++X$00",
"qqX#++XXXXXXXXOO++XXXXXXXX.o$#*<<*X$oo$XX$$$$X++O%$XXXXX$X++#Xqq",
";;O.XX.o..  .o>>X#       .O%o ---+.o%%..      #X>@oo  ooo.XX.O;;",
"==%o$:O%%OooO%@@$#......oO%%Oo+---.O%%OOooooo.X$@@%%ooO%%O:$o%==",
"=;O.$:@&&&&&&&&@oo@@@@@@@@@@o ----.o@@@@@@&&&@oO@&&&&&&&&@:$.O;=",
"=;o $:&&&&&&&&&@%%&&&&&@@@@@o ---- o@@@@@@&&&&%%@&&&&&&&&&:$ o;=",
"==%o  oOOO%%%%OoOO%%OO%%%%%%O.+---.O%%%%OOoo%%OOoO%%%%OOOo  o%==",
"=;%.      .oo.  ooo.  ...oooo.---- .....    .ooo  .oo.      .%;=",
" :+**********************<************<<<********************+: ",
"X#*<<<<<<<<<<<<<<<<<<<<<4<<<<<<<<<<<<<<<<<<<<<<<<<<<<<<<<<<<<*#X"
};
