/* XPM */
static char *_5b34776025849f1bd177313e4e7947clM8QwlcNTmjrkT1K[] = {
/* columns rows colors chars-per-pixel */
"64 64 23 1 ",
"  c black",
". c #755A30",
"X c #0B0803",
"o c #836539",
"O c #523F20",
"+ c #7A5E33",
"@ c #664E29",
"# c #584323",
"$ c #44331A",
"% c #71562E",
"& c #896A3C",
"* c #8E6F40",
"= c #3C2D17",
"- c #614A27",
"; c #4B391D",
": c #322513",
"> c #181209",
", c #241B0E",
"< c #937649",
"1 c #6A512B",
"2 c #65696B",
"3 c #565657",
"4 c #785C32",
/* pixels */
"<<&&o&<<<<<<<<&&<<<<<<<<&&<<<<+%X              XX>,:==;-1.%.4+**",
"<<oooo<<<<<<<<oo<<<<<<<*oo*<<*41X              XX>,,:=;#@%1%4+&*",
"&o44+++4+4+4+444+4+4+4+++++++.#;X              XXX>,::=;O#-@1%+o",
"oo44444444444444..444444444++.#;X              XXX>,,:=;O#-@1%+o",
"<*+%;;########..;;########.++.#;X              XXXX>>,::=$=$@%&*",
"<<+%$=;OOOOO;O..$=;OOOOO;O%++.#;X              XXXX>>,:::=:=@%**",
"<<+%O$XXXXXXX>+oO;XXXXXXXX.o4.;=               XX   X:, XX=;@%**",
"<<+%#;       X+o#;        .&4.$=               XX   X:>   =;@%&*",
"224.#;       Xo*#;X      X+*4.@#X              XX   X=>   =;@%22",
"224.#;       Xo*#;X      X+*+.1-X              XX   X=,   =;@%22",
"33+.#;       X+o#;        .&4.#;X              XX   X:>   =;@%33",
"334.#;XXXXXXXX+o#;XXXXXXXX.&+.#;X              XX   X:> XX=;@%33",
"oo4.@@++&&&o++oo@@++o&&o++oo+.#;X              XX>>,,:$O--O#1%++",
"&o4.-@oo***&oooo-@oo****oooo+.#;X              XX>,,,:$O--O#1%+o",
"<*+%$$########..$$########.++.$=               XXXX>>,::=$==@%&*",
"<<+%$$OOOOOOOO..$$OOOOOOOO%4+.$=               XXXX>>,:::=:=@%**",
"<<+%O$>XXXXXX>4oO;>XXXXXX>.o4.-#X              XX   X:, XX=$@%**",
"<<+%#;       X+o#;        .&4.1-X              XX   X:>   =;@%&*",
"&&+.#;       Xo*#;X      X+*+.#OX              XX   X=>   =;@%+o",
"oo+.#;       Xo*#;X      X+*+.#;X              XX   X=,   =;@%+o",
"<*+.#;       X+o#;        4&4.#;X              XX   X:>   =;@%&*",
"<<+%#;XXXXXX X+o#;XXXXXXXX.&+.#;X              XX   X:>  X=;@%**",
"<<+.--.4ooo+.4oo--.4oooo44oo+.;=               XXX>,,:$;##OO1%**",
"<<+.@1&&****&&oo11o&****&&oo+.$=               XX>,,,:$#@@##1%**",
"<<44oooo&o4.@@11oooo&o+.@@11.4@#X              XXX>,:::$#@1%1%**",
"<<44o&oooo4.@@@@o&oooo4.@@@@.41-X              XXX>,:::$#@%%1%**",
"<<+%OO----####%%OO----####%.4.#OX              XXX>>>:::=$$$@%**",
"<<+%==OOOOOOOO..$=OOOOOOOO.+4.#;X              XXXX>>,:::=::@%&*",
"&&+.OO%%%%%%%%ooOO%%%%22223344#;X              XX>>,,:$$;O$$@%+o",
"oo4%O#4++++++4oo##4+4+2222334.#;X              XX>>,,:$;O#$;@%++",
"221@OO@1111111oo#O@1@@33O;-@1@$=               XXX>>,:==$;$$#-22",
"22@-OO@@@@@@@@oo#O@@@@33==-@@-$=                XX>>>:==$;$$#-22",
"33.%OO%..%@@@@&&OO%..%$$=$o&.%-#X              XXX>,,:==;#$$@133",
"334.O#.44.@@@@&*OO.4+%$$$$&*4.@-X              XXXX,,:==O#$$@%33",
"oo4.-@oo&&&&&&oo-@oo&&o&&ooo4.#;X              XX>>,,:;O--OO@%4+",
"&o4.@1oo******oo@@oo******oo4.#;X              XX>,,,:;#--O#@%++",
"oo44oooo4++.11@@..44+4111@.44.#;X              XXX>,,::$O-1%11++",
"&o44oooo...%--@@%....%----.44.O;X              XXX>,,::$;-@111++",
"<*4%$$OOOOOOOO%.$$OOOOOOOO+o4%$=               XXXX>>,::====@%&&",
"<*+%$$O#OOOOOO..$$OOOOOOOOoo4%$=               XXXX>>,::==:=@%&*",
"<*4%OO%.......ooOO%.......oo4.@#X              XXX>,,:$$O#$$@%&*",
"<*4%O#4+444444ooOO.+444444oo4.1-X              XX>>,,:$;O#$$@%&*",
"<*4%O#.4444.@@&&OO.4444.@@&*4.#;X              XXX>,,:=$O#$$@%&*",
"<*4%O#.4444%-@**OO.4444.@@&*+.O;X              XXX>,,:=$O#$$@%&*",
"<*4%O#.44%@@@@**OO.44.@@@@&*+.#;X              XXX>,,:==;#$$@%&*",
"<*4%OO.44.@@@@&&OO.44.@@@@&*4%#;X              XXX>,,:==;#$$@%&*",
"<*4.-@oo&&&&&&oo-@oo&&&&&&oo1-$=                X>>,,:;O--OO@%&*",
"<*4.@1oo******oo@@oo******oo@-$=               XX>,,,:;#--O#@%&*",
"oo44oooooo+.11@@%.oooo+.11@@@@-#X              XXX>,:::$#-@111++",
"oo.4ooooo+.%--@@.4ooo+.%--@@@@@-X               XX>,:::$#-@111++",
"<*4%$$O##OOOOO%.@@OO#OOOOO+o.%#;X              XXXX>,:::====@%&&",
"<*4%$$OOOO#OOO.4@-OOOO#OO#+&4.#;X              XXXX>,:::==:=-%&*",
"22+.OO........ooOO%.......oo4.#;X              XXX>,,:$$O#$$@%22",
"224.O#4+444444ooOO.+444444oo4.#;X              XX>>,,:$;O#$$@%22",
"334.O#.4444.@1&&OO.4444.@@&&4%;=               XXX>,,:=$O#$$@%33",
"334.O#.4444%-@**OO.4444%@@&*+%$=               XXX>,,:=$O#$$@133",
"oo.%O#.44%@@-@**OO.44.@@@@&*+.-#X              XXX>,,:==;#$$@%.4",
"&o4%OO.44.@@@@&*OO.44.@@@@&*4.1-X              XXX>,,:==;#$$@%++",
"oo4.-@oo&&&&&&oo-@oo&&&&&&oo1@#;X               X>>,,:;O--OO@%++",
"oo4.@1oo******oo@@oo******oo@-O;X              XX>,,,:;#--O#@1++",
"<*1@@@4+o&&o+41@@@4+o&&o+41@@@#;X              XX>>,,:=;##O##-o&",
"<*@--@%.ooo+%%---@%.ooo+.%--@-O;X               XX>,,,=;##OO##o&",
"##$$$$$$$$$$;$$$$$$$$$$;$$$$$$$=                 XXX>>,,:::===OO",
"OO=$$$$$$===$$$$$$$$$===$$$$$$$=                 XXX>>,,,:::==;;"
};
