/* XPM */
static char *e45b9c1f16ec4ec3e56b645c6af20bedNPnioT7OQ1fVBo1F[] = {
/* columns rows colors chars-per-pixel */
"64 64 245 2 ",
"   c #4E7332",
".  c #5C6936",
"X  c #67724D",
"o  c #6D6278",
"O  c #636E5D",
"+  c #4C8632",
"@  c #6B9A57",
"#  c #71A45B",
"$  c #749670",
"%  c #77A668",
"&  c #5DA14A",
"*  c #869970",
"=  c #ACA67B",
"-  c #83A573",
";  c #CBA37D",
":  c #7C0DB4",
">  c #7D0EBC",
",  c #7D12BC",
"<  c #7B16B7",
"1  c #791CAB",
"2  c #7B2BAA",
"3  c #7D29B2",
"4  c #7D2B99",
"5  c #106D98",
"6  c #0F75A9",
"7  c #2569AC",
"8  c #2D629B",
"9  c #53738E",
"0  c #556FB4",
"q  c #6C7696",
"w  c #7D0EC1",
"e  c #7C0CC8",
"r  c #7E15C3",
"t  c #7D1BC4",
"y  c #7A18C8",
"u  c #7B21C8",
"i  c #5A66C9",
"p  c #6D6CD6",
"a  c #6579E4",
"s  c #820EBD",
"d  c #810EB6",
"f  c #8213BC",
"g  c #831AB7",
"h  c #801DAE",
"j  c #8325B8",
"k  c #9331A5",
"l  c #B5779C",
"z  c #A948BE",
"x  c #9476B1",
"c  c #B87AB1",
"v  c #827C98",
"b  c #C47CAF",
"n  c #C0739D",
"m  c #810DC3",
"M  c #8214C3",
"N  c #841AC4",
"B  c #8215C9",
"V  c #841AC7",
"C  c #8013D0",
"Z  c #8521C5",
"A  c #AD3BDC",
"S  c #B13EDD",
"D  c #AD3DE4",
"F  c #AE3DE9",
"G  c #B23DE4",
"H  c #B23DE9",
"J  c #B83EE7",
"K  c #9751D7",
"L  c #A74AC5",
"P  c #AC43DC",
"I  c #AA48D8",
"U  c #B144DC",
"Y  c #B148D8",
"T  c #A95ED5",
"R  c #AB55DE",
"E  c #AA5BDB",
"W  c #A459DA",
"Q  c #A855CF",
"!  c #9A6CD9",
"~  c #9472D7",
"^  c #A768D7",
"/  c #A577DD",
"(  c #AB6FCD",
")  c #9656E4",
"_  c #AC42E4",
"`  c #AC4DE5",
"'  c #AD44EB",
"]  c #AC4CEC",
"[  c #A64AE7",
"{  c #B141E4",
"}  c #B24CE6",
"|  c #B346EB",
" . c #B24CEC",
".. c #B847EC",
"X. c #AB52E6",
"o. c #A553ED",
"O. c #AC51EC",
"+. c #A958E7",
"@. c #B251EC",
"#. c #B157E5",
"$. c #AE4DF1",
"%. c #A949F6",
"&. c #B24CF1",
"*. c #B646F2",
"=. c #AD52F2",
"-. c #AB5DF4",
";. c #AC5EFA",
":. c #A75BF7",
">. c #B358F4",
",. c #9C66EB",
"<. c #9975E5",
"1. c #946DED",
"2. c #AB6BE4",
"3. c #A465EC",
"4. c #AC64ED",
"5. c #A46AEC",
"6. c #AC6BEC",
"7. c #A76AE4",
"8. c #B26AEC",
"9. c #B266EA",
"0. c #AA74E4",
"q. c #A564F4",
"w. c #AB63F4",
"e. c #A469F4",
"r. c #AA6AF3",
"t. c #A565F9",
"y. c #AB63FA",
"u. c #A869F9",
"i. c #B263F4",
"p. c #B365F7",
"a. c #BE73FA",
"s. c #AF79EF",
"d. c #C77AD7",
"f. c #C879EB",
"g. c #CB6DF5",
"h. c #C56EFC",
"j. c #CC6DFC",
"k. c #C768FA",
"l. c #D26DFD",
"z. c #D26DF6",
"x. c #C574F4",
"c. c #CB73F5",
"v. c #C572FC",
"b. c #CB71FC",
"n. c #C879F4",
"m. c #D373FC",
"M. c #0982A8",
"N. c #138AB5",
"B. c #2D8CB5",
"V. c #288396",
"C. c #738689",
"Z. c #5095B6",
"A. c #6F93B1",
"S. c #1998CA",
"D. c #2496C7",
"F. c #3A9CCB",
"G. c #3195D1",
"H. c #1AA2D1",
"J. c #27A8DB",
"K. c #37ADD8",
"L. c #3D92E4",
"P. c #2BAAE3",
"I. c #37ABE3",
"U. c #2BB2E7",
"Y. c #34B3E6",
"T. c #39B5E8",
"R. c #5191D0",
"E. c #6E8BD6",
"W. c #48AADE",
"Q. c #4CA8D6",
"!. c #4E96E4",
"~. c #698EE6",
"^. c #47A7E6",
"/. c #44B4E8",
"(. c #55AAE9",
"). c #6FA6E7",
"_. c #6CA0C8",
"`. c #8B968C",
"'. c #B6A78C",
"]. c #958BA2",
"[. c #B38DAD",
"{. c #91B1B6",
"}. c #B8B2A7",
"|. c #B2AFAF",
" X c #A68E9B",
".X c #D29F94",
"XX c #D09E8C",
"oX c #CBA787",
"OX c #D3A384",
"+X c #D3A48B",
"@X c #D6A587",
"#X c #C8A899",
"$X c #D5A497",
"%X c #CC99A8",
"&X c #D29AA6",
"*X c #CB90B7",
"=X c #CAA7A6",
"-X c #B08BD4",
";X c #AF90EF",
":X c #95AFF4",
">X c #B6B6FB",
",X c #9F92D1",
"<X c #CA8CD6",
"1X c #DD8DFF",
"2X c #D789FF",
"3X c #CC9AFF",
"4X c #D595FF",
"5X c #DC94FF",
"6X c #D59BFF",
"7X c #DD9CFE",
"8X c #D99AF5",
"9X c #C787E8",
"0X c #E294FF",
"qX c #E29CFE",
"wX c #E897FF",
"eX c #E194F5",
"rX c #D9A6EC",
"tX c #CAA8FE",
"yX c #DAA4F5",
"uX c #DCA1FC",
"iX c #D7A8F8",
"pX c #C3B7FF",
"aX c #E2A1FE",
"sX c #E4A6F8",
"dX c #EDBCFF",
"fX c #F3BDFF",
"gX c #F8BBFF",
"hX c #F2ACFF",
"jX c #AAC7F1",
"kX c #D2CFFF",
"lX c #EBC6FF",
"zX c #F4C3FF",
"xX c #FBC6FF",
"cX c #F4CCFF",
"vX c #FBCBFF",
"bX c #ECDCFE",
"nX c #EAD7FB",
"mX c #F4D4FE",
"MX c #FAD3FF",
"NX c #F6DAFE",
"BX c #E9E3FF",
"VX c #FEE3FF",
"CX c #FDECFF",
"ZX c #FFF4FF",
"AX c #FFFDFE",
/* pixels */
"$.$.O.] &. .} } $.$.$.] ` ` ] ] _ _ _ _ G G H F  .] ` `  . .} I ` [  .| P P U S G G H G { _ D G F H G D  .] ] ] ] ] $.' B r t t ",
"] ] ] ] ]  .} ` $.$.$.] O.] ]  ._ _ D D G G H F ] ] ] ]  . . .@.] ]  .| { P A S D G G G D D D H G D G { ] ] ] ]  . .=.' V r r r ",
"O.O.=.=.[ ` ` ] ] ] ] ] ] ` ` { S S G G G G G _ &.$.$.$.] ] ' ' ' &.| ' ' _ A G D G G G G { G A U U G ..' ] ] ] ` ` ` [ V M M M ",
"] ] ] [ #.E E E W T T T T T T T I Y I P U P I I R R R R E E +.R R #.R R I I P U I I P { P _ _ P I I D P R E E E R W E E < , M M ",
"&. .] #.hXgXfXlXNXVXVXVXVXVXVXMX8X5X5X5X5X5X4X8XgXzXzXdXlXlXzXdXlXlXfXgX5X1X1X1X1X5X5X2X8.-.-.;.w.4.-.8.hXzXfXzXfXfXzXhXj , r B ",
" . .` E xXMXmXNXZXAXAXAXAXAXAXZXiXuXuXuXuXuXyXrXcXmXNXbXnXnXbXbXnXnXbXmXtXtXuXuXuXuXuX4X6.e.t.t.e.e.q.7.xXMXmXmXmXmXMXxX2 < M M ",
"} } ` E zXmXnXnXZXAXAXAXAXAXAXZXiX6X7X7X7X6XuXyXvXmXbXbXBXBXbXbXBXbXBXkX:X:X:X>XiX7XqX7X6.3.t.q.e.e.q.0.cXMXmXmXbXnXmXzX2 , N N ",
"} @.` ^ lXNXnXbXCXCXZXZXCXCXCXVXuX7X0XqXuXyXyXiXlXkX>XjXjXjXjXjXjXjXjX:XR.).~.:X3X0X0X0X9.-.y.y.w.q.-.6.gXxXxXcXmXnXmXlX2 < M B ",
"&.] ] T VXZXAXCX-X/ / / 0.0.0.0.n.c.c.f.zXcXcXlX>XE.R.R.R.F.F.F.F.F.F.I.I.^.(.~.K Y U U { _ _ _ O.O.] X.n.n.9X<XcXmXmXzX2 , B B ",
"$.&.] E VXAXAXCX/ ,.,.,.q.3.4.9.b.j.z.f.xXmXmXnX:X(.^.T.Y.I.Y.T.U.U.P.U.P.I.^.a K G G G G G G S }  . . .j.x.x.f.cXmXNXzX3 , y C ",
" . .] E VXAXAXCX/ ,.5.5.q.q.w.i.k.z.z.f.xXmXmXbX:X!.I.Y.Y.J.Y.Y.Y.Y.P.Y.P.P.^.a K J G G G G H G | } ` } j.b.c.f.zXmXmXdX3 t y y ",
" . .] E VXAXAXCX/ ,.,.3.w.w.w.i.x.f.f.9XzXmXmXkX).F.I.Y.Y.P.T.T.T.Y.P.Y.U.P.^.~.K G _ _ G G { {  . .` @.j.b.c.f.xXMXMXfXj , r y ",
"`  .] T VXAXAXCX0.q.q.w.a.v.x.x.gXxXxXzXiXrXiXpX).F.I.Y.U.J.Y.T.T.Y.J.U.U.P.L.a ) ] ] ] } } } ] k.k.j.h.b.j.b.n.8XyXiX5Xg f N N ",
"`  .` T VXAXAXCX0.q.q.w.v.b.c.f.xXcXmXcXiXuXuXtX).F.I.T.U.H.Y.T.T.J.J.U.U.P.L.a ,.O.O.]  . .O.O.j.b.b.x.b.g.g.c.7XuXaX0Xg f M , ",
" . .} T VXAXAXVX/ w.y.y.v.b.b.f.xXmXbXmXrXqX0XtXE.6 B.Y.J.H.P.Y.Y.J.H.P.U.J.!.a ) ]  .*.*. .] X.j.j.h.x.b.b.j.c.5X7XqX1Xg f t t ",
" . .} E VXZXZXVX/ 4.w.i.x.x.x.9XzXmXbXlXsXqXqXtXZ.5 5 Q.F.F.J.P.U.J.H.J.P.G.R.p ) ] $.&.&. .O.X.g.c.b.b.x.x.h.b.7X7XaX1Xg f r r ",
"G D D I 7XrXyXuXx.v.v.v.0X0X7X7XsXyXiXyXsXqX7XtX0 8 9 {.{.{.R.D.H.S.N.H.H.N.7 i ,.y.-.-.h.j.k.j.j.g.c.x.w.w.w.6.4XyXaX5Xj , r r ",
"G G G P 0XaXqX0Xn.b.v.x.0XqX7X8XqX7X7X7XqXqXaXtX0 8 9 |.'.}.Z.N.S.S.M.N.N.6 7 i 1.y.q.w.x.b.j.j.j.g.c.x.w.t.t.6.4XuX7X1Xj N M M ",
"G G G P 0XqX7X5Xf.x.x.n.0XqXaXuXqX7X7XqXqXqX7XtX,X0 9 |.}.|.V.M.N.N.6 6 6 6 7 i 1.w.-.i.g.m.b.b.j.b.b.v.w.t.t.6.4XaXqX1Xg f M N ",
"G G G I 0XqXqX7Xf.f.n.n.5X7X7X6X6X7XqXwX0X0X7XuX;X,X].|.`.C.V.M.N.6 5 6 N.6 7 i 1.6.4.9.x.c.c.x.v.v.v.v.y.y.y.i.0XwXwX2XZ M M N ",
"G G G Y 0XqXqX7X0X0X5X5XqXqXaXuXyXaXqX0Xf.f.x.s.0.-X=X=XA.8 N.N.N.N.N.6 6 6 0 ~ 3X7X4X4X7X7X7X5X6.w.w.w.o.] ] ` I I Y U : > r w ",
"G G G Y 5X7X7X7XqXqXqX7XqX7X7X7X8X7XqXwXc.x.x.n.7.( l  X_.(.W.K.K./.^.B.7 7 i <.6X7XuXuX6XuX7X6Xr.q.w.w.] &. .| U A S A f , r w ",
"G G D I 5XyXyX7X7XqXqXqXqXqXaXuX6X7XqX0Xc.k.h.a.6.7.( ~ E.(./.T./.W.(.E.p ~ 1.,.4X7XaXaX7X7XuX6X6.w.w.>.]  . ...S S { A f > > > ",
"D D _ I 8XrXrXyXuXqX7X7X7X7X7X7X7X7X7X0Xb.l.j.v.+.8.6.<.~.^././.T.W.).E.<.7.7.0.6X7XqXqX5X7X6X4Xw.y.;.>. . .....D G H G f , s M ",
".. .} R gXvXcXcXyX7XuX7X7X7X7XqXf.n.x.v.j.l.l.j.g.g.b.s.).(./././.W.).E.;X6XuX6XuXuX7X7X8.8.2.8.+.O.O.] _ D { G G H H G f , s s ",
" . . .E zXMXmXcXiXuXuXuX7X7X7X5Xc.b.x.v.l.l.l.z.c.g.b.s.E.W.^.I.I.W.(.E.tXuX7XuXuXuX7X7X6.4.4.9.O.] ] ] { G G D F F H G , , s s ",
" . . .E zXmXmXcXyX7X6X7X7XqXqX0Xc.z.g.g.l.l.j.b.b.v.v.<.Z.B.D.D.D.D.G.E.tXqX7X7XqXqX6X4Xr.q.w.i.O.] ] } G G G G G G G D , , > s ",
"}  .] E zXmXmXcXiXuX7XaX5X0X0X0Xc.b.g.j.l.j.k.x.a.a.a.<.A.Z.Z.Z.Z.Z.R.E.3XwX5X0X0X0X5X4Xu.w.-.;.] ]  .| G G G G G _ ' D , > > s ",
"}  .] E zXmXmXcXrX7X7X5Xn.n.n.c.x.v.b.j.j.j.j.h.p.w.6.( |.}.}.}.}.|.|.-X9Xc.b.v.9.9.8.p.X.O.=.=.&. ...| G D _ _ }  .] ' f s s s ",
" . .] E zXmXmXcXyXuXaX0Xx.x.c.c.x.x.v.j.j.b.j.h.;.w.3.x &X@X+X+XoX.X%X-Xd.x.b.v.i.4.w.i.`  .$.$.&. ...| { D ' _  . .] ] f s s s ",
" . .] E zXmXmXcXrX8X8X0Xc.b.b.b.j.k.k.j.c.c.k.h.i.y.u.( %XXXoXoXoX+X%Xb f.b.b.v.w.w.q.w.X.@.&.$.$.]  .| ' D H D |  . .] f s > m ",
"}  .] R gXMXcXcXyX7X0X0Xc.j.b.j.b.j.j.c.x.x.h.h.i.-.q.^ %X$XoX; ; $X%Xc f.v.h.v.w.t.t.w.X.` $.$.$.]  .| ' D H D } ] O.] M s > , ",
"G G _ I 7XuXuX7Xf.n.n.c.g.l.b.j.b.v.b.x.i.w.y.y.y.y.w.( %X+XoXOXOX+X%X[.2.w.p.w.t.t.t.-.O.] $.$.] ] ] ] | | .. .;.;.y.;.N M M f ",
"G G D I 0XqXqX0Xn.x.c.c.j.j.b.b.h.h.c.x.w.t.t.t.y.y.w.( %XoXOXOXOX+X[.[.7.:.y.y.t.t.t.-.O.]  . . . .O.] } } } ] ;.t.y.-.N M M f ",
"G G D I 0XqXqX7Xx.x.b.b.j.j.b.j.b.j.c.x.w.q.t.q.q.q.3.( %XOXOXOX@X$X[.[.7.t.y.w.w.w.w.-.X.`  . .}  .$.]  .} @.O.y.t.w.-.t r M f ",
"G G G P 0XqXqX0Xc.b.b.b.j.j.b.j.j.h.c.x.w.q.q.q.w.4.4.( %XOXOXOX@X$X[.x 7.q.t.q.q.w.w.-.O.O.O.O.&.&.$.] @.} ` X.w.t.e.-.t r M M ",
"G G G U 0XqXqX7Xc.k.b.b.k.j.j.j.p.p.i.9.w.y.w.w.h.h.x.d.&XOXOXOXOX$X[.x / e.e.t.t.t.q.w.w.;.y.;.$.&.$.=.k.j.j.v.q.t.q.-.t r B M ",
"G G G U 0XqXqX0Xc.k.b.b.b.b.b.j.w.y.w.w.w.y.w.i.v.b.c.d.&XOXOXOXOX$X[.x / e.e.e.e.t.q.q.y.y.y.y.$. .] O.j.j.j.v.w.q.w.-.t r B r ",
"G G G U 0XqX7X7Xc.j.b.b.b.b.b.v.w.y.w.q.q.q.q.w.v.c.c.d.&XOXOXOXoX#X[.x 7.e.e.t.q.q.w.w.w.y.y.-.X.` X.X.j.b.b.v.w.q.w.-.t r M r ",
"G G G P 1X7X7X5Xb.j.j.b.v.v.v.a.w.t.q.q.5.5.5.6.x.c.f.<X&X+XOXoXoX#X Xx 7.q.q.e.q.q.w.w.w.w.w.w.+.R R R j.j.k.h.i.w.i.>.t r M r ",
"S G G _ 9.6.7.8.b.j.j.b.i.i.w.w.w.q.q.5.6X6X6X7X5X0X0XrX=X#XoXoX#X#X[.x ^ w.w.q.q.t.e.u.q.q.e.6.4X5X5X1Xx.j.j.j.O.O.O.] , , , , ",
"S G G _ -.3.3.4.j.j.b.v.w.w.w.w.q.e.e.6.4XuX6XuXaXqXqXrX X'.= = = '. Xx 7.w.y.t.t.t.q.q.q.e.5.7.7XqXqX0Xb.b.j.j.O.]  .] f > , , ",
"S G H ' ;.q.q.w.v.b.b.v.w.w.t.t.w.w.5.6.7XaX7X7X8XqXaXrX].* * * @ $ C.x ! w.q.q.q.y.t.t.q.3.3.6.4XuX7X7Xx.v.j.j. .&. .| f > , , ",
"G G H ' ;.y.y.w.h.h.v.a.w.y.t.t.4.4.7.0.8XqX7X7X7X5X7X9X].`.- % @ @ $ ].! y.q.q.-.y.;.:.8.7.7.2.7XyXuX7Xa.h.h.k. .&.&.| f > f > ",
"G G H F =.o.o.o.i.i.4.r.w.y.t.r.5X0X7X4XqX7X7X4X6.6.6.~ C.$ % # # % `.v ! y.w.w.O.O.o.-.2X7X7X7X7XuXuX7X8.p.p.i.O.&.&.| f > f > ",
"G G H D ] ] ] o.-.w.3.q.q.y.q.4.5X0XuX6XqXqX6X6X3.w.q.~ q $ @ # # # `.v ! y.w.w.O.] ] O.5XaXqX6X7X7XuX4X6.w.w.-.O.$.&.| f > s s ",
"G D H G |  .@.O.i.w.e.e.t.y.q.6.7X6XuXyX7XaX7X4X2.w.y.! q $ % % & & $ q ~ t.q.w.`  .&.@.0XqX7XuXqX7XaX7Xr.q.u.w.o.] $.' , , > m ",
"D D G G ..}  .] -.w.5.e.q.r.6.8.7X6XuXyX7X0X7X5X9.-.y.5.o X     +   X o ! t.w.-.X.@. .X.0X0X7X7X7X5X7X4Xw.q.w.w.o.o.O.] , , w w ",
"G G G G  .&.] o.-.w.3.7.4X7X4X7XqX7X7X7X8.9.2.9.W o.:.) o X . . . X X o Q =.=.@.k.g.g.b.x.c.x.x.8.6.6.6.+.X.O.o.-.w.w.;.t M r M ",
"G G D G | &.$.=.;.w.3.7.7XuX7XqXqXqXuX4X8.4.4.4.o.o.%.W l '.'.'.= '.#Xl Q ] ]  .j.c.c.b.b.b.b.x.w.q.w.w.X.`  .] w.u.w.-.t B r r ",
"G G G { | &.&.O.>.i.4.8.5XqXqX7XqXuXuX6X6.4.y.p.O.] $.L l $X+XoX; oX$Xl L ] &.>.j.j.b.k.j.j.j.h.p.w.w.-.@. .&.] -.w.q.-.y y r M ",
"G G G G | | ] ] >.>.9.8.2X0X0X0X7X6XuX3X6.-.-.;.$.] &.L l $XXXOXoXoX$Xl L =.O.] h.v.v.v.v.v.b.x.w.-.-.>. .] $.] i.p.p.-.y t r M ",
"G G G G { { _ _ j.b.v.x.n.n.f.x.6.5.e.r.+.X.@.&.' D G z l $X.X+X+XXX$X[.^ y.y.w.w.w.w.w.w.w.4.9.+.X.O.@. . .$.] h.h.j.k.t r M M ",
"G G G G G D D _ j.j.j.h.b.x.c.x.w.q.t.q.o.` } | J J J z n $X.XXX+XXX$X[.^ t.t.t.q.q.q.q.w.w.w.w.X.` ] ]  .$.$.@.j.l.m.k.N r M M ",
"G G G G G { D _ l.l.l.l.j.j.b.k.i.w.w.-.O.&. ...D H G z n $X+XOX@X+X+X[.^ t.t.e.t.q.q.w.w.w.w.w.] ] ] $.$.] ]  .j.g.z.k.N r B B ",
"G G G G G D _ _ k.k.j.j.j.j.j.k.>.>.i.>.&.|  .| | G D z b .X+XOX; @X+X[.^ q.t.q.y.y.y.y.i.-.-.i.O.O.O.$.=.@. .@.b.c.c.g.g M B B ",
"H G G { ....| | _ _ P _ }  . .@.] ] O.] _ D { G F H D L *X&XXX+XOXOX.X*X^ y.y.y.o.o.O.] O.O.O.o.-.w.w.i.h.j.j.c.5X7X0X2X< : , > ",
"G G D { .. . .| _ _ _ _ }  . . . . . .} _ G G G H H G L c &X$X+XOX+X$X*X^ w.-.;.o.] ]  . .] ] o.w.u.q.w.h.b.g.c.5X6XaX5X1 : , , ",
"H F D {  . . . ._ _ D _  . .&.&. .] ]  .{ H G G | G G P z *X$X; OX+X$X*X^ w.y.p.=.$.&.&. . .O.O.w.w.q.p.x.l.z.c.qX7XaX0Xh d f , ",
"F D D ' ' | | | D D D D ' | ' ] $.] ] ] D D F D D A D P I d.*X&X&X%X*X<X^ -.=.=.] ] ' ' ' ' ] ] ;.-.-.w.k.k.k.g.2X5X0Xm.g : : , ",
"N M M N N N N N f f f f N N N N V B V N f , M r M f f g : j k k 4 2 2 3 < u Z Z < g f M M M M r B t u u Z Z N N j 3 h j s B M w ",
"M M M M r r M f > > > > M M , r M M r r , : , , > r : d , > : : < < t y r r r , : : > > w w > > M B y y r r r r : : : : m m m w ",
"M M M M r r M M > s s s M M r r M M r r , > , , > m > s f > f f M , B M f N M M , , w m m m f f M r M M f M B M , , : : M M f > ",
"M M M M r r M M > s s > M M r r f , r r w > d : > m m m f : M > M M B M f g M M > > w e w > d : M M M M M M B B > , , f > > f d "
};
