/* XPM */
static char *b62d31de053f40c6c1c6f5a91dbd4be0b3KtF8WGaZGoK6hI[] = {
/* columns rows colors chars-per-pixel */
"64 64 250 2 ",
"   c #32691A",
".  c #347029",
"X  c #425D19",
"o  c #48631A",
"O  c #45732F",
"+  c #474E31",
"@  c #296775",
"#  c #557D67",
"$  c #51853F",
"%  c #3B8B6A",
"&  c #558E48",
"*  c #6AA45B",
"=  c #458D75",
"-  c #749478",
";  c #68A868",
":  c #74AD6A",
">  c #71AD70",
",  c #61A05F",
"<  c #A1945F",
"1  c #AC9A6C",
"2  c #A39D7C",
"3  c #CAA67D",
"4  c #D2A47E",
"5  c #D09F7E",
"6  c #7E0EBB",
"7  c #7A0DB4",
"8  c #7D12BC",
"9  c #7C16B8",
"0  c #7A1AA9",
"q  c #7C2AAE",
"w  c #196C88",
"e  c #14728B",
"r  c #05779D",
"t  c #126E95",
"y  c #236F8E",
"u  c #0475A4",
"i  c #0A76A3",
"p  c #047AA3",
"a  c #0978AA",
"s  c #097CB1",
"d  c #1570A7",
"f  c #2C6EAF",
"g  c #476BBB",
"h  c #755C91",
"j  c #7D0EC1",
"k  c #7D14C3",
"l  c #7D1AC4",
"z  c #7B18C9",
"x  c #7A20C7",
"c  c #5572C7",
"v  c #6B77E4",
"b  c #820EBD",
"n  c #800FB5",
"m  c #8213BD",
"M  c #831BB7",
"N  c #801DAE",
"B  c #8224B9",
"V  c #A754B8",
"C  c #9076B7",
"Z  c #B871BB",
"A  c #AD72B8",
"S  c #8215C3",
"D  c #831BC4",
"F  c #8114CA",
"G  c #851AC6",
"H  c #830DC4",
"J  c #8521C4",
"K  c #AD3CDA",
"L  c #B33DDD",
"P  c #B938DD",
"I  c #A63ACE",
"U  c #AD3EE4",
"Y  c #AE3EE9",
"T  c #B23DE3",
"R  c #B23DE9",
"E  c #B93AE2",
"W  c #9353D9",
"Q  c #AC44DC",
"!  c #A849D9",
"~  c #B244DB",
"^  c #A95ED5",
"/  c #AB5BDB",
"(  c #A857DA",
")  c #B35ACC",
"_  c #9976CE",
"`  c #AC6CC8",
"'  c #A868DB",
"]  c #A677DC",
"[  c #B370CA",
"{  c #9459E6",
"}  c #AC42E3",
"|  c #AD4CE5",
" . c #AD44EB",
".. c #AC4CEC",
"X. c #A54AE5",
"o. c #B241E4",
"O. c #B24CE6",
"+. c #B346EB",
"@. c #B24CEC",
"#. c #B848EA",
"$. c #A653ED",
"%. c #AB51EC",
"&. c #AA56E5",
"*. c #B253E9",
"=. c #AE4DF1",
"-. c #AC46F0",
";. c #B24BF1",
":. c #B84BF2",
">. c #AC51F2",
",. c #AB5DF4",
"<. c #AB5CF8",
"1. c #B259F6",
"2. c #9E67EB",
"3. c #9473ED",
"4. c #A365EC",
"5. c #AB64EC",
"6. c #AC6AED",
"7. c #A769E7",
"8. c #B269EB",
"9. c #AA75E5",
"0. c #A564F3",
"q. c #AB63F4",
"w. c #A464F9",
"e. c #AB63FA",
"r. c #A869F4",
"t. c #B263F4",
"y. c #B265F6",
"u. c #BB75F9",
"i. c #B27AF1",
"p. c #C678EA",
"a. c #CC6DF5",
"s. c #C66EFD",
"d. c #CC6DFC",
"f. c #C868FA",
"g. c #D36DFE",
"h. c #C574F4",
"j. c #CB73F4",
"k. c #C571FB",
"l. c #CB71FC",
"z. c #C979F4",
"x. c #D373FD",
"c. c #CE6EED",
"v. c #258299",
"b. c #0683AB",
"n. c #048CBB",
"m. c #0989B6",
"M. c #1786B7",
"N. c #0A92BD",
"B. c #138EB7",
"V. c #2D8FB3",
"C. c #729A8C",
"Z. c #5193B3",
"A. c #5FA1B3",
"S. c #078CC2",
"D. c #1695C7",
"F. c #2497C8",
"G. c #279CD3",
"H. c #379DCE",
"J. c #18A6D8",
"K. c #12A1CD",
"L. c #28A7DA",
"P. c #3AA8D9",
"I. c #3CB5DD",
"U. c #2FA6CE",
"Y. c #2F9AE5",
"T. c #1BABE2",
"R. c #29ADE3",
"E. c #37ABE3",
"W. c #2BB2E9",
"Q. c #3AB4E5",
"!. c #4E96CC",
"~. c #6F93D7",
"^. c #48AADC",
"/. c #59A3DC",
"(. c #45B4DE",
"). c #5AA5CC",
"_. c #5687E6",
"`. c #6A95E6",
"'. c #47ACE5",
"]. c #44B3E6",
"[. c #4CB7EF",
"{. c #6BA9E9",
"}. c #62A4DD",
"|. c #898D83",
" X c #889186",
".X c #889293",
"XX c #84A28C",
"oX c #B5AAAE",
"OX c #A9969D",
"+X c #CB9F91",
"@X c #CCA483",
"#X c #C9A487",
"$X c #D2A483",
"%X c #D4A789",
"&X c #CEA596",
"*X c #D4A395",
"=X c #D69DA8",
"-X c #CD99B9",
";X c #D59BB5",
":X c #CF96B1",
">X c #CDA1A3",
",X c #D6A3AB",
"<X c #B787CB",
"1X c #9090ED",
"2X c #8FABF2",
"3X c #ACABF7",
"4X c #B292DC",
"5X c #CA8BCA",
"6X c #DC8DFF",
"7X c #DA89FF",
"8X c #D595FF",
"9X c #DD94FF",
"0X c #D59BFD",
"qX c #DD9CFE",
"wX c #DA9CF5",
"eX c #CC8BEC",
"rX c #E294FF",
"tX c #E19DFE",
"yX c #E799FB",
"uX c #E294F7",
"iX c #C9A7FF",
"pX c #DCA1FD",
"aX c #D8A6F7",
"sX c #D6A9F2",
"dX c #E2A1FE",
"fX c #E3A5F5",
"gX c #EEBAFF",
"hX c #F3BDFF",
"jX c #F6B8FF",
"kX c #E7A7EF",
"lX c #DAA3CF",
"zX c #ABC9F6",
"xX c #AECEF5",
"cX c #9DC3F4",
"vX c #D3D4FF",
"bX c #EEC3FF",
"nX c #F4C3FF",
"mX c #F4CCFF",
"MX c #FACCFF",
"NX c #FAC5FF",
"BX c #E9D8FC",
"VX c #F4D4FE",
"CX c #FAD3FF",
"ZX c #F6DAFE",
"AX c #ECE2FF",
"SX c #FEE3FF",
"DX c #FDECFF",
"FX c #F1E3FF",
"GX c #FFF4FF",
"HX c #FFFDFE",
/* pixels */
"=.=.%...;.@.O.O.=.=.=...| | ....U T E E T U Q Q O.| ..X.| @.| | | ...... .T T L E T o.L Q L U R R R T U @.....@.....=.-.G l l l ",
"..........@.O.| =.=.=...%.....@.U T E E T U } } O.@.%.%.@.@.| | ........} U T L E L L L Q } T R T U T o.........@.@.;. .G k k k ",
"%.%.>.>.X.| | ............| | | } } } T T U } } +.@.X.....@.| ..@.+.....U U } U T P P L U } T T L ~ T #.| ......| | | X.G S S S ",
"......X.&./ / / ^ ^ ^ ^ ^ ^ ^ ^ ! ! ! ! Q Q Q ! *.*.( &.( / ( / / ( &.&.! ! ! ! Q ~ ~ #.Q X.} } ! ! U Q ( / / / / ( / / 9 8 S S ",
";.@...&.jXhXhXbXZXSXSXSXSXSXSXCX0X9X9X9X6X6X9X9XjXhXgXbXhXhXhXnXnXhXnXgXrXrX6X6XrX6XrX7Xt.q.,.,.5.5.,.8.gXnXhXnXnXhXnXgXB 9 l F ",
"@.@.| / NXCXVXZXGXHXHXHXHXHXHXGXsXdXpXdXtXtXfXaXZXAXAXAXZXVXBXVXVXBXZXBXsXaXiXaXpXqXtX9X8.0.w.w.r.r.0.7.MXCXVXVXVXVXCXNXq 9 S S ",
"O.O.| / nXVXBXBXGXHXHXHXHXHXHXDXsXwXwXpXqXwXpXsXvXzXxXxXvXAXBXBXFXBXAXvX3X3X2X3XiXpXpXqX6.5.0.w.r.r.0.6.nXCXVXVXVXBXVXnXq 9 D G ",
"O.*.| ' nXZXBXBXDXDXGXGXDXDXDXSXfXtXqXpXaXaXaXiX2X).).).2XxXzXzXxXzXxXcX~.}.}.2XiX9X9X9X8.1.t.,.q.0.,.6.hXMXNXmXVXBXVXbXq 8 S F ",
";.=...^ SXGXHXDX4X] ] ] 9.9.9.9.h.j.z.eXnXmXMXBX{.^.'.P.P.H.H.H.H.H.H.^.^.'.'.`.W ~ | } o.} } X.| | ..| z.z.eXeXmXVXVXnXq 8 F F ",
"=.;.../ SXHXHXDX] 2.2.2.0.4.5.5.k.j.j.p.MXCXCXBX{.P.E.L.R.L.L.I.W.W.R.R.R.E.E._.W T T T E E U Q O.@.@.@.d.s.h.p.mXVXZXnXq 8 k F ",
"@.@.../ SXHXHXDX] 2.4.4.0.0.q.t.s.j.j.p.MXVXVXBX{.P.E.R.W.R.Q.].Q.Q.R.W.R.P.E._.W R R R E E T U O.O.| O.d.l.z.p.nXVXVXgXq l k z ",
"@.@.../ SXHXHXDX] 2.2.4.q.q.q.t.h.p.p.eXnXCXMXvX{.P.R.R.W.L.E.].].E.R.W.R.E.E._.{ Y Y T T T o.} @.*.| *.d.l.j.p.NXMXCXgXB 8 z z ",
"| @...^ SXHXHXDX9.0.0.q.u.k.k.p.hXMXMXhXfXfXtXiX{.G.T.T.W.L.E.].].E.L.W.T.R.Y._.{ O.O.O.........f.d.d.s.l.d.l.z.wXaXaX9XM m D D ",
"| @.| ^ SXHXHXDX9.0.0.q.k.l.j.p.mXVXVXMXaXtXtXiX`.G.J.T.R.L.E.].].E.J.T.T.T.Y.v { @.@.@...%.>.%.d.l.l.k.l.a.a.j.qXpXdXrXM m S 8 ",
"@.@.O.^ SXHXHXSX9.q.e.e.k.l.l.p.mXZXZXMXfXqXqXiX2X!.G.J.T.J.R.W.E.R.J.T.J.Y._.v { | ....;.;.....d.d.s.k.l.l.d.j.9XqXtX6XM m l l ",
"@.@.O./ SXGXGXSX] 5.q.q.k.h.h.eXbXVXMXnXdXqX0XiXzX}.G.J.J.J.L.R.R.R.J.R.J.Y._.v { %.%...@.@.@.%.d.j.l.l.k.k.s.l.qXqXdX6XM m k k ",
"T T T ! wXsXsXpXh.k.k.k.rXtXqXqXaXaXaXfXwXqXqXiX~.f M.B.D.D.K.J.L.F.N.N.m.M.f c w.,.,.*.d.g.s.l.d.a.j.h.q.q.q.6.0XpXdX9XB 8 k k ",
"T T T Q rXfXtXtXz.l.k.h.rXtXwXwXaXwXwXtXtXtXtXiXg d i u B.m.N.D.F.D.m.B.p i d g 3.e.q.8.d.d.s.l.d.a.j.h.q.w.w.6.0XpXqX6XB D S S ",
"T T T Q rXtXqX9Xh.h.h.z.tXtXdXpXpXwXwXtXtXtXtXiXc d d s s u b.b.m.m.p b.a a d c 3.w.0.q.d.d.s.s.l.l.l.k.q.w.w.6.9XdXtX6XM m S G ",
"T T T Q rXtXtXqXp.z.z.z.9XqXqXwXwXwXqXdXqXqXqXiXc d a M.M.u M.b.m.m.p s M.s d g 3.2.2.6.h.j.z.z.k.k.k.k.e.e.e.t.rXyXrX7XJ S S G ",
"T T T ! rXtXtXqXrXrX9X9XtXtXdXtXtXtXqXqXeXi.i.1Xv f r p i u s s s p u a i t f ~.3XiXiXiXqX9X9X9X6.q.q.q.$.....| ! ! ~ ~ 7 6 k j ",
"T T T ! 9XqXqXqXtXtXtXqXtXqXqXqXyXyXtX0X4X1X1X1X`.!.d r M.F.F.G.U.F.F.B.r d !.`.2X2X1X3XaXwXtXtX6.0.0.q...;.@.#.~ K L K m 8 k j ",
"T T U ! 9XaXaXwXwXtXtXtXtXtXdXdXtXtXtX0X1X`././.'.[.P.H.].].I.Q.Q.Q.[.].U.P.[.^.^./.~.3XiXtXtX9X5.q.q.1...@.@.#.L L o.L m 6 6 6 ",
"U U } ! wXsXsXaXfXtXqXqXqXqXwXqXqXrXrX0X1X}.^.I.Q.].'.].].I.Q.I.I.Q.Q.Q.].].Q.].I.(./.2XiXrXqX9Xq.e.<.1.@.@.#.#.U T T T m 8 b S ",
"#.@.O./ hXMXmXmXpXqXqXqXqXwXpXtXp.j.x.u.1X`.^.P.'.'.E.Q.E.E.L.U.I.I.Q.Q.I.Q.].].I.(./.2X9.7.8.5.$.%.%...} U o.T T R R T m 8 b b ",
"@.@.@./ nXCXVXmXaXpXqXqXqXqXqX9Xc.a.d.u.1X}.^.(.'.'.[.Q.E.G.N.m.I.I.(.I.Q.Q.].(.(.(./.2X3.4.q.,.%.......o.T T U Y Y R T 8 8 b b ",
"@.@.@./ nXCXVXmXaXwXqXqXqXtXtXtXc.c.l.i.`.!.F.F.F.L.Q.L.G.N.N.N.N.F.(.].Q.G.F.F.B.V.V.`.3.q.y.1.......O.T T T T T T T U 8 8 6 b ",
"O.@.../ nXVXVXmXaXpXqXdX9XtXtXrXc.j.l.i.~.Z.Z.Z.Z.V.P.G.D.n.n.N.n.D.P.^.P.V.V.).Z.A.A.~.3.e.<.1.....@.#.T T T T T }  .U 8 6 6 b ",
"O.@.../ nXVXVXmXsXwXqX9Xz.z.z.j.h.k.d.h.<XoXoXoXOXA.V.N.n.n.n.n.S.S.D.F.F.v.C.oXoXoX-X<X^ %...>.@.@.#.+.T U } } O.@... .m b b b ",
"@.@.../ nXVXVXmXaXpXdXtXh.h.j.j.l.l.d.c.5X=X*X@X#X.Xv.N.n.S.n.n.S.S.S.D.D.v. X#X+X*X;XZ ( ....=.;.@.#.+.o.U  .} @.@.....m b b b ",
"@.@.../ nXVXVXmXsXwXwXrXj.l.l.l.f.d.g.c.5X:X*X#X+X.Xv.n.n.n.n.S.S.S.n.n.n.v. X#X%X&X;XZ ( >.@...=...@.+. .U R U #.@.....m b 6 H ",
"+.O.../ hXCXmXmXpXqXtXrXj.d.l.d.l.x.g.c.5X:X&X#X+X.Xv.N.N.n.S.m.m.m.p b.b.v. X#X%X+X;XZ ! ;.@.;.....@.+. .U R U O...$...S b 6 8 ",
"T T } ! qXpXpXqXp.z.j.z.a.g.l.d.l.d.g.c.Z :X&X@X#X Xy N.N.b.b.b.M.a p p b.w  X#X@X&X;XZ ! ;.:.@.@.......#.#.@.@.1.<.e.<.D S S m ",
"E T U ! rXtXtXtXz.h.j.j.d.d.l.d.s.d.d.c.Z :X%X3 #X|.w b.b.p u u i r r r p w |.#X@X&X;XZ ( ;.:.@.@.@.%...O.O.O...<.w.e.,.D S S m ",
"T T U Q rXtXtXqXh.k.l.l.d.d.l.l.k.h.l.p.[ -X%X3 #X|.w a p r r i i i i i u w |.#X@X&X;XZ ( $.%.....@.=...@.O.*.%.e.w.q.,.l k S m ",
"T T T Q rXtXtXtXz.l.l.l.d.d.l.d.k.k.k.p.[ -X&X3 #X|.w p p r i i i i i i u w |.#X3 &X-XA ( $.$.%.;.;.=...@.O.| &.e.w.r.,.l l S S ",
"T T T ~ rXtXtXqXz.d.l.l.d.d.d.d.t.t.y.8.` -X&X@X#X Xw p r r u u p r r u a w |.3 3 %X:XA ' e.<.1.;.;.=.>.f.d.d.k.0.0.0.,.l l F S ",
"T T T ~ rXtXtXtXj.d.l.l.l.l.l.l.t.q.,.5.` 5X&X3 #X|.w p r r u u p r p i a y |.3 4 %X:XA ' e.e.e.=.@...%.d.d.d.k.q.0.q.,.l l F l ",
"T T T ~ rXtXqXqXj.d.l.l.l.l.l.k.8.q.e.5.` -X&X3 3 2 w i i u a a i p a a d y |.#X4 *X;XA ' 0.0.q.| | | | d.l.l.k.q.0.q.,.l k S l ",
"T T T Q 6XqXqX9Xl.d.d.l.k.k.k.u.5.0.e.5.` 5X>X&X#X|.@ e e e e e e e e e e @ .X>X>X=XlX[ ' r.0.q.&.( / ( d.d.d.s.t.q.t.1.l k S k ",
"L T T } 8.6.7.8.l.d.d.l.t.t.q.q.q.e.w.4.0XlXlX;X;XOX= = % = = = = = % % % # .X<X<X<X9.' 6.2.w.e.6X9X9X6Xk.d.d.d.%.$.$...8 8 8 8 ",
"L T T } ,.4.4.5.d.d.l.k.q.q.q.q.0.w.w.6.0XwXwXkXlXoXC., ; ; ; ; > > > ; , C.C _ ' 7.7.4.4.0.e.q.qXtXtXrXl.l.d.d.%...@...m 6 8 8 ",
"L T R  .<.0.0.q.k.l.l.k.q.q.w.0.4.4.4.6.qXfXyXwXkX-X- O     & : : & .   . - C ' 5.q.e.r.4.4.q.5.qXpXqXqXh.k.d.d.@.@.@.+.m 6 8 8 ",
"T T R  .<.e.e.q.s.s.k.u.q.e.w.r.7.7.7.i.8XdXdXwXwX<X- , , & * * * * $ & & - _ 7.e.<.<.q.6.7.7.' wXaXpXqXu.s.s.d.@.;.;.+.m 6 m 6 ",
"T T R Y >.$.$.$.t.t.5.r.q.e.w.r.8XqXqX0XpXqXqXqX] <XXX> > > : * * : : : : XX_ 4.$...$.&.8XqX9XqXwXpXpXqX8.t.y.t.%.;.;.+.m 6 b 6 ",
"T T R U ......$.,.q.4.0.0.e.0.5.9XtXpXpXpXqXtXqX_ C XX& . . & ; , & . O & XXC 7.%.;...( qXqXtXtXtXwXpX8X6.q.q.,.%.=.;.+.m 6 b b ",
"T U R T #.@.@.%.t.q.r.r.w.e.0.6.9XtXqXpXqXpXwXwX] h & O     O $ & O     O - h ' ( ....&.9XqXtXdXtXqXdXqXr.0.r.q.$...=. .8 6 6 H ",
"U U T T #.O.@...,.q.4.r.0.r.6.8.9XtXqXpXqXqXqX8X] h + o o X X O o X X o o + h ' ( %...*.6XtXtXrX9X9XqX8Xq.0.q.q.$.$.%...8 8 j j ",
"T T T T +.;...$.,.q.4.7.8XqX8XqXtXqXpX0X9.7.8.7.^ A OX1 1 1 1 1 < < < < < OXV ( s.f.d.d.l.j.z.h.8.6.6.6.&.| %.$.,.q.q.<.l S k S ",
"T T U T +.;.=.>.q.q.4.7.qXdXqXtXwXqXpX0X7.5.q.q.( [ ,X%X%X%X%X%X$X$X%X%X$X=X` &.d.a.a.d.d.d.d.k.q.0.q.q.| | @...q.r.q.,.l F l l ",
"T T T o.+.;.;.%.1.t.5.8.9XtXtXqXwXqXpX0X8.5.e.y.! A =X@X$X4 4 @X@X#X#X%X$X=X` ( l.d.d.d.d.d.d.k.t.q.q.1.*.@.;...,.q.0.,.z z l S ",
"T T T T +.+.....1.1.5.8.6XrXrXtXqXqX0X8X8.,.<.1.| [ ,X$X$X4 4 %X%X#X#X#X@X=X` &.k.k.l.d.s.s.k.k.q.,.,.1.@...=...1.t.t.,.z z l S ",
"E T E T o.o.} } d.l.k.k.z.z.z.h.7.6.6.y.&.%.>.>.! ) =X$X$X$X$X$X$X@X@X@X@X>X` &.5.5.5.q.q.q.q.q.$.| %.@.@.@.=...s.s.d.f.l l S S ",
"E T E T T U U } d.d.d.s.l.h.j.h.5.4.q.,.......| Q ) =X$X$X$X$X$X$X@X3 3 3 >X[ 6.q.q.q.0.0.0.0.q.&.| ....@.=.=.@.d.x.x.f.D k S S ",
"T T T T T o.U } g.g.x.l.d.d.l.l.q.q.q.1.*.O.@.O.Q ) =X$X%X%X%X$X%X$X4 4 5 >X[ 5.e.e.e.q.0.0.0.0.$.....=.=.....@.d.a.g.f.D k F F ",
"E T T T T U } } f.f.d.d.d.d.d.s.y.<.y.1.@.o.#.O.I ) =X$X%X%X%X$X5 4 4 $X$X=X[ 5.q.e.e.e.e.q.q.q.$.%.%.=.>.@.@.*.l.j.j.a.M S F F ",
"R T T o.#.#.#.+.} } Q } O.@.@.@.>.>.>.=.o.T ~ ~ K ) =X$X$X$X$X4 4 4 3 3 @X>X[ 7.&.$.$.>.%.....$.,.q.q.t.s.d.d.j.9XqXtX7X9 7 8 6 ",
"T T U o.#.@.@.#.} } } } O.@.@...=.=.=.;.T T L L I ) ;X,X=X*X*X*X*X&X&X&X>X-X[ &.&.$...=.=.@.@...q.r.0.q.s.l.a.j.9XqXpX9X0 7 8 8 ",
"R Y Y  .@.@.@.@.} } U } @.@.;.@.@...@.@.o.T T T o.) 5X-X5X-X-X5X5X5X5X<X<X5X8.t.>.>.=.;.;.;.;.%.q.q.0.t.k.x.x.j.tXqXdXrXN n m 8 ",
"Y U U }  .+.+.+.U U U U  .+. . .+.+. . .U U L L K I V V V V V ) ^ / / ^ ^ ' $.1.-.-.-.-.-. . ...<.,.,.q.f.f.f.a.7X9XrXx.M 7 7 8 ",
"G S S D D D D D m m m m D D D D D D G G m m m m m n 0 0 0 0 0 0 9 D J 9 B B D G k S S S S S m m D l x x J J D D B q N B b H F j ",
"S S S S k k S m 6 6 6 6 S S 8 k m m l k j 6 8 6 b b 8 9 7 7 8 k k S F k l 8 k S 6 6 6 6 6 6 8 6 S F z z k k k k 7 7 7 7 H H H j ",
"S S S S k k S S 6 b b 6 S S k S m m l z k k 8 8 b H j j b b b b S l l k l 8 S S m m b b m 8 8 8 S k S S m S F S 8 8 7 7 S S m b ",
"S S S S k k S S 6 b b 6 S S k S m m l z k j k 8 b H j j b b H 6 8 9 z z D 8 S 8 6 6 6 6 6 6 8 8 S S S S S S F F 6 8 8 8 6 6 m n "
};
