/* XPM */
static char *_db6f1a8fd9f44b1bedebaafc94e7d55GnpWINXxtfiVlJc6[] = {
/* columns rows colors chars-per-pixel */
"64 64 246 2 ",
"   c #586E34",
".  c #67727B",
"X  c #636756",
"o  c #1D687F",
"O  c #56833B",
"+  c #649251",
"@  c #6EA259",
"#  c #7C9A79",
"$  c #739367",
"%  c #76A466",
"&  c #7BAE6B",
"*  c #869871",
"=  c #B1AC7B",
"-  c #80A172",
";  c #7C0DB4",
":  c #7D0EBC",
">  c #7D12BC",
",  c #7A16B8",
"<  c #791CAB",
"1  c #7B2AA9",
"2  c #7D29B1",
"3  c #156B9D",
"4  c #0E77AA",
"5  c #2F6DAF",
"6  c #285F95",
"7  c #75728A",
"8  c #4869BC",
"9  c #546493",
"0  c #7D0EC0",
"q  c #7D15C3",
"w  c #7D1BC4",
"e  c #7C19C9",
"r  c #7A20C7",
"t  c #3A75C1",
"y  c #5269C8",
"u  c #6F6DD5",
"i  c #821F98",
"p  c #820EBC",
"a  c #810FB4",
"s  c #8213BC",
"d  c #8318B7",
"f  c #801DAE",
"g  c #8325B9",
"h  c #AB3CBF",
"j  c #AE76A8",
"k  c #906F99",
"l  c #C576A9",
"z  c #830BC3",
"x  c #8214C3",
"c  c #831BC4",
"v  c #8214C9",
"b  c #861AC6",
"n  c #8013D0",
"m  c #8621C3",
"M  c #AD3CDB",
"N  c #B13DDD",
"B  c #AD3EE4",
"V  c #AD3DE9",
"C  c #B23DE4",
"Z  c #B23DEA",
"A  c #B83BE4",
"S  c #9556D7",
"D  c #AC44C9",
"F  c #AC44DC",
"G  c #AA49D9",
"H  c #B245DC",
"J  c #B34BD6",
"K  c #A95ED5",
"L  c #AB5BDB",
"P  c #A957DC",
"I  c #AA54D1",
"U  c #986ED8",
"Y  c #9A73DB",
"T  c #8D6FD2",
"R  c #AA69DB",
"E  c #A867D6",
"W  c #A578DD",
"Q  c #B872D6",
"!  c #985CE7",
"~  c #AD42E3",
"^  c #AD4CE5",
"/  c #AD44EB",
"(  c #AD4CEC",
")  c #A54BE6",
"_  c #B242E5",
"`  c #B24CE6",
"'  c #B346EB",
"]  c #B24CEC",
"[  c #B849ED",
"{  c #AB52E5",
"}  c #A553EC",
"|  c #AC51EC",
" . c #AA58E7",
".. c #B151EC",
"X. c #B356E6",
"o. c #AE4DF1",
"O. c #AC4AF7",
"+. c #B34CF1",
"@. c #B54AF4",
"#. c #AB5DF4",
"$. c #AC5EFA",
"%. c #AA54F3",
"&. c #B25BF4",
"*. c #B45AF7",
"=. c #9B69EB",
"-. c #9C68F3",
";. c #8C75ED",
":. c #A465EC",
">. c #AC64ED",
",. c #A46AEC",
"<. c #AC6AEC",
"1. c #A96BE5",
"2. c #B26BEB",
"3. c #B366EA",
"4. c #AA74E6",
"5. c #A564F3",
"6. c #AB63F4",
"7. c #A469F3",
"8. c #AC6AF3",
"9. c #A565FA",
"0. c #AB63FA",
"q. c #A868F9",
"w. c #B263F4",
"e. c #B262F9",
"r. c #B76CF5",
"t. c #BD74F6",
"y. c #B07BF3",
"u. c #C477DA",
"i. c #C67AE9",
"p. c #CC6DF5",
"a. c #C56EFD",
"s. c #CC6DFC",
"d. c #C867FB",
"f. c #D16EFC",
"g. c #D06BF7",
"h. c #C574F4",
"j. c #CB73F5",
"k. c #C572FC",
"l. c #CB71FC",
"z. c #C879F5",
"x. c #D273FA",
"c. c #0B83AD",
"v. c #1486B5",
"b. c #0E86B3",
"n. c #368CB0",
"m. c #358097",
"M. c #738D91",
"N. c #4A8CAA",
"B. c #1595CA",
"V. c #2899C8",
"C. c #399DCC",
"Z. c #389ED3",
"A. c #2C97D0",
"S. c #19A3D6",
"D. c #26A7DB",
"F. c #36A8D9",
"G. c #34A6CE",
"H. c #2AABE3",
"J. c #37ADE5",
"K. c #29B2E7",
"L. c #33B3E4",
"P. c #3AB6EA",
"I. c #34B7F2",
"U. c #1EAEE2",
"Y. c #4794D9",
"T. c #5090CE",
"R. c #6D85D5",
"E. c #4CA5D3",
"W. c #75ACC1",
"Q. c #6894E4",
"!. c #47ABE5",
"~. c #44B3E7",
"^. c #5CA5E6",
"/. c #68A4E8",
"(. c #75B4E7",
"). c #5997EA",
"_. c #8D8C94",
"`. c #8DA791",
"'. c #B7AC90",
"]. c #B687AC",
"[. c #ABADAB",
"{. c #959EA5",
"}. c #D59F8B",
"|. c #D09995",
" X c #CBA888",
".X c #D4A384",
"XX c #D3A48B",
"oX c #D6A889",
"OX c #C9A895",
"+X c #D6A396",
"@X c #C78CAB",
"#X c #C895A7",
"$X c #CB93B4",
"%X c #CE8FB2",
"&X c #CAA2A7",
"*X c #D7A4A4",
"=X c #C6B3A5",
"-X c #E1A5A6",
";X c #A68BCB",
":X c #BA94F5",
">X c #8FB3EF",
",X c #B2A2FC",
"<X c #C98DCB",
"1X c #DD8EFF",
"2X c #D88AFF",
"3X c #D596FF",
"4X c #DC95FF",
"5X c #D59BFF",
"6X c #DD9CFE",
"7X c #DC9BF5",
"8X c #CE8FED",
"9X c #E28DFF",
"0X c #E295FF",
"qX c #E29CFE",
"wX c #E69BFA",
"eX c #DAA6ED",
"rX c #CAA7FD",
"tX c #DBA3F6",
"yX c #DCA2FD",
"uX c #D7A6F9",
"iX c #CEAEF5",
"pX c #E2A1FE",
"aX c #E2A6F5",
"sX c #EFB9FF",
"dX c #F3BDFF",
"fX c #F8B9FF",
"gX c #F2ACFF",
"hX c #ADCBF6",
"jX c #9FC4F0",
"kX c #D6D6FD",
"lX c #EDC4FF",
"zX c #F4C3FF",
"xX c #F4CDFF",
"cX c #FACDFF",
"vX c #FBC6FF",
"bX c #ECDCFE",
"nX c #EAD8FC",
"mX c #F4D4FE",
"MX c #FAD4FF",
"NX c #F7DAFD",
"BX c #E9E1FF",
"VX c #FEE3FF",
"CX c #FDECFF",
"ZX c #F1E4FF",
"AX c #FFF3FF",
"SX c #FFFDFE",
/* pixels */
"o.o.| ( +.] ` ` o.o.o.( ^ ^ ( ( Z C Z C N N N F ^ ) ^ ^ ( ] ` ] ( } | ^ F M ~ ~ B ~ ~ B C C N C B Z C B ] ( ( ( ( ( o./ b q q q ",
"( ( ( ( ( ] ` ^ o.o.o.( | ( ( ] B B Z C N H N ~ ( | ( ] ( ] / ( ( ( ( ^ F M ~ B B B B B C C _ _ C C C _ ( ( ( ( ] ] ../ b q q q ",
"| | o...) ^ ^ ( ( ( ( ( ( ^ ^ ^ ~ B ~ B B _ C _ ' ] / +.] ] ( ] +.+.` ` N C C A C C C C A C M M H H C ' ^ ( ( ( ^ ^ ) ) b v v v ",
"( ( ( )  .L L L K K K K K K K K G G G G G ~ F F X.X.P  .P L K L X.X.P X.G H H H F F F _ B B ~ G G G B F P L L L P K L L , > v v ",
"+...( X.gXfXdXlXNXVXVXVXVXVXVXMX7X9X9X1X3X3X1X0XgXfXdXzXdXzXlXlXzXdXdXdX6X9X9X9X4X3X4X2Xw.&.#.6.>.>.#.2.sXzXdXzXzXdXzXgXg , q v ",
"] ] ^ L vXMXmXNXAXSXSXSXSXSXSXAXaXwXwXwXyXyX6XaXNXbXZXbXbXbXnXbXmXmXmXmXuXyXwXwX6XyXyX4X2.6.0.q.7.7.5.1.cXMXmXmXmXmXMXvX1 , q v ",
"` ` ^ L zXmXnXnXAXSXSXSXSXSXSXAXeX7XwXqX6X6X6XuXhXjXhXhXkXBXbXbXBXBXbXnXiXuX6XqXpX6XqX4X<.5.0.5.7.7.5.<.zXMXmXmXmXnXmXzX1 > c b ",
"` ..^ R lXNXnXbXCXCXAXAXCXCXCXVXtXqX0XqXyXtXtXiX>XE.E.E.>XhXhXhXhXhXhXhX>X,X,X5X6X4X0X9X3.#.e.#.0.5.#.<.fXvXvXxXmXnXmXlX2 , x v ",
"+.( ( K VXAXSXCX;XW W W 4.4.4.4.h.z.j.i.zXxXcXnX>XE.!.!.G.C.C.C.Z.Z.C.Z.Y.).Q.u S G H H _ ~ ~ F { { ( { z.z.8X8XxXmXmXzX2 > v v ",
"o.+.( L VXSXSXCXY =.=.=.5.#.>.>.k.l.p.i.xXmXmXnX(.Z.J.J.H.H.L.L.L.I.L.L.L.!.).u S F N A C B C N ` ] ] ] s.p.h.i.cXmXNXzX2 > e n ",
"] ] ( L VXSXSXCXW =.,.,.5.5.6.6.a.l.j.i.xXnXmXbX(.Z.F.J.L.L.J.~.~.P.P.P.P.!.Y.y S M A A B B B B ` ` ^ ` s.l.j.i.zXmXmXdX2 w e e ",
"] ] ( L VXSXSXCXW =.,.:.6.6.6.w.h.i.i.8XlXmXcXkX(.F.J.P.I.H.J.~.~.J.J.P.P.F.Y.y S _ C C ~ ~ ~ ~ ] ] ^ X.a.l.j.i.vXcXcXsXg > q e ",
"^ ] ( K VXSXSXCX4.5.5.8.t.k.k.h.fXvXcXzXeXeXaXiX/.A.H.I.I.H.J.~.~.L.D.J.P.!.Y.y S _ _ ` ^ ^ ` ] d.s.a.a.l.s.l.z.7XtXuX4Xd s c c ",
"^ ] ^ E VXSXSXCX4.5.5.6.k.l.j.i.vXmXmXmXeXpXwXrX/.A.D.I.K.D.J.P.P.L.S.H.P.J.Y.y ! ] ] ] X.] ] ] s.l.l.k.l.p.d.j.6XyXpX0Xd s x > ",
"] ] ` K VXSXSXVXW 6.0.0.k.l.l.i.cXmXNXcXtXqXqXrX>XC.A.K.K.S.H.L.L.L.S.U.L.V.v.y ! +.o.( ` ^ ( ( s.s.a.k.l.l.s.j.4X6XqX1Xd s w w ",
"] ] ` L VXAXAXVXR >.6.w.k.h.h.8XzXxXxXzXpX0XqXrX>XE.V.D.K.S.D.D.F.F.n.G.G.4 3 8 ! o.o.] ] ` ....s.j.l.l.k.k.a.k.6X6XpX1Xd s q q ",
"C B B G 6XeXeXyXh.k.k.k.0XqX6X6XyXtXaXaXqX6XqXrXR.5 v.S.S.B.B.D.V.E.{.{.W.m.3 5 ;.0.&.&.s.s.d.s.s.p.j.h.6.0.0.<.5XyXpX3Xg > q q ",
"C C C F 0XpXwXqXj.l.k.h.0X6X6X6X6X6X7X6X6XqXqXrX8 3 c.B.B.b.B.V.V.N.[.'.[.N.6 y ;.0.#.&.s.l.l.l.s.p.j.h.0.q.q.<.5XyX6X1Xg c x x ",
"C C C F 0XqX6X4Xh.h.h.z.qXqXpXyX6X6XuXtX6XqXqXrXR.3 4 c.v.4 c.b.c.n.[.'.[.7 9 u -.6.#.w.k.l.l.l.s.l.l.k.6.9.9.<.4XpXwX9Xd > x b ",
"C C C F 0XqXqX6Xi.h.z.z.4X6X6X6X6XyXuXyX4X0XwXuXu 6 3 v.v.4 4 v.c.n.M.'.'._.T U 1.<.>.2.t.h.k.a.k.k.k.k.0.0.0.w.0X0X0X2Xm v x b ",
"C C C G 0XqXqX6X0X0X4X4XwXqXpXyXtXtX7X0Xz.j.j.t.T 8 3 4 4 4 4 b.b.4 o M.=X*X<XU 3X6X5X5X6XqX0X4X8.6.6.6.} ( ( ^ G J J H ; : q 0 ",
"C C C G 4X6X6X6XwXwXqX6XqX6X6X6XtXtXwX0Xx.f.s.k.=.u 8 t A.!.J.F.F.F.E.W.].j Q E 6XyXyXyX6XqXqX6X8.5.5.6.( +.] ' H M N M s > q 0 ",
"C C B G 4XtXtX6X6XqXqXqXqXqXpXyXyXyXyX6Xj.g.s.a.:.=.=.;.R.^.~.P.~.~.~.^.T E 1.1.5XuXyX6X6XwX0X0X6.6.6.*.( ] ] ' M N _ M s : : : ",
"B B ~ G 7XeXeXtXyXqX6XyX6X6X6X6X6X6X6X6Xj.g.s.l.3.>.3.=.u ).!.P.~.P.~.).;.6.8.1.uXuXyX6X6X6X6X3Xw.0.$.*.] ] ' [ B C A C s > p x ",
"' ] ` X.fXcXxXcXtX6X6X6X6X6XyX6Xz.k.h.j.j.j.j.h.t.k.t.y.R./.!.~.~.!.!./.:X0X4X4X6X6XqX6X1.1.<.<.} | | ( ~ B _ C C Z Z C s > p p ",
"] ] ] L zXMXmXxXuXyX6X6X6X6X6X4Xk.k.l.l.s.l.j.j.z.k.k.:XQ.^.!.~.~.~.~./.rXwXwXqX6X6XqX4X1.:.:.5.} ( ( ( _ C C B V V Z C > > p p ",
"] ] ] L zXmXmXxXtX6X6X6X6XqXqXqXk.l.l.j.g.f.l.l.a.a.s.y.T.A.A.Z.V.G.A.T.rXpX7XyXyXyX6X4X2.6.q.0.} ( ( ` C C C C C C C B > > : p ",
"` ] ( L zXmXmXxXuXyX6XpX4XqXqX0Xl.l.j.j.g.g.s.a.l.l.a.y.R.N.n.N.n.n.n.T.8XqX7X6X6X5X5X3X2.6.6.$.| ( ] ' C C C C C ~ / B > : : p ",
"` ] ( L zXmXmXxXeX6X6X4Xz.z.z.j.l.l.k.h.j.s.s.a.6.6.w.1.;X[.[.[.{.{.[.;XQ z.j.k.<.<.<.2.} %.| ..] ] [ ' C B ~ ~ ` ] ( / s p p p ",
"] ] ( L zXmXmXxXtXyXpXqXh.h.j.j.s.s.k.h.l.l.s.a.0.5.6.E ].&XOXOXOXOX&X<XQ j.s.a.6.5.7.0.} o.] ^ ] ] [ ' _ B / ~ ] ] ( ( s p p p ",
"] ] ( L zXmXmXxXeX7X7X0Xj.l.l.l.s.s.j.j.p.s.a.a.0.q.8.E ].&XOX XoXOX*X$Xu.j.x.s.w.0.5.0.( +.] ] ( ( ] ' / B Z B ' ] ] ( s p : p ",
"` ] ( P fXMXxXcXtX6XqX0Xj.s.l.a.f.s.j.j.s.k.a.t.0.5.0.E @X*XXX XXXXX*X%Xi.a.l.k.e.0.q.0.| ] ] ( ( ( ] ' / B Z B ` ( | ( x p : > ",
"C C ~ G 6XyXtX6Xi.z.h.j.p.f.l.a.l.s.l.k.w.6.8.6.5.0.9.R %X+X.X.X.XXX*X$XR e.6.0.0.0.5.5.} ( ( ( ( ( ( ( ' ' [ ] *.$.0.$.c x x s ",
"A C B G 4X6X6XqXz.h.j.j.p.s.l.a.a.a.l.a.6.:.0.0.0.0.9.R $X+X.X.X.XXX*X@XR 0.9.q.0.9.5.6.} | | ( ] ] | ( ` ` ` ( $.9.0.#.c x x s ",
"C C B G 0XqXwX6Xh.k.l.l.s.s.l.a.l.l.l.h.>.:.:.5.5.5.9.E $X+XXX.X.XXX*X].R 0.5.q.6.6.8.#.| ( ] ] ] ] o.( ] ` X.| 0.9.0.#.w q x s ",
"C C C F 0XwXwXqXj.l.l.l.s.s.l.s.a.a.k.t.6.:.<.<.6.0.0.R %X+XXXoXoXXX&X].R 0.5.5.0.6.6.6.| | +.+.+.+.o.( ..` ^ { 0.9.7.#.w q v x ",
"C C C H 0XqXwX6Xj.s.l.l.s.s.s.s.e.0.q.0.5.0.6.>.a.a.k.Q %XXXXXoX XXX&Xj R 5.7.-.5.5.5.5.6.#.$.*.@.+.+...d.s.a.k.5.5.5.#.w q v v ",
"C C C H 0XqXqXqXj.s.l.l.l.l.l.l.6.9.5.9.q.0.6.3.k.l.l.u.%X+XXX.X XOX&Xj R 6.7.-.7.5.7.7.q.0.0.$.+.] ( | s.s.a.k.6.5.6.#.w q v q ",
"C C C H 0XqX6X6Xj.s.l.l.l.l.l.l.w.8.0.0.5.5.6.6.k.k.k.u.%X+XoX.X XOX&Xj E 6.7.7.q.5.5.5.5.0.0.$.( ^ { { s.l.l.k.6.5.6.#.w q v q ",
"C C C F 1X6X6X4Xl.s.s.l.k.k.k.a.>.8.0.0.,.,.<.<.h.h.z.u.%X+XXX.X XOX&Xj E 6.5.7.5.5.5.7.5.q.0.6. .P L P s.a.s.s.w.6.w.&.w q v q ",
"N C C ~ 3.<.1.2.l.s.s.l.w.w.8.6.6.6.5.7.5X5X5X6X4X0X0X7X$X+XXXoX XOX&Xj R 6.8.5.0.0.7.7.-.7.-.8.2X4X4X1Xk.a.s.a.| | | ( > > > > ",
"N C C ~ #.:.:.>.a.s.l.k.6.6.0.0.5.7.q.7.5XyX6XpXwX4XwXeX].OXOX'.'.'.[.j E 6.5.5.0.0.5.5.7.7.7.,.6XqXqX0Xk.l.s.s.| ( ] ( s : > > ",
"N C Z / $.5.5.8.k.l.l.k.6.6.9.q.5.5.5.8.5XpXqXqXwX6XpXeX_.* * $ * * `._.Y q.7.5.#.0.0.6.:.:.:.<.5XyX6X6Xh.k.a.s.] +.] ' s : > > ",
"C C Z / $.0.0.6.a.a.k.t.6.0.q.5.<.<.:.2.7XpXqXqX6X6X5X:X_.$ + @ % # `._.Y 9.5.5.#.*.*.#.2.1.1.1.6XtXyX6Xt.a.a.s.] +.+.' s : s : ",
"C C Z V | } } } e.w.>.8.6.0.q.,.3X6X5X5X6X6X6X6X<.:.,.Y 7 # % % % % # _.U q.0.6.| ( ( &.2X6X4X4X6XyXyX6X2.w.w.e.| +.+.' s : s : ",
"C C Z B ( ( ( } #.6.:.5.5.0.5.,.4X6XyXyX6X6X6X6X8.5.5.Y 7 # & @ @ % % M.U 0.6.6.| ( ( X.3XpXqX6XqX6XyX3X<.6.6.#.| o.+.' s : p p ",
"C B Z C ' ] ..| w.0.7.7.q.0.5.<.0X6X6X6X6XpXqX4X1.:.q.Y . $ % + & % $ . U q.5.6.^ ( ] { 4XyX6XqXqX6XqX6X8.5.8.8.} ( o./ , > : z ",
"B B C C ' ` ] ( #.0.:.7.5.8.<.2.0XqX6XyX6X6X6X4X3.6.0.Y 7 $ + O O     X U 0.6.w.| ..^ P 4X6X6X6X4X4X6X3X6.5.6.6.} } | ( > > 0 0 ",
"C C C C ' +.( } #.0.:.1.3X6X3X6XwXqX6X5X2.3.3.3.P } %.S k X         X . S } ..^ s.s.a.l.h.h.j.h.2.<.<.<. .{ | } #.0.6.$.q v q v ",
"C C B C ' +.o.%.#.8.:.1.6XyX6XqXqXqXyX5X<.>.>.>.{ ( O.P j '.= = '.'.OX].I ^ ` ` s.s.l.j.j.l.l.k.6.5.6.6.{ ^ ] ( 6.8.0.#.w v q q ",
"C C C _ ' +.+.| *.w.>.2.4XqXqX6XwXaXuX5X<.5.0.e.| ( @.G j *XOX X X XOX@XD ..] ..s.s.s.s.s.s.s.a.w.0.8.&...] +.( #.0.5.#.e e q x ",
"C C C C ' ' ( ( *.&.3.2.2X0X0XqX6X6X5X3X8.6.#.$.( ' @.D j +X X X XoXXX@XD | ^ ^ a.k.k.k.a.a.a.a.6.#.#.&.] ( o.( e.w.w.#.w e q x ",
"A C A C _ _ ~ ~ a.l.k.h.z.z.h.h.<.,.,.<.! } | .._ N C D l -XXXoX.X.XoX#XE 0.0.0.6.6.<.>.>.>.6.w.} { | ..] ] o.( a.a.a.d.w q x x ",
"A C A C C B B ~ s.a.s.a.l.h.j.k.8.5.7.5.} ( ( _ C A A h l -X}..XoX.XoX#XE 9.9.q.q.5.5.<.6.6.0.6.{ ^ ( ( ] o.o...s.f.f.d.c q v v ",
"C C C C C _ B ~ f.f.f.f.s.s.l.a.e.$.6.#.O.O.+.] B C Z D l -X}..XoX.XoX#XE 9.7.7.5.5.<.6.6.6.$.$.( ( ( o.o.( ( ] s.p.f.d.c q v v ",
"A C C C C B ~ ~ d.d.s.s.s.s.s.s.*.*.e.*.O.O.+.] _ C C D l *X}.oX.X.XoX#XE q.7.7.6.6.6.6.w.$.$.$.| | | o.....] X.l.j.j.p.d x v v ",
"C C C _ ' [ ' ' ~ ~ F ~ ` ] ] ..] ( | ( / V ~ B Z B B D l -X}.oX.XoXoX#XE 0.0.0.} | | ( | | | } #.8.6.w.a.s.s.j.4X6XqX2X< ; > : ",
"C C B _ ' ] ] ' ~ ~ ~ ~ ` ] ] ] ] ( ] ` ~ C B B V C B D j %X+X.X.XXXXX#XE 6.0.e.o.o.( ] ( ( ( } 6.8.5.8.a.l.p.h.4X6XpX4X< ; > > ",
"Z V B / ] ] ] ] ~ ~ B ~ ] ] +.] ..| | ] _ C Z Z C _ C F G Q *X.XoX+X+X$XE >.6.&.o.o.+.+.] | | } 6.0.5.w.k.f.x.j.wX6XpX0Xf a s > ",
"V B B ~ / ' ' ' B B B B / ' / ( ( ( ( ( B C Z V M N B V / 3.<X#X@X%X@X<XR #.#.&.( / / / / ( ( ) $.#.#.6.d.d.d.p.2X4X0Xx.d ; ; > ",
"b x x c c c c c s s s s c c c c c c c c s a s s s s s s > d i i 1 1 1 2 , w c w > > x s s s x q e w r r m m b b g 2 f g p v v 0 ",
"x x x x q q x s : : : : x x > q q q q > p p s ; ; : s p s > ; a > , , q q e v q > : : : ; : : 0 v v q q q q q q ; ; ; ; z z z 0 ",
"x x x x q q x x : p p p x x q q q q q v z z p a a p p : : > ; s x v v v v x x s > > > > s s p p x q x v s x v v > > ; ; x x s : ",
"x x x x q q x x : p p : x x q q q q e v z z p a a s z z 0 > s ; x x v v x x x b : : : : ; ; p : x x x x x x v v : > > > : : s a "
};
