/* XPM */
static char *_7b633156aed4c5ff67aa1b7fc09de235bTzDWGFn8iYGh91[] = {
/* columns rows colors chars-per-pixel */
"64 64 253 2 ",
"   c #366218",
".  c #43651B",
"X  c #49732C",
"o  c #276774",
"O  c #576643",
"+  c #518F3B",
"@  c #5A924C",
"#  c #639757",
"$  c #68A55B",
"%  c #528D79",
"&  c #749A73",
"*  c #75AA6E",
"=  c #5EA154",
"-  c #A59863",
";  c #AFA16F",
":  c #949A6E",
">  c #CEA57D",
",  c #D4A57D",
"<  c #7D0EBC",
"1  c #7B0EB4",
"2  c #7D12BC",
"3  c #7C16B7",
"4  c #7A1AAA",
"5  c #7C2AAE",
"6  c #73179E",
"7  c #1B6B88",
"8  c #0D7286",
"9  c #037899",
"0  c #14718F",
"q  c #2A7195",
"w  c #047AA3",
"e  c #0778A6",
"r  c #1866A4",
"t  c #2F6BA4",
"y  c #7D6595",
"u  c #586BA9",
"i  c #7D0EC1",
"p  c #7D14C3",
"a  c #7D1BC4",
"s  c #7B18C9",
"d  c #7A20C7",
"f  c #7270D7",
"g  c #5469CA",
"h  c #3D74C6",
"j  c #820DBD",
"k  c #800FB5",
"l  c #8213BD",
"z  c #831BB8",
"x  c #801DAE",
"c  c #8224B9",
"v  c #AF5ABA",
"b  c #8F73B5",
"n  c #B674BA",
"m  c #AC6EB9",
"M  c #830CC3",
"N  c #8215C3",
"B  c #841AC4",
"V  c #8114C9",
"C  c #8718C5",
"Z  c #8013D0",
"A  c #8521C3",
"S  c #AC3CDB",
"D  c #B23DDE",
"F  c #A93CCD",
"G  c #AD3EE4",
"H  c #AE3EE9",
"J  c #B23DE4",
"K  c #B23DE9",
"L  c #B93AE5",
"P  c #AB43DC",
"I  c #A849D8",
"U  c #B243DC",
"Y  c #B149DA",
"T  c #A95ED5",
"R  c #AB5BDB",
"E  c #A957DB",
"W  c #B454CE",
"Q  c #916ED4",
"!  c #B375C8",
"~  c #AA66D7",
"^  c #A576D9",
"/  c #B16FCB",
"(  c #AC42E3",
")  c #AC4DE5",
"_  c #AD44EB",
"`  c #AC4CEC",
"'  c #A64AE7",
"]  c #B141E5",
"[  c #B34CE5",
"{  c #B346EB",
"}  c #B34CEC",
"|  c #B848ED",
" . c #AB52E5",
".. c #A553EC",
"X. c #AB51EC",
"o. c #A858E7",
"O. c #B254E9",
"+. c #AD4DF1",
"@. c #AD47F0",
"#. c #B24BF1",
"$. c #B84BF2",
"%. c #AC5DF4",
"&. c #AA58F6",
"*. c #B258F5",
"=. c #9C69EA",
"-. c #9671EB",
";. c #A465EC",
":. c #AC64EC",
">. c #AC6AEC",
",. c #A869E6",
"<. c #B269EB",
"1. c #A974E6",
"2. c #A564F3",
"3. c #AB63F4",
"4. c #A564FA",
"5. c #AB63FA",
"6. c #A86AF4",
"7. c #B263F4",
"8. c #B265F7",
"9. c #B778F7",
"0. c #B573E9",
"q. c #935BDD",
"w. c #C679EA",
"e. c #CB6DF5",
"r. c #C66DFD",
"t. c #CC6DFC",
"y. c #C868FA",
"u. c #D16EFC",
"i. c #C574F4",
"p. c #CB73F4",
"a. c #C571FC",
"s. c #CB71FC",
"d. c #C87AF4",
"f. c #D273FD",
"g. c #C477DD",
"h. c #108099",
"j. c #078AB8",
"k. c #1589BA",
"l. c #0791BE",
"z. c #0E85AC",
"x. c #2A8DB4",
"c. c #29859E",
"v. c #779A8F",
"b. c #77A190",
"n. c #4997B1",
"m. c #7090B1",
"M. c #5B9DA1",
"N. c #068CC2",
"B. c #1797C9",
"V. c #1594CB",
"C. c #249BCA",
"Z. c #3899CB",
"A. c #2F95D1",
"S. c #28A8DA",
"D. c #36A6DD",
"F. c #30AAD2",
"G. c #36ADE2",
"H. c #3AB4E8",
"J. c #30B2E7",
"K. c #1FA0D7",
"L. c #4B92D3",
"P. c #7A8ED9",
"I. c #47ABDB",
"U. c #57A7DD",
"Y. c #44B2DA",
"T. c #56B0CD",
"R. c #63AAC5",
"E. c #699BE8",
"W. c #718FE4",
"Q. c #48A9E4",
"!. c #44B4E6",
"~. c #51ACE5",
"^. c #6EA3E8",
"/. c #409FE1",
"(. c #898D88",
"). c #869388",
"_. c #869897",
"`. c #AD9B92",
"'. c #8CA891",
"]. c #B1AD96",
"[. c #8F8BAD",
"{. c #8CABB4",
"}. c #AEB3A9",
"|. c #A897A9",
" X c #CA9E8E",
".X c #CDA583",
"XX c #C6A587",
"oX c #D2A583",
"OX c #D3A48A",
"+X c #D5AA84",
"@X c #D2A293",
"#X c #D7A498",
"$X c #C3B297",
"%X c #D59CAA",
"&X c #CE98BA",
"*X c #D498B8",
"=X c #CE98AF",
"-X c #D5A3A5",
";X c #D0A2A8",
":X c #A6C5B3",
">X c #9DC5AB",
",X c #8591D0",
"<X c #AC90D4",
"1X c #B6A2C7",
"2X c #938FEC",
"3X c #B289F3",
"4X c #91A5F3",
"5X c #BAB6FE",
"6X c #B2A8FE",
"7X c #93BAC5",
"8X c #C688C5",
"9X c #CE91D4",
"0X c #DC8EFF",
"qX c #DA88FF",
"wX c #D496FF",
"eX c #DD94FF",
"rX c #D59CFE",
"tX c #DD9CFE",
"yX c #DA9CF5",
"uX c #CC91F2",
"iX c #E08FFF",
"pX c #E294FF",
"aX c #E19DFE",
"sX c #E599FA",
"dX c #DBA4F4",
"fX c #DDA1FD",
"gX c #D7A6FA",
"hX c #D1A8F5",
"jX c #E1A1FE",
"kX c #E4ABF5",
"lX c #F3BDFF",
"zX c #F9BCFF",
"xX c #F0B5FF",
"cX c #C9A9C7",
"vX c #ACD3D1",
"bX c #89DEEE",
"nX c #ADC7F5",
"mX c #ACEDF8",
"MX c #91CECD",
"NX c #EDC6FF",
"BX c #F4C3FF",
"VX c #F4CDFF",
"CX c #FAC9FF",
"ZX c #ECD8FC",
"AX c #F4D4FE",
"SX c #FAD3FF",
"DX c #F6D9FD",
"FX c #FEE3FF",
"GX c #FDECFF",
"HX c #FFF4FF",
"JX c #FFFDFE",
"KX c #E9ECF6",
"LX c #D6E7F1",
/* pixels */
"+.+.X.` #.} [ [ +.+.+.` ) ) ` ` P P P P J J G G | ` ' ..X.) | | ` ` ` ) ( P D D J ( ( ( ( G G ( H K J G } ` ` } ` ` +.@.B p a a ",
"` ` ` ` ` } [ ) +.+.+.` X.` ` } P P P P J J J G | #.+.X.) ) } $.#.` } { ( P J D J G G G ] ] ( ( G J J ] ` ` ` ` } } *._ B p p p ",
"X.X.+.*.' ) ) ` ` ` ` ` ` ) ) ( ( G G G L L L J { #.+.` ) ) ` ` #.` { { S S D S J J J J J G G D U U J { ( ` ` ` ) ) ) ' C N N N ",
"` ` ` ' o.R R R T T T T T T T T I P P P U U U Y E E R R T T E E R E  .O.I I Y Y P P U [ S P ( ( I I G ( E R R R E E R R 3 2 N N ",
"#.} ` o.xXzXlXNXDXFXFXFXFXFXFXSXeXiX0XeXpX0X0XyXBXNXBXNXNXNXBXBXBXBXlXlXtXeX0X0XeXeXiXqX<.%.*.*.3.:.%.<.xXBXlXBXlXlXBXxXc 3 p V ",
"} } ) R CXSXAXDXHXJXJXJXJXJXJXHXdXaXaXjXfXfXjXdXVXZXDXDXAXAXAXDXZXZXZXVXfXfXfXfXaXaXjXtX>.:.8.8.2.6.2.1.CXSXAXAXAXAXSXCX5 3 N N ",
"[ [ ) R BXAXZXZXHXJXJXJXJXJXJXHXdXtXtXtXfXrXtXdXSXAXZXZXZXZXZXZXZXZXZXZXhXgXgXfXaXaXfXrX1.;.3.4.6.6.2.>.BXSXAXAXZXZXAXBX5 3 C C ",
"[ O.) ~ BXDXZXZXGXGXHXHXGXGXGXFXfXtXaXaXdXdXdXgXNXNXnXnXnXnXnXnXnXnXnXnX4X6X6XwXpXpXtXwX:.:.8.%.3.2.%.>.lXCXCXVXAXZXAXNX5 3 N V ",
"#.` ` T FXHXJXGX<X^ ^ ^ 1.1.1.0.d.i.i.uXNXVXVXNXhXP.L.Z.Z.Z.Z.Z.Z.Z.Z.Z./.L.P.q.E Y I ) ( ( ( ( )  .`  .d.d.uX9XVXAXAXBX5 2 V V ",
"+.#.` R FXJXJXGX^ =.=.=.2.%.:.:.a.s.i.w.VXAXZXZX5XE.D.J.S.B.S.J.J.S.K.K.J.Q.W.q.I J G G G J J ] [ } } } t.e.i.w.VXAXDXBX5 2 s Z ",
"} } ` R FXJXJXGX^ =.;.;.2.2.3.7.r.s.p.w.CXAXAXZX5XE.D.J.K.B.S.J.S.S.B.K.J.Q.f q.I J K H H G G ] { [ ) [ t.s.d.w.BXAXAXlX5 a s s ",
"} } ` R FXJXJXGX^ =.;.;.3.3.3.7.i.w.g.9XBXSXCXNX5XW.A.J.K.K.G.S.J.J.C.C.J.G.f q.' ] K K _ ( ( ( } } ) O.t.s.p.w.CXCXCXxXc 2 s s ",
") } ` T FXJXJXGX1.2.2.3.9.a.a.i.zXCXCXBXkXdXtXgX5X^.D.G.V.j.S.S.S.S.z.k.G./.W.q.o.[ { { } { { { y.t.t.r.s.t.s.d.yXdXgXeXz l B B ",
") } ) ~ FXJXJXGX1.2.2.3.a.s.p.w.CXSXAXVXdXjXsXgX5X^.I.D.k.e S.J.S.C.w k.G.Q.W.f o.} } } } } } } t.s.s.a.s.e.e.p.tXfXjXpXz l N l ",
"} } } T FXJXJXFX1.3.5.5.a.s.s.w.CXAXAXVXdXtXsXgX,Xx.x.k.e w B.B.B.k.w w k.A.h g q.` ` +.#.{ ` ) t.t.r.a.s.s.t.p.eXtXaX0Xz l a a ",
"} } { R FXHXHXFX^ :.3.3.a.i.i.uXBXSXAXNXfXtXsXgXm.7 0 9 9 9 0 0 0 0 9 9 9 r r g q.X.+.+.#.} X. .e.p.s.s.a.a.r.s.tXtXjX0Xz l p p ",
"J G G I tXdXdXfXi.a.a.a.pXaXtXtXdXkXkXdXfXtXsXhXg r q T.T.R.M.v.v.M.T.T.T.q r g =.*.*.*.t.t.r.t.t.e.i.i.3.3.3.>.rXfXjXeXc 2 p p ",
"J J J P pXjXaXaXd.s.a.i.pXtXtXtXtXyXyXaXtXaXjXgXg t q bXbXMX}.].].}.MXbXbXq t g -.3.3.*.t.t.t.s.t.e.p.i.3.4.4.>.rXdXtX0Xc B N N ",
"J J J P pXaXtXeXi.i.i.d.aXaXjXfXaXtXtXfXtXtXtXrX2Xu q mXmXMX}.].$X}.MXmXmXu u f -.;.;.:.a.s.t.t.t.s.s.a.3.4.4.>.wXjXaXiXz l N C ",
"J J J P pXaXaXtXw.d.d.d.eXtXtXtXtXtXtXfXrXrXfXgX3X,Xm.vXvX:X$XXXXX].:XvXvXm.f Q -.-.=.1.0.i.p.s.s.a.a.a.5.5.5.7.pXsXpXqXA N N C ",
"J J J Y pXaXaXtXpXpXeXeXaXaXjXfXaXaXaXtX3X3X9.3XQ <X}.}.}.].$XXXXX$X}.}.}.}.<XQ 5XhX6XhXgXrXeX0X>.3.3.3...` ` ) Y I Y U 1 < p i ",
"J J J Y eXtXtXtXaXaXaXtXaXtXtXtXtXtXaXtX3X2X2X2X,X,X{._.{._.`.].].`.'.'._.{.,XP.4X4X4X6XgXfXjXtX>.2.2.7.` #.} { U S D S l 2 p i ",
"J J G I eXdXdXtXtXaXaXaXaXaXjXfXfXfXaXgX2XW.U.U.U.U.U.T.T.R.{.{.7X{.R.T.T.T.U.U.I.U.E.6XgXtXsXpX:.3.3.*.` } } { D D ] S l < < < ",
"G G ( I yXdXdXdXjXaXtXtXtXtXtXtXtXtXaXrX2X^.I.G.!.H.H.H.H.I.T.R.R.T.I.H.H.G.!.!.!.I.E.6XhXeXtXeX<.5.%.*.} } { | G J L J l 2 j N ",
"{ } { E zXCXVXVXdXtXtXtXtXtXtXtXw.p.d.9.2XE.~.!.!.G.!.H.H.D.F.F.Y.Y.!.H.H.!.!.!.!.~.E.4X-.6.>.<.o.X.X.` ( G ] J J K K J l 2 j j ",
"} } } R BXSXAXVXgXfXtXtXtXtXtXeXi.e.r.9.2XE.~.Y.Y.!.!.H.D.B.l.j.H.H.!.H.H.!.Q.I.I.~.U.4X-.2.2.%...` ` ` ] J J G H H K J 2 2 j j ",
"} } } R BXAXAXVXdXtXtXtXtXaXaXaXs.t.s.9.W.Z.C.C.x.C.D.D.C.l.l.N.V.S.H.!.G.Z.x.x.x.x.x.W.-.:.6.3...` ` } J J J J J J J G 2 2 < j ",
"{ } ` R BXAXAXVXdXfXtXjXeXaXaXpXp.t.t.9.P.n.n.n.n.n.Z.C.B.j.N.N.l.V.G.G.D.x.n.n.M.M.m.,X1.%.%.%.X.` } { J J J J J ( _ G 2 < < j ",
"{ } ` R BXAXAXVXdXtXtXeXd.w.d.i.s.s.s.d.<X1X}.].'.b.x.B.k.j.N.N.N.N.V.V.B.c.v.].}.}.cX! R X.` X.} } | | J G ( ( { } ` _ l j j j ",
"} } ` R BXAXAXVXdXdXjXaXi.i.i.p.p.t.t.w.8X*X#X.X].).c.l.j.N.N.N.N.l.N.V.V.c.).XXXX@X*Xn I ` ` *.} } | | ] G _ ( } } ` ` l j j j ",
"} } ` R BXSXAXVXdXyXtXpXp.s.s.s.t.f.f.w.8X=X#XOXXX).c.l.j.j.l.l.l.j.j.j.j.h.).XX@X#X*Xn E *.` ` +.` } | _ G K G { } ` ` l j < M ",
"{ } ` E zXSXVXVXdXaXaXpXp.t.t.t.t.t.s.w.8X=X#X.XXX_.c.N.l.j.j.j.j.j.w w z.c.).XXOX-X*Xn I +.#.` ` ` } { _ G K G { ` X.` N j < 2 ",
"J J ( I eXfXfXtXw.d.i.d.e.u.s.t.u.t.s.w.n =XOX> XX).0 j.k.z.z.z.z.w w e w 7 (.XXOX@X*Xn E +.$.} ` ` ` ` { { | } *.&.5.%.B N N l ",
"L J G I pXaXaXaXd.i.p.p.e.t.s.t.t.t.s.w.n =XOX> XX).7 z.z.w w w w w e e w 7 (. X.X@X*X! E +.#.} } } X.` { [ [ ` 5.4.4.%.B N N l ",
"J J G I pXaXaXtXi.a.s.s.t.t.s.t.u.s.s.w.n &X@X.XXX(.7 e e e e e 9 e e e w 7 (.XX.X@X%Xn E ` [ [ { } +.` } [ O.X.5.4.3.%.a p N l ",
"J J J Y pXaXaXaXd.s.s.s.t.t.s.t.e.e.a.0.! &X@X.XXX(.7 e e 9 w w e e e e w 7 ).XX.XOX%Xn E X. . .} #.+.` } [ ) ..4.4.6.%.a p N N ",
"J J J Y pXaXaXtXd.t.s.s.t.t.t.t.7.3.3.,.! &X@X.XXX(.7 e 9 9 9 9 9 9 9 e w 7 : > oX@X*Xn ~ %.3.*.#.#.+.*.y.t.t.a.2.4.2.%.a p V N ",
"J J J Y pXaXaXaXp.t.s.s.s.s.s.a.3.2.2.,.m &X@X.XXX(.7 e 9 9 h.9 9 9 9 e w 7 ).XX, #X*Xn ,.5.4.5.+.} ` X.t.t.t.a.3.2.3.%.a p V p ",
"J J J U pXaXtXtXp.t.s.s.s.s.s.a.8.4.4.>.m *X@X> XX(.7 e 9 9 9 9 9 9 w w w 7 ).XX> OX*Xn ,.4.4.&.X.)  . .t.s.s.a.3.3.3.%.a p N p ",
"J J J P 0XtXtXeXs.t.t.s.a.a.a.9.5.4.4.,.m &X%X@X X(.o 8 8 8 0 8 8 8 8 8 8 o (.;X;X-X9X! ,.4.4.5.o.E E E t.t.t.r.7.3.7.*.a p N p ",
"D J J ( <.>.,.<.s.t.t.s.7.7.3.3.4.4.2.,.yX9X9X9XcX|.% % % % m.7XM.M.b.M.% % [.<X! <X! ~ >.=.2.3.0XeXeX0Xa.t.t.t.X.X.X.` 2 2 2 2 ",
"D J J ( %.;.;.:.t.t.s.a.3.3.3.4.4.5.2.>.rXdXdXdXdXcX).* * & vXLXv.>XLX'.* '.b ~ ,.,.,.=.;.;.3.:.tXaXaXpXs.s.t.t.X.` } ` l < 2 2 ",
"D J K _ %.2.2.6.a.s.s.a.3.3.4.4.2.3.o.<.tXdXjXyXdX1X& $ $ # :XKX& @ X # $ v.Q 1.3.3.6.6.6.2.3.<.tXdXtXtXi.a.t.t.} } } { l < 2 2 ",
"J J K _ %.5.5.3.r.r.a.9.3.4.4.2.;.>.,.0.wXdXaXtXgX1X: $ = * & & $ @ X # $ b.b =.3.%.3.2.6.>.:.~ tXdXdXtX9.r.r.t.} #.#.{ l < l < ",
"J J K H +.......7.7.:.6.3.4.4.6.wXtXrXwXjXyXtXrX^ [.b.$ = * @   $ * * # # '.Q ,...` ..o.wXrXtXtXtXdXfXtX<.8.7.7.X.#.#.{ l < l < ",
"J J K G ` ` ` ..%.3.;.2.2.4.2.;.rXfXfXtXjXtXjXtX^ b & $ $ $ = # $ $ = $ * & b ~  .*.` o.tXtXtXaXaXtXfXwX>.3.3.%.X.+.#.{ l < j j ",
"J G K J { } } X.7.3.2.6.4.4.2.>.tXtXtXtXtXtXjXyX^ y # + + + + + + @ @ @ + # y ~ I ` )  .eXtXaXaXaXtXjXtX6.2.6.3...` +._ 3 2 < M ",
"G G J J { { } ` %.3.;.6.2.6.>.0.tXtXtXtXtXtXtXrX^ y O .   X X . . . X   . X y ~ E [ [ O.0XsXpXpXeXeXtXwX3.2.3.3.....X.` 2 2 i i ",
"J J J J | #.` ..%.3.;.,.wXtXwXtXaXtXtXtX>.>.>.>.T m `.; ; ; ; ; - - - - - `.m E e.e.t.t.s.p.p.d.<.>.>.>.o. .X...%.3.3.%.a N p N ",
"J J G J { #.+.X.3.3.;.,.tXfXtXaXtXtXtXrX>.:.:.:.E / -X+X+X+X+XoX+X+X, +XoX%X/ E p.e.t.u.t.t.t.s.3.2.3.3. .) } ` 3.3.3.%.a V p p ",
"J J J ] | #.#.X.*.7.:.<.eXaXaXtXtXjXfXrX>.:.3.7.I / -XoXoXoX+XoX.X.X.X.X.X%X/ I p.p.t.t.t.t.t.r.8.3.3.*.O.} #.` %.3.2.%.s s p p ",
"J J J J | | ` ` *.*.:.<.0XaXpXaXtXtXrXwX<.%.%.*.) / -XoXoXoX+X+XOXOX.X.XoX;X/ o.a.a.a.t.t.r.a.a.3.%.%.*.} ` +.` 8.8.8.%.a s p N ",
"L J L J ] ] ( ( t.t.r.a.d.d.d.i.>.>.6.8...X.+.*.I W %X, oX, , , oXOX.X.X.X;X/ o.3.3.3.3.5.5.4.3.o. .X.} } } +.` r.r.t.y.a p N N ",
"L J L J J G G ( t.t.t.r.s.i.i.i.:.2.2.5...` ` ` I v -X+X+XoX, oXoXoXoXoX.X;X/ ;.3.4.3.2.4.4.4.3...) ` ` } +.+.} t.f.f.y.B p N N ",
"J J J J J ] G ( u.u.f.s.t.t.s.s.3.3.3.*.) [ } [ I v %XoXOXOXOXoX, , oXoX> ;X/ ;.3.5.3.3.4.2.2.:.X.` ` +.+.` ` } t.e.u.y.B p V V ",
"L J J J J G ( ( y.y.t.t.t.t.t.r.7.3.8.*.[ [ [ [ F v %XOXOXOXOXoX, , , , > ;X! :.3.5.3.3.5.5.3.3.o.X.X.+.*.} } O.s.p.p.e.z N V V ",
"K J J ] { | { { ( ( P ( [ } } O.X.X.+.+.] D J U I v %XOXOXOX+X, , > > .X.X;X! ,.......X.+.+.` X.%.3.3.7.r.t.t.p.eXtXaXqX3 3 2 < ",
"J J G ] { } } { ( ( ( ( { } } ` +.+.+.#.] D J D F W *X-X-X#X#X#X@X#X-X-X#X&X/ :.....` ` +.#.} ` 3.6.2.3.r.s.e.i.eXtXfXeX4 1 2 2 ",
"K H G _ } } } } ( ( G ( } } #.#.} +.#.#.] J J J U W 9X*X*X*X*X*X8X8X8X8X8X8X0.7.X.X.X.` #.#.} X.3.3.2.8.a.f.u.p.aXtXjXpXx k l 2 ",
"H G G ( _ { { { G G G G _ { _ _ { { @._ G G G G S F v v v v v v ~ T ~ T T ~ o.%.' ` _ _ _ { _ ` %.%.%.3.y.y.y.e.qXeXpXf.z 1 1 2 ",
"C N N B B B B B l l l l B B B B B B B B l l l k C k 4 6 4 4 4 4 3 z A 3 c c a B N N N N N N l N B a d d A A B B c 5 x c j M V i ",
"N N N N p p N l < < < < N N 2 2 l l p p i < 2 1 M j 2 3 2 2 2 p p N V p N 2 p p < < < < < < < < N V s s p p p p 1 3 1 1 M M M i ",
"N N N N p p N N < j j j N N p N l l p s p i 2 2 j M < < j j j l N p p p B p N N 2 l M M l 2 2 2 N p N N N N V N 2 2 1 1 N N l < ",
"N N N N p p N N < j j < N N p N l l p s s i 2 2 j M i < j j j j 3 3 a p V p N l 1 < i i < 1 < < N N N N N N V V < 2 2 l < < l k "
};
