/* XPM */
static char *_0b437ca263646d7c89b2e5d6e475c80M8XJv9i9zkXpFp0W[] = {
/* columns rows colors chars-per-pixel */
"64 64 138 2 ",
"   c #020104",
".  c #090506",
"X  c #05030B",
"o  c #08040C",
"O  c #0C0A0E",
"+  c #060311",
"@  c #0A0413",
"#  c #0E0B15",
"$  c #070219",
"%  c #0C041A",
"&  c #0E0B1A",
"*  c #110D15",
"=  c #11071E",
"-  c #110C1B",
";  c #131017",
":  c #14101B",
">  c #0F0B21",
",  c #110721",
"<  c #150B23",
"1  c #140A23",
"2  c #140B20",
"3  c #120D21",
"4  c #130F20",
"5  c #100D22",
"6  c #150E20",
"7  c #150D22",
"8  c #160D22",
"9  c #160E23",
"0  c #130924",
"q  c #130C23",
"w  c #190E25",
"e  c #150A28",
"r  c #160B2B",
"t  c #170D28",
"y  c #150B29",
"u  c #190E2F",
"i  c #141124",
"p  c #1C172D",
"a  c #1F1B2B",
"s  c #1F1A31",
"d  c #231A2F",
"f  c #201C2D",
"g  c #221E2D",
"h  c #211D2E",
"j  c #231C2E",
"k  c #221D2D",
"l  c #231F30",
"z  c #221D33",
"x  c #231E32",
"c  c #251D32",
"v  c #241F33",
"b  c #231E34",
"n  c #241C34",
"m  c #251D34",
"M  c #251D35",
"N  c #241F35",
"B  c #261E36",
"V  c #271F36",
"C  c #231D34",
"Z  c #281E37",
"A  c #281F36",
"S  c #241B3A",
"D  c #261B3B",
"F  c #261D38",
"G  c #241E38",
"H  c #271E39",
"J  c #251C3B",
"K  c #271E3B",
"L  c #261D3C",
"P  c #261C3F",
"I  c #251D3B",
"U  c #281E39",
"Y  c #291E3C",
"T  c #2A1C3F",
"R  c #281F3E",
"E  c #291E3D",
"W  c #23202E",
"Q  c #252130",
"!  c #252034",
"~  c #262135",
"^  c #252036",
"/  c #252037",
"(  c #252134",
")  c #2A2237",
"_  c #272238",
"`  c #26213B",
"'  c #2A223B",
"]  c #30263F",
"[  c #31263F",
"{  c #33293C",
"}  c #271D40",
"|  c #261D41",
" . c #2B1D41",
".. c #281E41",
"X. c #291F41",
"o. c #2C1E42",
"O. c #2A1E42",
"+. c #272141",
"@. c #2E2341",
"#. c #2A2045",
"$. c #2D2343",
"%. c #342743",
"&. c #302545",
"*. c #312644",
"=. c #322745",
"-. c #322747",
";. c #342745",
":. c #322545",
">. c #322843",
",. c #342947",
"<. c #342944",
"1. c #312549",
"2. c #35274A",
"3. c #34264B",
"4. c #332848",
"5. c #33284A",
"6. c #342949",
"7. c #34294B",
"8. c #352A4A",
"9. c #37294D",
"0. c #352A4C",
"q. c #34284E",
"w. c #372B4F",
"e. c #36294C",
"r. c #382A4E",
"t. c #392B4E",
"y. c #362651",
"u. c #382754",
"i. c #352951",
"p. c #372952",
"a. c #382950",
"s. c #3A2B52",
"d. c #382C54",
"f. c #3A2E54",
"g. c #392A53",
"h. c #352758",
"j. c #382658",
"k. c #3A2959",
/* pixels */
"        X X X X     X + c G } G @ X X X   X X + x N G / + + X X                     X X X X X X     X + & i - - @ + X o X o X + ",
"        X X X X X X X @ N G  .L @ X X X   X X @ g N / / + + X o                     X X X X o X   X X + & & - - + + o o o   X X ",
"        X X X X X X X + N G L D @ X X X   X X o Q / ` c + X                     X   X X X X X X   X X X * * * - o o o o         ",
"        X o X o o X + % G  .#.Y @ X X X     X X g c x g @ o X o             X X @ X @ o X X X X X o X X - 8 - - o X   o o o o o ",
"      X # # # # - & - 2 -.4.q.-.@ X X X         @ @ @ @ X             X # # & & & & & # o X o o o o o % @.q.8.>.@ o X o # & & & ",
"      X # * * * - - 2 t 8.q.a.8.% X X           X X X o X o o .   X X o # - - - - - - & o X o o o o X % 1.d.p.-.% o   o & 3 3 > ",
"        # * * - 2 = 0 r 2.q.a.4.% X X           o X X X X       X X X + & * - * - - - - @ o o o o o o % 4.d.q.,.% o   o # - & > ",
"        # * * - 8 0 0 r 2.r.a.-.% X X X         X X X X X     X X X X @ & - * * - - - - + + @ + @ @ % % -.8.-.] % @ X o # - & & ",
"    X X X X @ @ d Z U D  .o. .Y + X X   * # # #                 & & - & @ X o o o @ X + g N N N %.%.;.%.2 8 8 8 N N x / & - & # ",
"X X X X X X + + c Z U D E Y E M + X X X * * # O                 & & * & X X X X o o X @ c _ G Y r.s.r.8.8 - - - G L L ` & * & * ",
"X X X X X X @ @ c ) _ G U Y G N + X X X * * * #                 - & * # o         X X @ b '  . .q.a.d.2.e - - 8 L +.} ` - & # & ",
"@ @ @ @ X X X o k j n n N _ N N @ X X o # # # #           X X X & # # O X         X X @ b ` L } q.r.q.$.e - - - x G n n & & # & ",
"b b g a @ X X X X @ @ % & 3 - - & & & # @ o X X X X X X o # # # X X             X X X @ b ` L L 2 2 2 e = - * * X X X X         ",
"` ` / g X X   X X X + + & * & & * * * * + X X X X X X o # * * *                 X X X @ b ` L ` w - = - - - * #                 ",
"L L N Q X X X o X X X + & * & * & & - - + + X X X X X o # * - #                 X X X % b ` G G 0 = - - - - * #                 ",
"L G b g X X     X X X + & - - - - & & * X @ X X X X X o # * * #                 X + X + x / x x - - * * # # # #         X       ",
"+ + @ X X             X x N / x 8 - * *                 o X X X # # # O         X X X + @ o X o           o o     X X X & # * & ",
"+ + X X             X + x N ` G 0 & * #                 X X X X # # * #         X X X X X X               o o o X X + X * * - - ",
"+ X X X X X X X X   X + b ` ` b - & : #                 X X X X & & * # X       X X X X X X X X         X X X + + + + + & & - & ",
"X X X X X X o X X X X + p b / n & # # O             X X @ @ @ @ & & - & X X             X @ + @         X X X X + + + + & & & & ",
"X X X X X X X X # * - # # + @ @ + X X X     X   # # * - g x x g & & & & & # # #         @ # & & X X   X     X X X X X X * * * & ",
"        X X X X # # * # o X o o X X X X X X X X # & & 3 b ` U b - & & - & - - #         # : - & X X X X             X X * & * & ",
". . . o o o + + - * * * o o     X + X X X X X X - - 0 e G L Y n - * - - & & * # X     X # * * & X X X X X X o X o X o X * - * - ",
"o o o o + @ % % - - - * o X . X X + + X X X X @ - 0 r u P  .o.L - * * - & & - & X X X X # * # # X o o o @ @ @ % % % % @ - - - * ",
"* * - - Z M G L G G N c + + X X & * & # * - - 8 ] =.q.q.p.a.a.2.@ X X X * & - 3 x b / g X       X o o @ <.8.2.r.y.q.2.,.0 - - * ",
"- * - 0 U G L L  .L G N @ + o o & * & & * - - 2 ,.t.r.q.a.a.a.-.+ X X X * & - 3 G ` / c + X       o X @ 8.a.y.k.j.j.a.8.2 - * * ",
"* - - - N G ` L G G b x @ + X X - * * * * - 0 e ,.q.r.a.a.f.s.8.@ X X X * & - 3 b ' ` / X       . o o % ;.r.a.j.k.d.a.8.e - * * ",
"* * * - g n b x / / x a @ X     * * * - - - 0 t 4.8.r.r.&.;.;.] @ X X X * # - 3 n G b s @ X   X     X % ' ;.2.r.2.2.,.] 8 * * * ",
"X X X X @ @ @ @ X     X         o o X @ & & 0 e G Y Y D , % % @ @ X X X * # * * % + % % p g W f X       # % @ @ w 8 8 - X X X X ",
"X o o X X X X X                   X X o & - 0 5 Y ' ' N % + X X X X X X * # * * @ X + + Q / _ x         X o o @ - * * # X X X X ",
"X X X X   X X                     X X X # - & 5 b G / N + o o o X X X + * # * * X X X + Q b G b X         X X + - * - & + X X X ",
"X X X o X X X                     X   X # & & & x x x g + X X   X X X X * # * * X o X @ x / S b X         X @ + & & - # X X X X ",
"X o X X X X   X # # # *     X X X X X   o X o o o @ @ X X X X X                 X X + + 3 0 5 -         X X X o # * * # X       ",
"  o X X X X X X & & * * X   o o o o X X         X X X X X X X                   X X + + & & & #         X X X X # # * #         ",
"    X X X X X X & - - & X     X + X X o X o o o X X X X X X X                     X X X # & * #         X o X X * * * #         ",
"o @ @ @ X X X + - 0 0 - % @ % % % % @ % X X X X X X X X X X                     X X @ # # # # #         X X X X # # # O         ",
"x b b x - * * - N G L Y @.*.1.1.L G N d @ @ o o                 X X X X # # & & x x b s i - - * # O # # X X X X o o o X         ",
"G ` L G & & & - N G  .#.t.s.f.d. .' U c + X X X                 X X X + & - 3 5 G ` ` G 3 & & & * * ; * X X X X X X X X         ",
"G ` G ` & * * - N G Y Y 8.q.y.y.P G N c @ o o o                 X X X X - - 0 > S G Y ` e 0 - - & # * # X X X X X X X X         ",
"Q Q x c & * - - N L Y Y 8.2.2.8.Y G N c X X X X                   o X o - 8 e r  . . .Y e 0 - * - & * # X X X X @ + @ + X       ",
"  X X + & - 8 e 1.q.p.q.e 2 e 2 % @ + o X X X           * # * # o o o o { <.8.q.q.p.a.1.Y M M N 5 0 & *       X g x b x @ X     ",
"      X # - 0 r q.d.p.8.2 = = - + o o o X X   X       X # # * * O o o @ { t.r.a.d.d.d.y. .P G N 0 > & *       X x N ` b @ X     ",
"      X & - 0 t p.d.d.8.e - - - o o X X     X X X X X X & * * # @ o X % *.t.a.y.d.j.d.p.O. .Y U e 3 * *       X g ` ' b % + X . ",
"      X # & - 0 -.1.8.' 8 * - - o o o .   X X X X X X + # * * # o + + - ' 8.r.a.a.p.d.q.P n N n & & # O       X g x b p % X X   ",
"        o o o O - 8 8 - o X o o o o o o X X X X g Q Q a # X X o * * # % 8 e 0 r E L L n % + X X X X     X X X X X + @ % & & * * ",
"              . * - - # o o o X o o o o X X X + p x / g @ X X o # * * # - - 0 t G G ` x X               X X X X X X X X & & * & ",
"        X     o * - - # o X X X o o o o X + + + / / / g @ X X X & - & & & & & 0 N b b x X               o X X X X     X * - 3 3 ",
"        X X X X # * * # o X X o X o o o X + + @ c N / g @ X X X & 3 > > 3 3 0 3 b x x g                 @ X X X X   o X * # - & ",
"- & * # o X X X                 * * # # * * - - N _ N c X     X x ` G N 0 3 & & + + + X         X X X X # # * * X X X X @ + + @ ",
"0 - * * X X X X                 # - * # * * - e G Y G c X       n Y G N - - & * X + X X         X X X X * & * * @ X X X X X X X ",
"- * * # @ + X X                 & - - - - , , e S Y ' n X     X x ' _ c - - # * + @ X X         X X X X - - - * o X           X ",
"* # # # @ X X X               X & 3 0 0 e t r r D Y Y n % X X X g N j g - * # * X X X X X       X o @ @ e e e 8 @ o o .     X X ",
"o X @ @ X X X X X X X X     X + b L G Y -.8.=.>.e , 0 e s b ` x @ @ + @ X X X X * * * * * * # * g c N D 1.1.q.-.8 - * * o X X X ",
"  X X + X X X X X X X X X X X @ G } } #.q.s.t.,.w - - 8 b ` +.b + X X X X X X X # # # # * * * - Z Z Y  .d.d.d.q.t - * * o X X X ",
"X X + + X X X X X X X X     X + N  .} O.q.w.8.>.- - - - b b } b @ X   X     X X # * * * * * * - M U  . .q.d.a.2.r = * * X X X X ",
"X X + + X     X + + X X     X o d N L  .1.q.8.,.8 - * - Q x G n X     X     X X # # & & & & - - U Y o. .y.a.a.1.u e 8 - X X X   ",
"# # : #         * - * *         o o @ % Y  . .L 0 - * * X X X X         # # # # X X X + + + + % 2.q.a.a.o.o. .o.q.8.=.' +       ",
"* & # #         & & * *         . . o @ D Y  .S 0 - * *     X           # # & # X X X X o X + % q.p.p.q.o. .E o.q.p.t.>.+ X     ",
"& - & *       X - - - *             X + N U ' N 0 - * #               X & & & & + X X X X X + % p.d.p.q.o. . .O.q.p.d.$.$ X     ",
"# * # # @ X X + - - - # X X X   . . o # d c c j # # # O X X X X       X - 3 3 - + X X X X X o @ 1.q.1.-.N G D Y q.t.q.@.% X     ",
"X   X + ) >.,.] 8 - * : k j g f X   X X @ @ o X       X @ # & & # # & - x N b x @ X X X X X X + 3 e e 8 + + + % - 0 8 - X X X   ",
"      X =.q.s.4.8 - # - c _ ` b @ X o X X X             # & - - & # & 3 G G G b @ X X   X X X o & & & * X X X o * - * # X X X   ",
"      + 8.y.d.q.w - - = G  .} S + X X o X X X X       X & & & & * & & 5 G L G b @ X X   X   X X # * & * X + X @ # # # # X X X X ",
"      + q.k.h.y.2 - * = G  .| } @ X X o X X X X     X X & & & & * & > 0 S L G x @ X         X X # & # # X + X X # * : # X X X X "
};
