/* XPM */
static char *_64010cd56ad41649fabe3d30b34b68brfGva1dqvWHUXM3l[] = {
/* columns rows colors chars-per-pixel */
"64 64 235 2 ",
"   c #3D735C",
".  c #3E6A64",
"X  c #45655C",
"o  c #457B5E",
"O  c #4C5B6C",
"+  c #4B586B",
"@  c #55586C",
"#  c #4E5976",
"$  c #555A77",
"%  c #456462",
"&  c #496867",
"*  c #57666B",
"=  c #4C7B65",
"-  c #4A7A65",
";  c #53766A",
":  c #4D6872",
">  c #576477",
",  c #567873",
"<  c #64717A",
"1  c #615F75",
"2  c #3D9B5C",
"3  c #3D9958",
"4  c #3B8856",
"5  c #3DA359",
"6  c #3FBF5E",
"7  c #3E8C62",
"8  c #3D9A63",
"9  c #3EB560",
"0  c #44845D",
"q  c #448C5E",
"w  c #498B5C",
"e  c #45935D",
"r  c #439C5D",
"t  c #499A5B",
"y  c #539F5E",
"u  c #48A65C",
"i  c #48B65D",
"p  c #50B85E",
"a  c #51A55F",
"s  c #458463",
"d  c #4A8363",
"f  c #438B63",
"g  c #488A67",
"h  c #538C64",
"j  c #54856A",
"k  c #4A9564",
"l  c #449B64",
"z  c #479867",
"x  c #579867",
"c  c #578572",
"v  c #579A71",
"b  c #618475",
"n  c #638E72",
"m  c #4BA362",
"M  c #47A965",
"N  c #58A668",
"B  c #4BB363",
"V  c #44BE64",
"C  c #4ABC65",
"Z  c #45B768",
"A  c #56B767",
"S  c #3BC45B",
"D  c #3DC366",
"F  c #46C35E",
"G  c #54C65E",
"H  c #43C264",
"J  c #48C269",
"K  c #55C464",
"L  c #55C46B",
"P  c #57C667",
"I  c #5ACC73",
"U  c #62CF6D",
"Y  c #7B0EB6",
"T  c #7E0EBB",
"R  c #760EBB",
"E  c #7D12BC",
"W  c #7C16B7",
"Q  c #781AAC",
"!  c #7C29B1",
"~  c #5A5C8B",
"^  c #765C9D",
"/  c #645494",
"(  c #596884",
")  c #6B7984",
"_  c #7A6B99",
"`  c #6D6A93",
"'  c #795BA3",
"]  c #7868A7",
"[  c #7D6BAF",
"{  c #7D0EC1",
"}  c #7E15C3",
"|  c #7C1DC4",
" . c #7E15C9",
".. c #7D1CCA",
"X. c #810EBC",
"o. c #800EB7",
"O. c #8213BD",
"+. c #841DBA",
"@. c #801EAF",
"#. c #8226B8",
"$. c #8C78A5",
"%. c #9277AA",
"&. c #896BB7",
"*. c #8B6EAD",
"=. c #820CC3",
"-. c #8115C3",
";. c #841BC3",
":. c #8115CA",
">. c #831AC9",
",. c #8522C4",
"<. c #AD3DDC",
"1. c #B23DDD",
"2. c #B03FD7",
"3. c #AD3DE3",
"4. c #AD3DE9",
"5. c #B23DE4",
"6. c #B33DE9",
"7. c #AA49D6",
"8. c #AD45DC",
"9. c #AD4ADB",
"0. c #A747D8",
"q. c #B143DC",
"w. c #B24BD9",
"e. c #AA5DD5",
"r. c #A45BDC",
"t. c #AB5ADC",
"y. c #A857DB",
"u. c #B057DF",
"i. c #9475D5",
"p. c #906DCB",
"a. c #AC62D8",
"s. c #A678DE",
"d. c #9F5DE1",
"f. c #AD42E4",
"g. c #AC4CE5",
"h. c #AC44EB",
"j. c #AD4CEC",
"k. c #A64AE9",
"l. c #B140E4",
"z. c #B24BE5",
"x. c #B346EB",
"c. c #B24BED",
"v. c #B947EC",
"b. c #AC52E5",
"n. c #A553EB",
"m. c #AB51EC",
"M. c #A759E5",
"N. c #B254E7",
"B. c #AD4CF1",
"V. c #B24CF2",
"C. c #B646F0",
"Z. c #AC51F2",
"A. c #AC5DF5",
"S. c #AB5EF7",
"D. c #B25CF6",
"F. c #B35EFB",
"G. c #B253F4",
"H. c #9D68EA",
"J. c #9B6DEC",
"K. c #AB6BE4",
"L. c #A464EC",
"P. c #AB64ED",
"I. c #AC6AEB",
"U. c #A46BE7",
"Y. c #B26BED",
"T. c #B166EA",
"R. c #AB74E4",
"E. c #BB7AE6",
"W. c #A564F4",
"Q. c #AB63F4",
"!. c #AB69F2",
"~. c #A565F9",
"^. c #AB63FA",
"/. c #A469F4",
"(. c #B263F3",
"). c #B365F7",
"_. c #BE73F6",
"`. c #8E56C9",
"'. c #C47BEA",
"]. c #CC6DF5",
"[. c #C56DFD",
"{. c #CC6DFC",
"}. c #C769FA",
"|. c #D16EFC",
" X c #D06EF7",
".X c #C574F3",
"XX c #CB74F4",
"oX c #CA79F3",
"OX c #C471FC",
"+X c #CB71FC",
"@X c #C47BF3",
"#X c #D273FC",
"$X c #9389B9",
"%X c #A28BBA",
"&X c #838A9A",
"*X c #AF8CCF",
"=X c #B9ADD3",
"-X c #C390DE",
";X c #C5ACDC",
":X c #C582E6",
">X c #DA8CFF",
",X c #DC9CF6",
"<X c #D594FE",
"1X c #DD94FF",
"2X c #DD9CFE",
"3X c #D69AFE",
"4X c #CF9DF7",
"5X c #E18EFF",
"6X c #E294FF",
"7X c #E29CFE",
"8X c #E999FF",
"9X c #C9A8E6",
"0X c #DAA6EF",
"qX c #DAA4F4",
"wX c #DDA2FB",
"eX c #D9A8F4",
"rX c #E2A1FE",
"tX c #E3A7FA",
"yX c #EEBBFF",
"uX c #F4BDFF",
"iX c #F4B8FF",
"pX c #F2ACFF",
"aX c #EFC3FF",
"sX c #F3C3FF",
"dX c #F5CCFF",
"fX c #FACBFF",
"gX c #FBC5FF",
"hX c #ECD7F8",
"jX c #F4D4FE",
"kX c #FAD4FF",
"lX c #F8DAFD",
"zX c #FEE3FF",
"xX c #FDECFF",
"cX c #FFF5FF",
"vX c #FFFCFE",
/* pixels */
"j.j.B.B.V.c.c.c.j.B.B.j.g.g.j.j.f.3.1.1.5.3.3.f.x.c.j.j.j.g.z.z.B.B.j.g.q.2.q.q.3.5.6.6.f.3.1.q.5.l.5.3.c.B.j.j.j.j.j.B.}  . ...",
"j.k.j.B.j.c.c.j.j.B.B.B.g.g.j.c.f.5.5.1.5.f.f.f.c.c.c.j.j.j.z.c.B.B.j.j.8.1.1.1.5.5.5.6.l.f.1.1.l.5.<.l.j.B.B.k.c.V.m.k.;.}  . .",
"j.B.Z.G.g.g.j.j.j.j.B.j.g.g.g.x.3.6.3.3.3.3.f.f.x.c.c.j.k.j.j.j.j.j.j.c.5.1.5.1.5.5.1.5.3.l.5.1.q.l.5.x.h.j.j.j.g.g.9.0.+.-.-.-.",
"j.j.k.k.u.t.t.t.e.e.t.r.e.e.e.e.7.8.8.8.7.7.7.7.u.t.t.t.t.t.M.r.t.t.t.u.7.8.7.8.0.0.7.z.0.8.f.f.8.8.3.f.b.t.t.t.t.r.e.t.Q E -.-.",
"V.V.j.N.pXuXuXaXlXzXzXzXzXzXzXkX,X1X1X1X5X5X5X1XiXuXsXsXuXuXaXaXsXuXuXiX6X6X6X6X6X1X6X>XY.A.A.A.A.Q.A.Y.iXsXuXsXuXyXsXpX#.W } -.",
"c.c.g.t.gXkXjXlXvXvXvXvXvXvXvXcX0XrXwXwX7X6X7XtXfXkXjXjXkXkXjXjXjXjXkXfXeX,X2X2X2X2X7X1XI.L.^.^.W./.W.U.fXkXjXkXjXjXkXsX! W -.-.",
"z.z.g.t.sXjXhXhXcXvXvXvXvXvXvXxXeX2X2XwX2X2XwXeXdXjXjXjXjXjXjXjXjXjXjXdXwXwXwX2X2X2X7X1XI.L.^.^./././.R.dXkXjXkXjXhXjXsX! } >.-.",
"z.z.g.a.aXlXhXhXxXxXxXxXxXxXxXzX2X6X2X2XwXqX0X0XdXdXdXdXdXdXdXdXdXdXsXsX2X2X1X1X6X1X6X5XT.A.D.A.Q.Q.Q.Y.uXfXfXdXjXjXlXyX! E -.-.",
"V.B.j.e.zXcXcXxX*Xs.s.s.R.R.R.R.XXXXoX:XuXdXdXsXeXwXrXtX0XeXeXqXs.R.R.Y.N.N.N.N.9.w.w.q.8.f.f.f.j.j.m.b.oX'.:X-XdXjXjXsX! E -.;.",
"B.B.k.e.zXvXvXxXi.H.H.H.W.L.P.P.{.{..X'.fXkXjXdXeX7X6X6X,XqXwX3XK.L.Q.A.j.g.g.z.<.<.1.1.1.3.5.5.c.c.c.c.{.]..X'.fXjXkXsX! W } :.",
"j.B.j.a.zXvXvXxXR.J./.U./.W.Q.Q.OX.X.XE.dXjXjXjX0X2X2X7X,XtXrX2XI./.W.A.m.j.c.c.3.3.5.5.3.3.5.l.c.c.j.z.{.+XXX'.sXjXjXyX! W } ..",
"c.c.j.a.zXvXvXxXR.H.U.L.Q.Q.Q.(.@XE.E.:XaXjXjXdXwXrX7XrX2X7X7X1XI.W.~.Q.m.j.c.c.f.f.l.l.f.f.3.l.c.c.N.N.[.{..X'.gXfXfXiX#.} }  .",
"j.j.g.a.zXvXvXxXR.~./.!._.OXOX@XiXgXfXuXeXqXeXwXwX2X2X1X@XoXXX.XQ.W.~.Q.m.j.j.j.j.x.x.x.c.j.z.z.}.[.[.}.#X+X+XoX,XeXwX1X+.-.:.:.",
"g.j.g.a.xXvXvXxXR.W.W.Q.OX+X+X'.sXjXkXfX0XwX7X2XwXwXrX2X.X+X].[.Q.W.^.A.m.j.j.c.c.c.c.c.c.c.c.N.{.+X+XOX+X{.]..X2XwXrX1X+.-.:.} ",
"j.j.g.a.zXvXvXxXR.W.W.Q.OX+XOX'.dXjXjXdXqX,X6X6X,X,X2X6XXX+X+X+XQ.W.Q.A.m.j.c.j.c.c.c.c.j.j.j.j.{.+X+X+X+X+X|.#X1X2X2X>X+.O.}  .",
"c.c.c.e.zXcXcXzXR.P.Q.Q.OX.X.X:XsXjXdXsXwX7X6X7XqX0XeXwXE.'.E.E.K.U.U.U.r.r.r.M.m.B.V.V.j.j.V.N.{.+X+XOXOXOX[..X2XwXrX>X#.E } | ",
"l.f.l.9.,X0XeXwX@X[.OXOX6X6X6X,XqXeXwXrX7X7XrX0X%.$.%.$.*.] ] ] _ ^ ' ' ^ ^ ' [ H.^.F.G.[.[.{.}.|.].].OXQ.Q.Q.I.2XwXwX1X#.E } } ",
"5.3.3.7.1X,X,X1XoX+X+XXX7X7X7X,XrXwX2X2X7X,X0X9X_ $ > * O O & O + @ @ + O O $ ~ i./.^.D.+X{.].+X].].XX.XQ.~.~.I.3XwX2X>X#.;.} } ",
"5.5.5.9.6X7X7X6X.X.X.X.X6X7X7X2X2X2X2X1XrXqX;X=X) * ; ; & & & . . X % + % % & $ p.p.L.A.+X+X.X.X{.{..XOXQ.W.~.!.<XrX7X5X+.E E ;.",
"5.5.5.9.6X7X7X2XoXoXoX@X1X6X7X2XwX2X7XrX,X*X$.< b j c c ; = d s o = - - = - - , ( / p.K._.XXoX.XOXOXOXOX(.D.^.(.>X8X8X>X,.-.-.-.",
"5.5.5.7.6X7X2X2X6X6X1X1X7X7X2X2X7X1X2X2X-X$.@ ; - 7 g g - o 0 4   o o - d d d = ; > *XeX2X6X6X6XY.Q.Q.(.n.j.j.g.7.7.w.8.E E } E ",
"5.5.5.7.6X2XwX2X7X8X7X7X7X7X7X2X2X7XwX-X%X_ * o f 7 7 f s 0 s 0 4 0 0 0 w w w q x b %X=X*XwXrX1XI.Q.Q.Q.j.c.c.v.q.2.q.<.O.E } R ",
"5.5.3.7.1XqXqX,X,X7X2X2X2X2X,XwXrXwX9X_ 1 < b h z l l l k g k g g k e e t l k k x x b < _ 9XwX2XP.^.Q.D.j.c.c.v.3.5.5.3.O.Y T T ",
"5.5.f.9.,X0XqXeXwX7X2X7X2X7X,XqX0X9X;X) ; = j g e l 2 r r 3 e e 3 3 3 3 r u r t y N h , ) =X9X4XP.^.D.D.c.v.v.v.5.5.6.6.O.E X.O.",
"v.c.x.u.uXfXdXsXwX2X2X2XrX,XwXeX%X` ) , j h x x m r u A B B Z Z Z Z Z Z I A N N N N x v , , ` p.M.n.m.j.f.3.l.3.6.4.6.3.O.Y X.o.",
"c.c.j.M.gXkXjXdXwXwX2X2X7X2X,X0X$.> ; j h x N N a u B L C J J H H H J C I L A A A A N v = & # ] M.j.B.c.l.5.5.5.6.4.6.3.O.E O.X.",
"c.c.j.t.gXkXjXdXqX2X2X2X7X7X7XeX$.* ; c h x x a a u B A i i S S S F J J I P A A A A N v d & : ] r.j.j.c.l.5.5.5.5.4.6.4.E E E T ",
"c.c.j.t.sXjXjXdXeXwXwXrX1X6X6XqX$.* ; c h h x a A A L L C J H F F i H J I U U U p N N v j & O ] r.j.c.c.5.5.5.5.l.4.x.3.E Y T T ",
"c.c.j.t.sXjXjXdXqX2X2X1XoXoXoX:X%.@ * , j x N m B C C C C C V J P G K K P K G p u m k h ; + + ' r.c.c.v.l.3.f.f.c.j.c.h.-.T X.X.",
"c.j.k.t.sXjXjXdXqXrX7X6XoX.XXX'.%.* * , j h x u B V V H C Z M B p i p K G G K p 2 z 0 d ; & + ' r.c.c.v.f.3.l.f.c.c.j.h.-.X.X.X.",
"c.j.k.t.sXjXjXdX0X,X7X8X.X{.].'.$.* ; j h x N m Z H S S V i 2 l m m C L K P P A l z f 0 = % + ^ r.j.c.x.f.3.6.3.c.c.c.h.-.T X.T ",
"c.c.j.t.uXdXdXsXwX7X7X8X].{.{.'.%.* - h w t x m Z H S S H i 2 z z l B L J K L A l z f 0 d . + ^ r.j.c.c.f.3.6.3.c.j.m.k.-.T E E ",
"5.3.f.9.2XwXwX2X'.@XoXXX X|.{.@X%.* - h w e x 2 Z J S S P p m x x m B L 6 D C Z r k g s - . + ^ r.j.j.c.x.v.v.j.F.S.^.A.>.-.-.O.",
"5.5.3.9.1XwX7X6X.X.X.X]. X|.{.@X%.> ; h 0 e k 2 Z V S F P i u m m u p P 6 D H Z r k g s - % O ^ y.j.j.j.z.z.c.m.^.~.~.A...} -.O.",
"5.5.3.9.6X7X7X6X.X].+X+X X X{.@X%.> ; c s w k 2 9 V V H P A B A B B A L V D D 9 3 t w s - % + ' M.V.B.j.v.z.z.m.^.~.W.A... .-.-.",
"5.5.5.7.6X7X7X6XXX{.+X+X]. X].'.*.> : c d w l 2 Z J J C L L L L L K K L J J H V 3 r w 0 = % # ' M.V.j.k.c.z.N.b.~././.A.|  .:.-.",
"5.5.5.q.6X7X7X6XXX{.+X{.].].].'.] O & j d e l 2 Z L L L K K K G F F F C V Z Z Z 8 l f d j % # [ M.V.V.G.}.[.[.OXW././.A.| }  .} ",
"3.5.5.q.6X7X7X6XXX].+X+X].+X].'.] O % = s e l r M B B L K G G G F F F i C Z 5 M 8 l f g j % # [ y.x.k.m.{.{.+XOXW././.A.|  . . .",
"5.5.5.q.6X2X2X6X+X].+X+X+X+X].@X[ # : = 0 e l r m u u P K K P K C F F i Z 5 3 r l l 7 s = & $ ] t.c.b.b.{.{.+XOXQ.Q.Q.A.| }  .} ",
"5.5.5.8.>X2X2X1X+X].{.+XOXOX[._.p./ ( , s w k t m u u A p A A A B B i i Z 5 2 l 2 l 7 - , > / &.e.u.y.u.[.{.].+X(.Q.(.A.| } } } ",
"5.5.5.f.T.I.K.Y.+X].{.+X(.(.(.P.J.i.$X> ; h N x N A B B 5 3 l l l 2 5 5 2 8 l 2 4 f   . > $Xi.R.<X6X6X>X+X{.{.{.b.m.m.g.E E } } ",
"1.5.6.f.Q.L.L.P.[.{.{.+X(.Q.Q.W./.J.i./ > b n x N A A A u l z z z l l l 8 l l e q s : ( / p.H.U.2X7X7X6X+X+X{.{.j.j.c.h.E E E E ",
"1.5.6.h.D.Q.W.Q.+X+X+XOXQ.Q.~.~.Q.L.i.&.$X&Xb h N N N N e q f 7 z z z g g z f f o : ` [ `.H.!.U.2XwX2X2X.X+X[.{.c.c.c.x.O.T T E ",
"5.5.6.h.D.^.^.Q.[.[.OX_.Q.^.~.~.P.Y.K.s.eX%X< j x x v v h s g f s s d s s s s = % ~ p.U.I.I.!.K.2XqXwX2X_.OX[.[.j.c.c.x.O.T T T ",
"5.5.6.4.m.m.n.n.).(.P.!.Q.^.~.!.1X2X1X<XwX*X` ) , = j ; = o o o o o = = = = = , $ / `.M.>X<X3X3XwXwXwX1XY.(.(.).j.c.c.x.O.Y T T ",
"5.5.6.3.c.j.j.n.D.Q.L./.W.^.W.L.<X1XrX2XwX0X9X=X> & & & % X % X X X % & & & & > &.`.y.N.8XrXwXwXwX,XwX<XI.P.P.A.m.j.c.x.O.Y X.X.",
"5.5.6.5.v.c.V.m.(.Q././.~.^./.I.2X2XwXwX2XwXeX9X` # > O @ @ + + + + + + : : : ~ p.n.j.b.1X,X2X2X7X2XrX2X!./.!.Q.n.j.j.j.W T X.=.",
"3.3.5.5.v.c.c.j.A.Q.L././.!.I.R.3XwXqX3XwX2X3X4X&.] ] ] ' ' ' ' ^ ^ ' ' ] _ ] &.M.j.c.N.6X6X6X2X1X1X2X<XP.W.Q.Q.n.n.m.k.E E X.=.",
"l.l.5.5.x.V.B.m.A.Q.L.U.<X2X<X3XwXwX2X2Xs.K.I.I.d.d.M.r.0.0.0.7.7.7.0.0.y.r.r.t.[.[.[.{.XXoXXX.XY.P.!.!.M.n.m.n.A.Q.^.Z.>.} } -.",
"5.3.5.5.x.V.B.Z.^.Q.L.K.2XrX2X2XwXwX2X2XK.P.Q.F.m.B.B.x.4.6.6.6.5.6.6.5.x.c.j.g.[.{.{.{.{.].].[.Q.W.^.Q.b.g.c.j.Q.Q.Q.A... .} } ",
"5.5.5.6.C.V.V.Z.D.(.P.T.1X7X6X2X2XwX2X2XI.P.(.D.Z.B.V.x.5.5.6.5.6.6.3.f.j.j.j.b.[.{.{.{.{.|.].[.Q.W.^.A.m.j.V.j.A.W./.A.....} -.",
"5.5.5.5.x.x.j.j.D.D.T.Y.>X6X6X6X2X2X2X<X(.A.A.G.B.c.V.v.l.5.5.5.6.3.3.f.j.m.m.m.[.[.[.OX+X+X+XOXQ.Q.A.D.c.j.B.B.F.).Q.A.|  .-.-.",
"5.5.5.5.l.l.f.h.[.[.OXOXoXoXoX.XK.I.I.).n.n.Z.V.h.f.l.l.5.5.5.5.c.c.j.Z.D.F.A.Q.Q.Q.Q.Q.Q.Q.Q.P.M.m.m.G.c.c.B.G.}.[.[.}.| } -.-.",
"5.5.5.5.5.3.3.f.[.[.{.[.+X].XX.XP.P.P.Q.n.j.j.h.3.3.5.5.3.5.5.3.c.j.j.m.A.^.Q.Q.Q.Q.Q.W./.W./.Q.b.g.j.c.c.j.B.c.{.|.|.[.;.} -.-.",
"5.5.5.5.5.3.f.f.|.|.|.+X{.].+X+X(.Q.A.F.j.V.V.c.l.5.5.l.5.3.5.f.c.j.j.n.D.^.^.^.Q.Q.Q.W.W.Q.Q.Q.m.j.c.B.B.B.B.c.{. X X{.;.-.:.:.",
"5.5.5.5.5.3.f.f.{.{.{.{.{.{.{.[.).^.D.D.j.c.x.v.5.5.5.5.3.f.f.f.j.n.n.n.A.^.Q.Q.Q.^.Q.Q.Q.Q.Q.A.m.m.j.B.G.c.c.N.XXXXXX].+.-.:.:.",
"6.5.5.l.v.c.v.x.f.f.f.f.c.c.c.c.m.m.m.j.h.3.5.5.5.5.5.l.v.c.c.j.A.Q.Q.Q.Q.Q.Q.Q.n.n.n.m.m.j.j.m.A.Q.A.D.}.{.{.XX1X2X2X>XW E E { ",
"6.3.3.l.v.c.c.v.f.f.f.f.c.c.c.c.j.j.j.j.f.3.5.5.5.5.1.f.x.V.V.Z.^.Q.W.W.W.Q.Q.Q.n.n.j.j.j.c.c.j.Q.Q.W.Q.[.|.].XX1X2XwX1XQ Y E T ",
"4.3.4.f.x.c.c.c.f.f.3.f.c.V.c.c.j.c.c.c.l.3.5.5.5.5.3.f.c.V.V.Z.^.Q.^.^.^.^.^.^.m.m.j.c.c.c.c.j.Q.Q./.).+X|. XXX7XwXrX1XQ Y O.E ",
"4.4.4.h.h.x.x.x.3.3.3.3.x.x.h.h.j.h.x.x.3.3.6.3.3.3.3.3.f.h.h.B.D.A.A.A.A.A.A.D.k.j.j.h.h.x.x.j.D.A.A.Q.}.}.}.].>X1X6X#X+.Y T E ",
";.;.-.;.;.;.;.;.O.O.O.-.;.;.;.;.;.;.;.;.O.O.O.O.O.O.O.E O.-.-.} ;.| | | | | | | E O.-.O.O.O.O.;.;...| | ,.;.;.;.#.Q @.+.X.=.-.{ ",
"-.-.-.} } } E O.T T T T O.-.E } E E -.O.T T T T T O.T Y E T Y E -.-.-.} } } } } T T T T T T T Y -.} } } } } } } Y Y Y Y =.=.{ { ",
"-.-.-.} } } -.-.T X.X.T -.-.} } -.} -.-.{ { } T T O.T T O.T T X.-.-.} } } } } } E T T T T T T E E } } } E } :.-.E E Y T =.=.X.X.",
"-.-.-.-.} } -.-.T X.X.=.-.-.-.} -.} -.} { { } T T T T T X.X.X.O.-.:.:. . . .-.-.T T T T T T T E -.E -.-.-.-.:.:.{ T E O.T { X.o."
};
