/* XPM */
static char *a3d6aee0bf54418e9f86afaeb0a1311eFUbb72mjHXWC6OIf[] = {
/* columns rows colors chars-per-pixel */
"64 64 256 2 ",
"   c #B23EE4",
".  c #B04DEE",
"X  c #A666F5",
"o  c #CC6FFD",
"O  c #DE9FFF",
"+  c #8015C6",
"@  c #B14EEE",
"#  c #800FBD",
"$  c #B14CEE",
"%  c #B33FE5",
"&  c #7E12C6",
"*  c #CA6FFC",
"=  c #B14BEE",
"-  c #CD73F9",
";  c #DFA0FF",
":  c #831AC8",
">  c #B33DE5",
",  c #A565F5",
"<  c #7F0DBC",
"1  c #B049EF",
"2  c #CD70FD",
"3  c #DE9BFD",
"4  c #A864F5",
"5  c #A667F4",
"6  c #F2D9FF",
"7  c #B23BE5",
"8  c #AF4BED",
"9  c #B443E3",
"0  c #CC6EFD",
"q  c #DB9BFC",
"w  c #B24AED",
"e  c #AA66F5",
"r  c #B352EA",
"t  c #E0A1FF",
"y  c #7F0FBA",
"u  c #CA6DFB",
"i  c #DF9EFF",
"p  c #AA69F3",
"a  c #AA61F5",
"s  c #8312BE",
"d  c #AF4EEF",
"f  c #A963F5",
"g  c #CA6BFB",
"h  c #AA4EE8",
"j  c #8016C6",
"k  c #AE48EC",
"l  c #A766F7",
"z  c #ECC6F7",
"x  c #7F14C5",
"c  c #B140E6",
"v  c #AC64F6",
"b  c #F1D6FE",
"n  c white",
"m  c #302874",
"M  c #B355EA",
"N  c #7E0EBE",
"B  c #A65FF4",
"V  c #AC41E0",
"C  c #AE4FEE",
"Z  c #A663F7",
"A  c #1C3017",
"S  c #AE4EEC",
"D  c #B13EE4",
"F  c #231B53",
"G  c #AD6AF3",
"H  c #C76EFA",
"J  c #B24CF1",
"K  c #DE99FD",
"L  c #A465F2",
"P  c #810FBF",
"I  c #A761F3",
"U  c #AD66F4",
"Y  c #372E82",
"T  c #DB94FA",
"R  c #8313C0",
"E  c #342A7C",
"W  c #F1CFFC",
"Q  c #3B5729",
"!  c #3D5D29",
"~  c #3E642E",
"^  c #1E184B",
"/  c #DB97FB",
"(  c #272061",
")  c #EECBF9",
"_  c #325628",
"`  c #6D9158",
"'  c #2C471D",
"]  c #7F16C3",
"[  c #B24FED",
"{  c #D795F8",
"}  c #E0A3FB",
"|  c #345224",
" . c #F7F2F8",
".. c #AF3BE3",
"X. c #00A6A5",
"o. c #B14FF0",
"O. c #19153E",
"+. c #DA99FA",
"@. c #F1D2FD",
"#. c #CF79F6",
"$. c #DC9EFC",
"%. c #486737",
"&. c #466F33",
"*. c #01A0A0",
"=. c #009495",
"-. c #851EC6",
";. c #213518",
":. c #3D602C",
">. c #365E2F",
",. c #3F692C",
"<. c #7F16C2",
"1. c #A94FED",
"2. c #2F256D",
"3. c #141034",
"4. c #42369A",
"5. c #026062",
"6. c #4D763A",
"7. c #2E4E23",
"8. c #AE46EB",
"9. c #C769F9",
"0. c #251F5B",
"q. c #AA66FA",
"w. c #B74EF8",
"e. c #3A3088",
"r. c #DEA0F8",
"t. c #E5A2FF",
"y. c #C974F5",
"u. c #273F1E",
"i. c #B546E3",
"p. c #282368",
"a. c #454742",
"s. c #AD64FF",
"d. c #03686C",
"f. c #065855",
"g. c #6B8554",
"h. c #AE6DF1",
"j. c #233B18",
"k. c #F5EDF8",
"l. c #AA71F0",
"z. c #336020",
"x. c #5B824D",
"c. c #AF3AE3",
"v. c #851ABE",
"b. c #8623C3",
"n. c #AE6AFF",
"m. c #3D3A46",
"M. c #B367FE",
"N. c #DFA6F8",
"B. c #62894D",
"V. c #597B49",
"C. c #B159E6",
"Z. c #008E8F",
"A. c #048885",
"S. c #AE51EF",
"D. c #3F328F",
"F. c #74985F",
"G. c #2F362B",
"H. c #ECC9F8",
"J. c #AE76ED",
"K. c #D672FF",
"L. c #FAF7FB",
"P. c #067676",
"I. c #141F12",
"U. c #D490F4",
"Y. c #EAA7FF",
"T. c #72509C",
"R. c #156D7E",
"E. c #036E6E",
"W. c #063D35",
"Q. c #955DDF",
"!. c #024A48",
"~. c #FCD4FF",
"^. c #FDFBFD",
"/. c #0B0D0F",
"(. c #A360EE",
"). c #8258C1",
"_. c #BA3EEF",
"`. c #AE51EC",
"'. c #DB9AF5",
"]. c #61586B",
"[. c #504955",
"{. c #1C2714",
"}. c #7C1AC2",
"|. c #AD6AFC",
" X c #7338B1",
".X c #573A99",
"XX c #A870D1",
"oX c #71369C",
"OX c #123250",
"+X c #3C2B56",
"@X c #5D3B78",
"#X c #352C6D",
"$X c #4B5C40",
"%X c #242C4B",
"&X c #C99BEF",
"*X c #9669D0",
"=X c #586E4F",
"-X c #B848F3",
";X c #38503F",
":X c #057D81",
">X c #419071",
",X c #7349BC",
"<X c #9B45CC",
"1X c #8643A4",
"2X c #25597A",
"3X c #AA69EA",
"4X c #3A4236",
"5X c #38598B",
"6X c #7D857C",
"7X c #706977",
"8X c #B788CE",
"9X c #276645",
"0X c #E9BFF6",
"qX c #B298BD",
"wX c #6A7865",
"eX c #166B57",
"rX c #C695E4",
"tX c #11B0B8",
"yX c #169A8F",
"uX c #19614C",
"iX c #1B4B2D",
"pX c #C8B9CF",
"aX c #A847E0",
"sX c #AC3BDB",
"dX c #103F59",
"fX c #BC6DEA",
"gX c #74478F",
"hX c #8870A8",
"jX c #BE89E0",
"kX c #9864B8",
"lX c #21657F",
"zX c #F3E6F7",
"xX c #FDD7FF",
"cX c #795F9B",
"vX c #C445FF",
"bX c #408DAF",
"nX c #8351A6",
"mX c #618D5B",
"MX c #23775F",
"NX c #ABAAAA",
"BX c #AE38E2",
"VX c #501F70",
"CX c #10445E",
"ZX c #DEC7E6",
"AX c #E5B9F1",
"SX c #7E329E",
"DX c #9F8CA9",
"FX c #849180",
"GX c #D0A1E2",
"HX c #3E527F",
"JX c #1B1C2D",
"KX c #ECACFF",
"LX c #147464",
"PX c #6D6D7E",
"IX c #647DD5",
"UX c #7667D3",
/* pixels */
"1.1.1.1.1.1.1.1.1.1.1.h h h h h V V V V V V V V h h h h h h h h h h h h aXV V V V V V V V V V V V V V V h h h h h h h h }.}.}.}.",
"= = = = = = $ $ $ $ . $ $ = $ w > > > > > > > > w = = = = = = = = = $ w > > > > > > > > > > > > > > >   w J = = = = J k : x + + ",
". . . . 8 8 8 . 8 8 J 1 1 1 1 1 7 7 D 7 7 7 7 > 1 w 8 8 1 1 1 1 1 1 1 1 > 7 7 > > 7 > >                 w 1 1 1 1 1 = 8.: x + + ",
". . . . r r r r M M M M M M M r 9 9 9 9 9 9 9 9 r r r r r r r r r r r r 9 9 9 9 9 9 9 9 c c c c c c c c r r r r r r r S : x + + ",
". @ 1 M 0XH.z H.zXk.k.k.k.k.k.zX'.T T T T T T '.0Xz z z z z z z z z z z '.T T T T T / U.U I I I I I I 3X0XH.z z z z ) AXb.& j + ",
". @ 1 M ) 6 b 6 n n n n n n n ^.N.i t t t t ; N.@.6 6 6 6 6 6 6 6 6 6 b } ; t t t t ; q G X 5 5 5 5 , l.W 6 b 6 6 b 6 H.b.& j + ",
". . 1 M H.b @.b ^.n n n n n n L.N.i O O i i 3 r.@.b @.@.@.b b 6 b b b @.} i O O ; O ; q G , X X X X Z h.) 6 b b b @.6 z b.& j + ",
". . 1 M ) 6 b 6  .L.L.L.L.L.L.k.N.3 3 3 r.r.r.N.W ~.~.xX~.W ZXpXW W W ) $.K K K / / 3 { U f f a 4 4 I h.z W W W b b 6 z b.& j + ",
". @ 1 C.k.^.^. .J.l.J.J.J.J.J.J.y.- - #.z xX~.) GXqXDX6XwX=X%.&.XXh.l.h.M r M r i.i.i.i.c c c c S C d r #.#.#.#.W b 6 z b.& j + ",
". @ 1 C. .n n  .h.B I Z Z Z Z f * o 0 y.~.NXg.V.%.>.z.z.~ ~ >.,.cXs.L I 8 1 8 8 7 7 7 7 > > > D = $ w [ g 0 g y.W b 6 z b.& j + ",
". @ 1 C. .n n  .l.Z 5 5 5 5 5 e H 0 9.#.qX7.z.z.~ ,.V.g.g.6.&.&.=Xq.5 4 @ . @ $ %   % %       D w . 8 S u 2 0 #.W b 6 H.b.& j + ",
". @ 1 C. .n n  .l.Z 5 X X X X e y.y.K.XX' | ,.~ ~ 6.B.F.` ` ` B.6.*Xq.f @ $ . $ D > D D D D D c $ [ @ [ g 2 u #.) @.b z b.& j + ",
". @ 1 C. .n n  .l.Z 5 e H H H y.z W z $X' | :.6.B.` ` F.F.` ` x.B.hXs.L @ $ . . 8 w = = = = 8 @ 9.g g g * 2 0 - r.} N.'.-.& j + ",
". @ 1 C. .n n  .l.Z 5 e 0 2 0 #.W 6 wX' ' ' | V.x.B.F.F.` ` =X;XQ wXL 4 @ . . . @ @ @ @ @ @ . [ u 2 2 2 o o 0 - K i ; { -.& j + ",
"@ . 1 C. .n n  .l.Z 5 e u 0 g y.~.pXj.' u.u.' V.x.%.$X%.F.` G./.G.6.*Xs.S $ . . $ $ $ . $ 8 = o.u o o o 2 o o - K O t { -.& j + ",
"= w 1 C.k.^.^.k.l.f e U * - * #.) ) Q u.u.u.' :.V.I./.G.B.6.%.V.g.6.PXs.S 8 . . d C C @ @ . . [ u 2 o o * * * - K i t { -.& j + ",
"  % 7 i.r.N.N.r.y.u u y.T +./ q r.KX7Xj.u.u.u.' 6.%.=Xg.%._ ~ V.6.&.%.h J . 8 C a f a a H g g g o o o H U v e G q O t { -.& j + ",
"    7 9 / i 3 K - o o - 3 t ; O $.t.8Xj.;.A ;.;.:.x.x.6.%.%.%.! :.&.,.nXw.S 8 C Z l X e * 2 2 2 o * o H 4 , Z p +.O t { -.& j + ",
"  % 7 9 +.t ; q - 0 0 - K ; i O O ; $.;X;.A A A u.,.&.,.Q ! ~ ~ Q ~ z.T.vXw S C Z l , 4 H 0 0 0 o o 2 * e X , p q ; t { -.& j + ",
"  % 7 9 +.; O q #.- - #.K ; O O O $.Y.7XA A A A A :.&.,.Q 7.' u.{.I.@XQ.UXQ.-X`.e p p G * - - 2 * * * H v f f p T K 3 U.-.& + + ",
"  % 7 9 / t O i K K K K i O O O O $.t.8X{.I.{.A A ' ' A I./././.I.!.:X=.X.X.IXM.{ +.+.+.q K K T G v U v `.@ C S i.i.i.9 R N P P ",
"  % 7 9 +.t O O ; ; ; ; O O O O ; t.$.&X;XW.A I.A A W.{.j.7.| | Z.X.=.=.*.X.X.bX+.t.; ; ; ; t q p , X I S = $ w 7 7 7 BXs N # # ",
"    7 9 / i 3 i O O O O O O O t.&XbXtXtXX.*.Z.5.f.P.:XuX>.! ! MXyXX.A.uX>X>XmXx.6XrXi t.i O ; q p , 5 f S . . = %   % c.s N # # ",
"    7 i.'.} r.r.O O O O O O O t rX5.A.*.yXyX>X>Xx.MXP.:XeX7._ A.*.X.=.u.%.x.g.g.B.mXFXqX&X3 i / U f 4 a $ w $ w %   % c.s < # # ",
"w 8 1 M z @.W ) } i O O O O O K y.d.!.>.g.g.g.` ` ` x.V.6.~ P.=.*.X.=.iX7.,.&.V.` ` B.` F.6XhX3XS.S C S c   % %     % c.s < # # ",
". @ 1 M ) 6 b @.} i O O O O O K y.R.f.7.7.:.&.6.%.~ ! ! :.! LX=.X.*.Z.iX' >.&.:.~ &.%.$XQ ' j.Q.w.8 $ w D > > >     % c.s < # # ",
". . 1 M ) b b @.} i O O ; O ; 3 y.lXf._ Q _ :.:._ _ _ Q Q Q eX=.*.*.=.f.| >.~ ~ :.>.j.;.;.A G.(.o.$ @ = D           % c.s < # # ",
". . 1 M ) b b @.} i O O 3 3 3 / - 2Xf._ ! | 7._ ! Q 7.7.| | eXZ.*.*.=.f.| &.,.~ ,.&.j.;.;.;.4XI C $ @ = D       % D % ..s < # # ",
". @ 1 M ) 6 b @.} i ; K #.- - - K.*Xf.iXQ :.Q _ ! ! Q | 7.Q 9XZ.*.*.Z.5.' _ ~ :.:.,.j.A ;.;.m.o.. . . =         w w w 8.s < # # ",
". @ 1 M ) b b W } i ; 3 2 0 0 0 u K.3X;X| ! :.~ ~ :.Q _ | Q 9X=.*.X.Z.R.kX]._ z.,.>.j.;.;.A m.w.S . . = %       = . @ k R < # # ",
"@ @ 8 M ) b b @.} i t q - o 2 o o H K.fX$X' 7.~ :.| Q ! :.Q >.=.X.X.Z.P.H K.XX7X6.z.A ;.A A @Xw.S . . =     >   = . $ 8.R < # # ",
"= = k M H.@.@.W r.3 $./ - 0 o o o o H 2 H kX].~ ! | _ >.9XuXE.=.X.X.Z.R.fX* 2 0 *X].@XT.<XaXJ . . . . 8 D     % . d o.k R < # # ",
"% % D i.$.N.} r.#.- - - * o o o o o o H U M.M.HXW.W.!.5.d.d.d.A.*.*.A.R.L U e e q.s.n.M.w.J . . . . . . 8 8 w 8 a f v B : x + + ",
"    7 9 / ; i K - * 0 0 o o o o o * o * e L q.5XW.W.f.d.E.E.5.P.Z.=.A.R.L l , , L L L I S . . . . . . . . . . C f 5 5 B : x + + ",
"  % 7 9 +.t ; 3 - o 2 o o o o o o o o * e , M.5X!.!.f.d.E.E.5.5.P.:XP.R.e X X X X X X a d $ . . . . . . $ . 8 . I X 5 B : x + + ",
"  % 7 9 +.; O 3 - * o o o o o o * * * H e L M.5X!.f.5.d.E.d.5.5.5.d.d.lXe X X X X X X f o.@ @ @ . . . . [ [ [ [ f X 5 B : x + + ",
"  % 7 9 / ; O 3 - o o o o o o * U e e e X L n..XO.OXdXCXdXOX%X%XF OX5.2Xq.X X X X X X X 4 f 4 a @ . . [ 9.u g 9.e , 5 B : x + + ",
"    7 9 / ; O q - o o o o o o * l , X , X L n..X^ F ^ F F F F F F ^ OX2Xq.X X X X X X X X X 5 4 C . . `.u 2 2 * e X 5 B : x + + ",
"  % 7 9 +.t ; 3 - 0 o o o o 2 * v , X X , L n..XF ( 0.0.( ( 0.( 2.p.^ #XX X X X X X X X X X X f d = 8 @ g o * * e , 5 B : x + + ",
"  % 7 9 { $.q +.- 0 o * * * * H e , X X p p G D.p.2.m 2.p.p.0.F E m ( F Q.q.L X X X X X X X X 4 r r r M u 2 o * v f e B : & x x ",
"    > c U G G G * o o * U v U e X X , p { 3 U.Y 2.m E p.( 0.^ ^ m m 2.F ).|.L X X X X X X X , p T / +.T - 0 2 u `.S S.k R N # # ",
"      c B Z , e * o o * e 4 , , 5 5 , p +.Y.jX2.m m 0.^ F ^ O.O.m m m 0.,Xn.L X X X X X X 5 4 G $.t t $.- 0 2 g @ 8 $ 8.s N # # ",
"    > c f 5 X p * o o * v X X X , , Z p { Y.XXp.m m 0.F F ^ 3.^ E Y E ( .X|.L X X 5 5 X , , , p q O O q - 0 2 g @ 8 @ k R < # # ",
"    > c a 4 f e H * * H v X X X p p e h.+.Y.).p.Y m ( F ^ O.O.0.Y D.e.m e.X X X , 4 4 , p p e h.q ; ; 3 y.H * H @ 8 @ 8.s < # # ",
"      % S S S C v e e e 4 X , p { q +.q $.Y.T.m e.m ( F ^ 3.O.2.E 4.D.E Y Q.l 4 `.S d M { q +.+.O O ; q G e e v @ $ @ k s < # # ",
"        8 . $ . f X , , X 5 , G q t ; O t.U.4.4.Y 2.( F ^ 3.F E E 4.Y 2.m ).|.I . $ 1 r / t ; ; O O ; q p , X f @ $ @ k s < # # ",
"        8 @ $ @ a X X X , , , p q O i $.Y.).E 4.Y 2.( F O.3.m Y m 4.e.E m ,X|.I d = 8 r / t O O ; O t q p f X 4 d $ . 8.s < # < ",
"        8 @ $ S f X X X p p e h.q ; $.t.jX#Xe.4.Y p.^ O.3.3.e.4.Y D.D.D.m ,XM.I `.@ @ M T 3 K 3 q q $.{ U f 4 a C . S k R N N N ",
"        8 @ $ @ a X , p { q +.q O O O i ].%Xe.4.e.F O.3.3.2.Y 4.e.Y Y Y p. Xw.`.9.u g g - - - - h.G G p `.d d S.a I f B : x + x ",
"        8 @ = S f X , p q t ; ; O $.t.8Xa.m.Y 4.m O.O.3.VX Xp.4.D.E E E p. Xw.[ g 2 2 o 0 * * u 4 Z , I S $ 8 S 4 X 5 I : x j + ",
"        8 @ $ C f X , p +.; O O ; O t.rX[.m.E e.^ O.3.3.sXoX0.Y e.E E E (  Xw.S u 2 o o o o 2 * e X 5 f S . 8 d I , X B : x + + ",
"      % w 8 w . v e 4 G / 3 K K q q q K cX4X#X( 3.O./.oXvXoXG.#XY m 2.( ^ oXw.`.H * * * * * * H v f 4 a S $ $ @ 4 e e B : x + + ",
"        % D D 9 g * H H - - - - G p G U h [.m.JX{.I.+X% _.1X4X+Xm ( 0.+X%XT.M.I e e e e e e e 4 S.C C C . . 8 [ H * * 9.-.x + + ",
"            > % g 2 0 0 0 0 0 u v Z X I w.nXG.+X@XSXsX  _.1X4Xm.m.m.[.].a.T.n.L X X X X X X , Z C $ . . . . 8 [ u 2 2 9.: x + + ",
"          > > % g 2 2 2 2 2 2 * v l 5 4 @ h <XJ _._.% D _.1Xa.a.a.a.a.a.G.T.n.L X X X X X X X f d 8 $ $ 8 . 8 @ g * o 9.: x + + ",
"        %   > c 9.u g g u u u H v f , a 8 w J w D D D     > <XgX[.a.[.gX).(.X X 4 4 4 4 4 4 4 f S.S S . @ @ $ [ * - - H -.x j + ",
"        w = w w 9 9 9 9 [ [ [ [ S S C . %   D           w 8 -Xw.(.Q.f s.n.l X f S.d S S S S S C a 4 f f H g g y./ K i U.v.N # # ",
"      D w . . = D 7 7 D 8 8 8 8 $ = $ 8 > >           D 8 . $ S 4 q.X L L , X f . = $ = = $ = S f X X e * 2 0 - K i t { v.< # < ",
"% %     = @ d $ % % > c $ o.@ @ @ @ o.. %   % % % % % % $ o.@ o.4 5 5 5 5 5 5 4 o.$ d d d o.. [ 4 l 5 p * 2 o - 3 t t / v.< # # ",
"....c...8.k k k ....c...k k k k k k k k ..c.............8.k k 8 B I B B B B I B 8 k k k k k 8.k B B B I 9.9.9.H U.{ +.U.v.< # # ",
": : : : : : : : s s s s : : : : : : : : R s s s s s s s R R R R : -.: : : : : : R R R R R R R R : : : : -.-.-.-.v.v.v.v.y # # # ",
"x x x x x x x x # < < N x x x x x x x x N < < < < < < < < < y < x x x x x x x x N < < < < < < N & x x x x & x x N < < < # # # # ",
"+ + + + + + + + P P P N + + + + + + j + N N P P P P P # P P P P + + j j j j + + P # # # P P # P + + j j + + j j # # # # # # # # ",
"<.] ] ] <.<.] <.# y y y <.] <.] ] ] ] <.y y y y y y y y y y y y <.<.] ] ] ] ] ] y y y y y y < y <.] <.<.] ] <.<.y y y y y y y y "
};
