/* XPM */
static char *_689f1ecfec64f59c540d9cc43f57501RbR20JWL0SAVrfuj[] = {
/* columns rows colors chars-per-pixel */
"64 64 256 2 ",
"   c #B23DE4",
".  c #B04CED",
"X  c #CD6FFB",
"o  c #A665F5",
"O  c #8015C6",
"+  c #7F0FBC",
"@  c #DE9EFE",
"#  c #CA6FFB",
"$  c #7E0DBC",
"%  c #B43EE6",
"&  c #B04BED",
"*  c #7F0FBD",
"=  c #B24BEE",
"-  c #A666F6",
";  c #B04DEE",
":  c #DE9AFD",
">  c #CC6EFC",
",  c #A764F5",
"<  c #831AC8",
"1  c #A564F6",
"2  c #B049ED",
"3  c #E0A0FF",
"4  c #A966F6",
"5  c #CD70FC",
"6  c #E09FFF",
"7  c #B14AED",
"8  c #7F13C4",
"9  c #DB9AFC",
"0  c #7E12C5",
"q  c #AF4EEE",
"w  c #CA6CFA",
"e  c #A763F5",
"r  c #CD73FA",
"t  c #7E16C3",
"y  c #B14DEE",
"u  c #C96EFB",
"i  c #DB99FB",
"p  c #2D256E",
"a  c #B23EE5",
"s  c #B43CE6",
"d  c #B13CE5",
"f  c #AF4DED",
"g  c #A861F5",
"h  c #DF9DFF",
"j  c #B352EC",
"k  c #8312BF",
"l  c #AB4EE8",
"z  c #DD9DFD",
"x  c #AD48EB",
"c  c #F1D5FE",
"v  c #AD41E0",
"b  c #262161",
"n  c white",
"m  c #AA63F6",
"M  c #B13BE4",
"N  c #EBC7F9",
"B  c #F1D2FD",
"V  c #F3D8FF",
"C  c #F2D7FF",
"Z  c #AF3AE2",
"A  c #AB69F4",
"S  c #B441E5",
"D  c #221E59",
"F  c #DEA1FB",
"G  c #A562F7",
"H  c #B13FE6",
"J  c #DA97FB",
"K  c #AF4FEE",
"L  c #AC67F5",
"P  c #EFCEFB",
"I  c #AF49EF",
"U  c #A968F4",
"Y  c #CD75F8",
"T  c #477432",
"R  c #3C622D",
"E  c #AA65F6",
"W  c #A45FF3",
"Q  c #2B2468",
"!  c #EECBFA",
"~  c #406A2D",
"^  c #40652E",
"/  c #E7A0FF",
"(  c #8313C1",
")  c #D795F9",
"_  c #E0A4FB",
"`  c #2B431D",
"'  c #8620C5",
"]  c #DA94FB",
"[  c #B454EB",
"{  c #B24EEE",
"}  c #B544E4",
"|  c #A966F9",
" . c #DF9FFE",
".. c #4539A2",
"X. c #EAA4FF",
"o. c #F8F3F9",
"O. c #AD47EB",
"+. c #017D7E",
"@. c #457131",
"#. c #396726",
"$. c #253E17",
"%. c #372E88",
"&. c #029190",
"*. c #3E3194",
"=. c #456E34",
"-. c #8418C8",
";. c #C76BF8",
":. c #3B308D",
">. c #AC6CF2",
",. c #017170",
"<. c #375B26",
"1. c #AA50EC",
"2. c #B250EC",
"3. c #CC71FA",
"4. c #CF78F8",
"5. c #395F29",
"6. c #213314",
"7. c #26391A",
"8. c #026562",
"9. c #312873",
"0. c #1A1646",
"q. c #B069F4",
"w. c #352B7D",
"e. c #B24CF1",
"r. c #017877",
"t. c #AC67FD",
"y. c #048078",
"u. c #487738",
"i. c #393B37",
"p. c #335623",
"a. c #446936",
"s. c #336320",
"d. c #B646E5",
"f. c #038484",
"g. c #018B8B",
"h. c #A566F5",
"j. c #527B3F",
"k. c #324722",
"l. c #2D4D1E",
"z. c #F6EEF9",
"x. c #B258E8",
"c. c #AC70F3",
"v. c #506B42",
"b. c #8519BF",
"n. c #AF74EE",
"m. c #005551",
"M. c #A465F4",
"N. c #12311C",
"B. c #B263FB",
"V. c #C568F9",
"C. c #A55EF3",
"Z. c #43379B",
"A. c #BB3DF0",
"S. c #015C5C",
"D. c #41433D",
"F. c #B74AFA",
"G. c #046B67",
"H. c #F9F8FB",
"J. c #666867",
"K. c #777879",
"L. c #6A8E55",
"P. c #D38FF3",
"I. c #D36FFF",
"U. c #D574FF",
"Y. c #01605F",
"T. c #413E4E",
"R. c #E0A7FA",
"E. c #CD96F0",
"W. c #DA9CF9",
"Q. c #C692E0",
"!. c #9985A4",
"~. c #2E3C1F",
"^. c #F5DBFE",
"/. c #4C3FB5",
"(. c #FEFCFD",
"). c #248FA3",
"_. c #1E194F",
"`. c #9059C9",
"'. c #017A7A",
"]. c #B94EF7",
"[. c #287E96",
"{. c #5C486D",
"}. c #81559C",
"|. c #6C527B",
" X c #3A6798",
".X c #8669CA",
"XX c #039699",
"oX c #F9D5FF",
"OX c #1B2B15",
"+X c #317347",
"@X c #7C1AC1",
"#X c #7F0FBF",
"$X c #532E88",
"%X c #E8C5F4",
"&X c #3F3487",
"*X c #009A93",
"=X c #C672F7",
"-X c #498AB9",
";X c #596E50",
":X c #774FBE",
">X c #144E3E",
",X c #39373F",
"<X c #588941",
"1X c #52594F",
"2X c #5A575A",
"3X c #5E804C",
"4X c #E7BEF5",
"5X c #7538AF",
"6X c #9676AA",
"7X c #2C478C",
"8X c #8659AC",
"9X c #4D4056",
"0X c #345492",
"qX c #657C6C",
"wX c #806F86",
"eX c #0F717C",
"rX c #00A59D",
"tX c #A47EED",
"yX c #4B3EA8",
"uX c #AA8FC3",
"iX c #5E7A4D",
"pX c #5449AE",
"aX c #1F839A",
"sX c #A64AE0",
"dX c #9D61E7",
"fX c #8B3DAB",
"gX c #62359A",
"hX c #9039C3",
"jX c #9144CC",
"kX c #A63DD7",
"lX c #C0B6C5",
"zX c #31343B",
"xX c #0B7564",
"cX c #51495C",
"vX c #4879B3",
"bX c #B795DC",
"nX c #7C7F7B",
"mX c #705982",
"MX c #756590",
"NX c #435837",
"BX c #111210",
"VX c #F3E7F7",
"CX c #738FBD",
"ZX c #D09EE9",
"AX c #A064EB",
"SX c #4E4E52",
"DX c #358070",
"FX c #398599",
"GX c #6D48B4",
"HX c #AA73C6",
"JX c #136152",
"KX c #D080F4",
"LX c #6965BE",
"PX c #363158",
"IX c #58475F",
"UX c #9662B4",
/* pixels */
"1.1.1.1.1.1.1.1.1.1.1.l l l l l v v v v v v v v l l l l l l l l l l l l v v v v v v v v v v v v v v v v l l l l l l l sX@X@X@X@X",
"= = = = = = = = = = = . . . = 7 s s s s s s s s 7 y = = = = = = = = = 7 s s s s s s s s s s s s s s s % = = = = = = = O.-.8 O O ",
". . . . & 2 & & 2 I I I I I I 2 d d d d d d M   2 2 2 2 2 2 2 2 2 2 2 2 d M d d d d d d             d a 2 2 2 2 2 2 7 O.-.8 O O ",
". . . . j j j j [ [ j j j j [ j S S S S S S S S 2.j j j j j j j j j j 2.} S S S S S S S H H a a a a H H 2.j j j j j [ f < 8 O O ",
". ; I [ 4X! N ! VXz.z.z.z.z.z.VXi ] ] ] ] ] ] i %XN N N N N N N N N N %Xi ] ] ] ] ] ] P.L g g g g g C.A 4XN N N N N ! 4X' 0 O O ",
". ; I [ P ^.C ^.n n n n n n n (.R.@ 3 3 3 3  .R.c V V V V V V V V C C c _  .3 3 3 3 3 9 A o - - - - 1 >.P ^.C V V C ^.! ' 0 O O ",
". . 2 [ ! C B c (.n n n n n n H._ h  .@ z z z F B c c c c c c c c V ^.oX_ @  . . .@  .9 A 1 - - o o 1 >.P V c c c B V N ' 0 O O ",
". . 2 [ P V c ^.o.H.H.H.H.H.H.z._ : z : F F F _ P B B B B oXoXoXP %XlXlX/ i i i i i : ) L e e g , o G >.N B P P c c V N ' 0 O O ",
". ; I x.z.(.(.z.tXc.n.n.n.n.n.n.Y r r 4.! B P ! R.F X._ ZXuX!.nXiXa.#.=.UX].[ j d.d.d.d.S H H H f K f 2.4.4.4.KXP c V N ' 0 O O ",
". ; I x.o.n n o.>.C.G G G G G g u X > Y P C C B F / !.;Xa.s.s.s.#.R =.u.@.8XF.x M M M M d d     7 . 7 { w > w r P c V N ' 0 O O ",
". ; I x.o.n n o.c.1 - - - - h.4 u X w Y P C C B F h v.s.<X<X<Xj.3X=.^ =.=.T 8XF.v   a         a 7 . & { u 3.> 4.P C V N ' 0 O O ",
". ; I x.o.n n o.c.G - o o o o 4 Y Y r 4.! B B P X.bX~ j.L.L.L.L.L.j.=.5.^ a.#.}.A.  a a a a a H . { y 2.w 5 w Y ! B c %X' 0 O O ",
". ; I x.o.n n o.c.G - 4 u # ;.Y N P ! ! R._ _ F X.!.T L.3XiX3Xv.v.3Xu.^ R a.R s.}.F.7 7 7 7 7 y ;.w w w X X > Y F _ _ i ' 0 O O ",
". ; I x.o.n n o.c.G - 4 # 5 > 4.P V V B F z z z 6 qX5.NXiXL.~.BXk.<Xj.a.R a.R R #.}.F.f ; ; . { > 5 5 5 X X > r i z  .) ' 0 O O ",
". ; I x.o.n n o.c.G h.4 u X > Y P C c B _ z @ 6 ZXv.BXOXv.a.v.v.@.~ u.@.R a.^ R #.mXF.f & & 7 { w X X X X 5 > r : @ 3 ) ' 0 O O ",
"7 & 2 x.z.(.(.z.c.e 4 L 3.r 3.4.! c B P F h z / !.s.j.j.` p.j.u.^ 5.@.~ 5.^ =.R #.`.F.f y y . 2.w 5 X X # # u 3.: @ 3 ) ' 0 O O ",
"a a d d.F R.R._ 3.u u 3.J : i i F _ _ _ @ @ z / J.s.R <.^ 5.p.p.p.p.~ #.R R a.^ v.AXg m ;.w w w X X X # L 4 | q.9 @ 3 ) ' 0 O O ",
"    M } ] h z : r X X Y : @ z z @ h z W.z z 3 E.NX<.l.<.p.l.l.$.` R ~ T =.R ^ #.J.t.h.4 # 5 5 5 X X X # o M.1 U i @ 3 ) ' 0 O O ",
"    M } J 3  .: 3.> > r : X.X./ W.W./ X./ 6 X.!.$.l.` ` $.7.6.OXOXl.@.j.^ <.a.s.MXt.M.m u > > > X X X # 4 - o A 9  .3 ) ' 0 O O ",
"    M } J  .@ : Y 3.3.4.J 6XwX2XNX;XqX!.uXQ.z P.9XOXOX6.$.6.` p.p.p.~ =.^ =.+Xy.eXeX.XB.=Xr r 3.# # # u m e e L ) i : P.' 0 O O ",
"    M } J 3 @ z 9 i i h Q.7.$.6.k.#.#.s.s.^ NX2X{.7.$.6.` 6.l.j.u.u.~ ~ =.T +Xr.,.G.CX/ i 9 : ) q.m L m K f q f d.d.d.S ( * #X* ",
"    M } J 3 @ @  . .@ / Q.~.k.7.k.~ ~ ~ ^ R <.l.N.N.` 6.` 7.` u.T T T T T T @.8.8.G.CXX.z  .3 9 U 1 h.e . 7 & 7 d M d Z k $ * + ",
"    M } J  .z z @ @ z 3 Q.` $.` $.^ R 5.R R 5.<.$.N.` 6.$.7.$.T @.@.@.T T T T 8.8.8.-X/ z @ 3 9 A 1 - , q . . & a   a Z k $ * + ",
"a a d } W.F F F @ @ z 3 Q.k.7.k.7.^ R <.<.5.5.<.` N.7.~.7.7.k.@.~ ^ ~ @.T @.T G.,.,.FX/ 9 9 z J L e , g . 7 7 2 a   a Z k $ + + ",
"7 & 2 [ N B P ! F h z / Q.$.6.` $.^ ^ R R R <.p.l.N.N.` $.6.k.=.@.@.@.T ~ ^ ^ xX+.+.FXi >.A >.A K q K f H a H a     a Z k $ + + ",
". ; I [ ! V C B F h @ 6 E.wXJ.;X;Xv.=.~ ~ #.<.l.k.N.N.~.~.6.` ~ u.u.u.+X+X+XDXuXbXE.W.i U 1 1 G f & & 7 a           a Z k $ + + ",
". ; 2 [ ! C c P F z @ @ 3 X.X.h =Xn.HX6XwXK.qXDXy.y.>X` >X>X>XJXxXf.&.+.'.f.).X./ / 6 9 A o - , q . ; 7 a           a Z k $ + + ",
". ; 2 [ ! C c B F z @ @ z i W.i r I.I.I.I.5 =Xn.tXtX Xm.S.Y.S.S.8.,.+.,.,.r.).z W.9 9 ) L G , G q & ; 7 a       a a a Z k $ + + ",
". ; 2 [ ! C c B F z  .: 4.r Y r 3.# # # # # X > B.V.0Xm.S.8.8.m.S.G.'.r.r.r.[.r >.A >.L K q K q . . . 7 a     a 2 7 = O.k $ + + ",
". ; 2 [ ! C c B F z  .: 3.> > > X X X X X # X u M.t. Xm.Y.G.S.m.Y.,.r.r.'.y.[.> , 1 1 g f & . . . . . 7 a     a & . { x k $ + + ",
". ; I [ ! V C B F h 3 : r > 5 X X X X X X X X # h.B. X8.G.8.m.m.Y.,.r.'.+.y.[.5 4 o - m q . . . . . . 7 a     a 7 & . O.k $ + + ",
"7 & 2 [ N c B P  .: z i r > X X X X X X # u # u h.B.vXy.r.8.m.S.Y.,.r.+.+.y.[.# E o o m q . . . . . . & H     H . f q x ( $ * * ",
"a H d } W._ _ F 4.r r r 3.X X X X X X # L E 4 4 M.B.vX&.g.,.Y.G.,.'.+.+.+.y.[.L o o o m q . . . . . . . 7 7 2 . g e , C.< 8 O O ",
"    M } J @ h : r w > > X X X X X X X # E 1 o o h.B.-XrXXX+.,.+.f.g.y.y.f.f.aXo o o o m q . . . . . . . . ; . q , h.- W < O O O ",
"  a d } J 3  .: r > X X X X X X X X X # E o o o M.B.-XrXXXg.f.g.&.&.f.f.g.g.aX- o o o m q & . . . . . . . & & f e o - W < 8 O O ",
"    M } J  .@ : r > X X X X X X # # # u E o o o h.B.-X*Xg.&.*XXX&.XXg.g.&.&.).o o o o e K f q f . . . . q { y { e M.- W < 8 O O ",
"    M } J  .@ 9 r > X X X X X u L 4 4 4 o o o m ;.I.LX0X0X7X7X&X7XrX&.&.&.&.).o o o o o e e , g ; . . K ;.w w ;.4 o - W < 8 O O ",
"    M } J  .@ 9 r > X X X X X u E M.o o o o o 4 u U.:X%.*.*.*.:.%. X&.*XXX*X).o o o o o - - - , q . . K u 5 5 # 4 1 - W < 8 O O ",
"    M } i 3  .: r > X X X X X # E o o o 1 1 1 | u U.:X%.*.:.*.:.w.p eX+.f.+. X- , o o o o o o e q I I y w X X # 4 o 4 W < 8 O O ",
"    M } ) z 9 J r > X # # # # u E o o o U U U A =XU.:X%.*.*.Q 0._._.D D b Q &X- o o o o o o o , j 2.2.j w X X # m e o C.< 8 t 8 ",
"    d H L >.A q.# X X u L E E 4 o o 1 A ) 9 9 i h P...Z...Z.D w.:.*.*.w.b D 9.dX| M.o o o o 1 U ) J J ) r > 5 w 2.f K x ( $ #X#X",
"    d H g 1 1 , # X X # E , o M.o - 1 A 9 3  .@ X..X*.....w.0.p :.%.:.w.b D b `.t.M.o o o - , A z 3 3 z r > 5 w { 7 . O.k $ * * ",
"    d H g - h.4 # 5 X # E o o o 1 1 G U i  .z 3 E...Z...Z.b 0._.w.:.:.%.p Q D GXt.M.o o 1 1 1 U i @ @ : r > 5 w { & { x k $ + + ",
"    d H g , e m u # # u E o o o U A U >.i  .z X..X*.....%._._.0.b %.:.%.9.p D Z.t.e e , U A U >.9  . .: r u # u { & y O.k $ + + ",
"      a . q q K m 4 4 E o o 1 U ) 9 i 9 @ z 3 E...Z.Z...p D _.0.D 9.:.:.9.p D w.l K f j ) 9 i i @ @  .9 q.E U m ; & y O.k $ + + ",
"      a 7 . & ; g h.o o o o 1 A 9 3  . .@ z X..X%.%.Z.*.b b _.0.D b %.*.w.p b b jXe.2 j i 3  . .@ @  .9 U 1 h.g ; & y x k $ + + ",
"      a & ; & q e - o o 1 o 1 U i  .z @ @ 3 E.yX....yX9.b b 0.D Q b p :.w.p Q D 5X].x j i 3 @  . .@ 3 9 A , - , ; & y O.k $ + + ",
"      a 7 . & ; e - o o U A U >.9  .@ @ 9 / .X.././.Z.Q Q D 0.gX$XD Q w.%.p p D gX].f [ ] : : : 9 9 z J L e , g K . { x ( $ * * ",
"      a 7 . & ; e - 1 U ) 9 i 9 @ @  .9 c.AX/./././.w.Q Q b D kX5XD b Q %.9.p b &Xw w w r r r 3.q.A >.A K q q K g e , C.< 8 O 8 ",
"      a 7 . & ; e - 1 A 9 3  . .@ z  .i q.:XpXpXpXyXQ Q p b $XA.hXb D D 9.9.p p 9.q.U.# > > > u , e 1 e f & & f , h.- W < 8 O O ",
"      a & ; . q e o 1 U 9  .@  . . .3 : >.K.K.K.K.SXb Q Q b hXA.kX9.Q Q p 9.p 9.b `.U.u X X 5 # 4 h.- , f . . f e o - W < 8 O O ",
"      a 2 & 7 . m 4 m A J h : : 9 9 W.J 6XK.K.nXJ.i.,X,XzX$X%   % $Xb p Q p p 9.zX}.U.u # # # u m e e e f . . f m E 4 W < 8 O O ",
"        a H   S ;.# u # r r r 3.q.A A L MXJ.J.J.SX,Xi.i.i.fXA.v ].5Xb p p Q p 9.i.{.t.4 4 4 4 m K f q q . . & { ;.u # V.< 8 O O ",
"            d S w 5 X X > > > u m 1 M.g l |.1X2X2XD.,Xi.9X%   H ].jXb p Q Q p PXi.T.dX| 1 o o e q & . . . . & { # 5 5 V.< 8 O O ",
"            M S w 5 5 5 5 5 5 # 4 o - , e.q mX1X1X1XD.~.fXA.  H e.sXT.T.T.T.T.D.i.i.`.t.M.- - , q & . . & & 2 y w X 5 V.< 8 O O ",
"        a     S ;.w w w w u w w m e o g . = . }.|.|.|.{.Z s   H f { IXD.D.D.D.i.9X`.E , , , , g K f q ; y { y { 3.r r ;.< 8 O O ",
"      a 2 & 7 7 S S S S { { { { q q q f a   a A.s s s % 2 & 7 . g t.8X{.{.cXcX|.l ].q q q q q K g e e m ;.w w 3.J 9 z P.b.$ * * ",
"      a 7 . . 7   M M   2 & & & & & & 7                 & . & q e h.| | o M.M.t.e.x & & & & & f e h.o 4 # 5 X r 9 @ 3 ) b.$ + + ",
"a a   a & y y & a a a H . y y y y y y . %   a a a a a a . y . q , - h.h.- - - , K ; y y ; y ; K , - - L # 5 X r z 3 3 ) b.$ + + ",
"Z Z M d O.x x O.Z Z Z Z O.x x x x x x O.Z Z Z Z Z Z Z Z O.x O.x C.W W W W W W C.x x x x x x x x C.W W g ;.;.V.;.) ) J P.b.$ + + ",
"-.-.-.-.< < < -.k k k k < < < < < < < < ( k k k k k k k ( ( ( ( < < < < < < < < ( ( ( ( ( ( ( ( < < < < < ' < < b.b.b.b.+ + + + ",
"8 8 8 8 8 8 8 8 $ $ $ $ 8 8 8 8 8 8 8 8 * $ $ $ $ $ $ $ $ $ $ $ 8 8 8 8 8 8 8 8 $ $ $ $ $ $ $ $ 8 8 8 8 8 8 8 8 $ $ $ $ + + + + ",
"O O O O O O O O * * * * O O O O O O O O * * * * * * * * * * * * O O O O O O O O * * * * * * * * O O O O O O O O * + * * * * * * ",
"t t t t t t t t + + + + t t t t t t t t + + + + + + + + + + + + t t t t t t t t + + + + + + + + t t t t t t t t + + + + + + + + "
};
